<?xml version="1.0" encoding="UTF-8"?>
<svg xmlns="http://www.w3.org/2000/svg" xmlns:xlink="http://www.w3.org/1999/xlink" version="1.1" width="512" height="512" x="0" y="0" viewBox="0 0 60 60" style="enable-background:new 0 0 512 512" xml:space="preserve">
  <g>
    <path d="M26.97 14.93c2.74 0 4.97-2.23 4.97-4.97S29.71 5 26.97 5 22 7.23 22 9.97s2.24 4.96 4.97 4.96zm0-7.93A2.97 2.97 0 1 1 24 9.97C24 8.33 25.34 7 26.97 7zM44.74 49.86 39.5 36.73a7.312 7.312 0 0 0-4.34-4.2c.12-.37.2-.75.24-1.15.02-.2.03-.36.03-.45-.12-3.01-1.92-5.24-3.41-6.59a.395.395 0 0 1-.02-.56c.3-.35.56-.76.77-1.24.05-.13.1-.26.14-.39h8.31a2.57 2.57 0 1 0 0-5.14H24.5a3.06 3.06 0 0 0-3.06 3.15l.03.87c.11 2.8.33 8.63-.29 13.32-.09.66.06 1.33.39 1.89-3.8 1.3-6.5 4.89-6.5 9.11 0 5.32 4.33 9.64 9.64 9.64 5.32 0 9.64-4.33 9.64-9.64 0-2.37-.86-4.57-2.33-6.28 1.09.19 2.03.89 2.52 1.89l5.43 11.02c.32.65.91 1.15 1.61 1.35.24.07.49.11.73.11.47 0 .94-.13 1.35-.38 1.1-.66 1.55-2.01 1.08-3.2zm-12.38-4.5c0 4.21-3.43 7.64-7.64 7.64s-7.64-3.43-7.64-7.64c0-4.04 3.14-7.37 7.15-7.61l3.49.6a7.576 7.576 0 0 1 4.64 7.01zm10.27 5.99c-.2.12-.39.09-.49.06s-.27-.11-.38-.32l-5.43-11.02a5.491 5.491 0 0 0-3.99-2.98l-8.05-1.37c-.06-.01-.11-.01-.17-.01-.28 0-.54-.12-.73-.33s-.27-.49-.23-.77c.65-4.86.42-10.81.31-13.66l-.03-.86c-.01-.29.1-.56.3-.77s.47-.32.76-.32h16.71a.57.57 0 1 1 0 1.14H32c-.29 0-.56.12-.75.33s-.28.5-.25.78c.02.16-.01.33-.08.49-.12.28-.26.52-.43.7-.88 1-.8 2.48.18 3.37 1.2 1.09 2.66 2.87 2.75 5.13 0 .04-.01.11-.02.19-.06.55-.24 1.09-.5 1.54-.16.28-.18.63-.04.92.14.3.41.51.73.56 1.83.33 3.34 1.56 4.03 3.29l5.24 13.13c.13.31.02.62-.23.78z" fill="#f4a4a3" opacity="1" data-original="#000000"/>
  </g>
</svg>
