<?xml version="1.0"?><!DOCTYPE svg  PUBLIC '-//W3C//DTD SVG 1.1//EN'  'http://www.w3.org/Graphics/SVG/1.1/DTD/svg11.dtd'><svg height="100%" style="fill-rule:evenodd;clip-rule:evenodd;stroke-linejoin:round;stroke-miterlimit:1.41421;" version="1.1" viewBox="0 0 64 64" width="100%" xml:space="preserve" xmlns="http://www.w3.org/2000/svg" xmlns:xlink="http://www.w3.org/1999/xlink"><rect height="64" id="school_breakfast_education_food" style="fill:none;" width="64" x="0" y="0"/><g><path d="M34.868,25.368c2.7,-2.7 6.407,-3.776 9.911,-3.23c1.144,0.178 2.297,0.178 3.441,0c3.504,-0.546 7.212,0.53 9.911,3.23c2.411,2.41 3.527,5.625 3.35,8.78c-0.131,4.038 -1.497,8.042 -4.106,11.353c-0.558,0.708 -1.151,1.365 -1.774,1.972c-1.688,1.644 -3.975,2.527 -6.331,2.527l-6.193,0c-2.77,0 -5.438,-1.215 -7.136,-3.404c-0.036,-0.047 -0.072,-0.093 -0.107,-0.14c-2.863,-3.752 -4.304,-8.273 -4.334,-12.802l0.002,0c-0.04,-2.994 1.081,-6.001 3.366,-8.286" style="fill:#f60a00;fill-rule:nonzero;"/><path d="M63,15l-1.031,1.547c-1.855,2.782 -4.977,4.453 -8.321,4.453l-4.648,0l-2.5,2l1.633,-2.903c1.771,-3.148 5.103,-5.097 8.715,-5.097l6.152,0Z" style="fill:#869f10;fill-rule:nonzero;"/><path d="M46.5,23l-1.028,0c-0.176,-1.589 -1.178,-2.928 -2.568,-3.578l0.523,-1.037c1.805,0.754 3.073,2.536 3.073,4.615" style="fill:#785445;fill-rule:nonzero;"/></g><g><path d="M22.833,45.333l0,6.667l10,0c2.301,0 4.167,-1.866 4.167,-4.167l0,-1.833l-14.167,-0.667Z" style="fill:#3e408f;fill-rule:nonzero;"/><path d="M7,46l0,1.833c0,2.301 1.866,4.167 4.167,4.167l11.666,0c2.301,0 4.167,-1.866 4.167,-4.167l0,-2.833l-20,1Z" style="fill:#5883bd;fill-rule:nonzero;"/><path d="M27,14.5l-20,0.5l0,31l20,0l0,-31.5Z" style="fill:#e5e2d4;fill-rule:nonzero;"/><rect height="4" style="fill:#5883bd;fill-rule:nonzero;" width="20" x="12" y="2"/><path d="M7,15l5,-9l20,0l-5,9l-20,0Z" style="fill:#6893ce;fill-rule:nonzero;"/><path d="M27,46l10,0l0,-31l-5,-1l-5,1l0,31Z" style="fill:#d0c6ac;fill-rule:nonzero;"/><path d="M27,15l10,0l-5,-9l-5,9Z" style="fill:#333482;fill-rule:nonzero;"/><path d="M20.929,28c0.772,-0.439 1.293,-1.27 1.293,-2.223c0,-0.67 -0.258,-1.28 -0.68,-1.735c-0.132,1.287 -1.22,2.291 -2.542,2.291l-4,0c-1.322,0 -2.41,-1.004 -2.542,-2.291c-0.423,0.455 -0.68,1.065 -0.68,1.735c0,0.953 0.521,1.784 1.293,2.223l-2.738,0l0.112,0.377c0.086,0.44 0.387,0.807 0.801,0.978l0.389,0.16c0.239,0.097 0.5,0.125 0.752,0.077l1.193,-0.221c0.162,0.463 0.602,0.786 1.11,0.786l0.035,0c0.39,0 0.706,0.315 0.706,0.705l0,0.078l-0.784,0c-0.406,-0.016 -0.782,-0.149 -1.09,-0.367l1.564,4.281c-0.026,0.006 -0.054,0.008 -0.082,0.008c-0.649,0 -1.176,0.527 -1.176,1.177l0,0.784c0,0.65 0.527,1.177 1.176,1.177l3.921,0c0.65,0 1.177,-0.527 1.177,-1.177l0,-0.784c0,-0.65 -0.527,-1.177 -1.177,-1.177c-0.022,0 -0.044,-0.002 -0.065,-0.005l1.545,-4.278c-0.31,0.221 -0.686,0.353 -1.087,0.362l-0.784,0l0,-0.079c0,-0.39 0.316,-0.705 0.706,-0.705l0.035,0c0.508,0 0.948,-0.323 1.11,-0.786l1.193,0.221c0.252,0.048 0.513,0.02 0.752,-0.077l0.389,-0.16c0.414,-0.171 0.715,-0.538 0.801,-0.978l0.111,-0.377l-2.737,0Z" style="fill:#5883bd;fill-rule:nonzero;"/></g><rect height="4" style="fill:#5883bd;" width="20" x="7" y="15"/><rect height="4" style="fill:#3e408f;" width="10" x="27" y="15"/><ellipse cx="33.88" cy="45.063" rx="4.926" ry="4.412" style="fill:#c05604;"/><ellipse cx="19.424" cy="46.353" rx="5.1" ry="3.647" style="fill:#f4ca6a;"/><ellipse cx="26.544" cy="44.884" rx="5.456" ry="5.116" style="fill:#e3a30e;"/><ellipse cx="39.793" cy="43.529" rx="6.207" ry="5.529" style="fill:#f4ca6a;"/><ellipse cx="45.916" cy="45.619" rx="4.916" ry="4.381" style="fill:#e3a30e;"/><path d="M54.13,46.026c0.228,0.016 0.425,0.115 0.577,0.267c0.188,0.187 0.293,0.442 0.293,0.707c0,1.074 0,2.778 0,3.892c0,0.385 -0.056,0.766 -0.162,1.108c-14.558,1.226 -29.116,1.235 -43.674,0c-0.108,-0.345 -0.164,-0.726 -0.164,-1.111c0,-1.114 0,-2.815 0,-3.889c0,-0.265 0.105,-0.52 0.293,-0.707c0.152,-0.152 0.349,-0.251 0.577,-0.267l42.26,0Z" style="fill:#f2e9dd;"/><path d="M54.838,52l-0.408,0.95c-0.711,1.186 -1.972,3.287 -3.1,5.166c-1.445,2.41 -4.049,3.884 -6.86,3.884c-6.088,0 -16.85,0 -22.94,0c-2.81,0 -5.415,-1.475 -6.86,-3.885c-1.128,-1.88 -2.389,-3.982 -3.1,-5.168l-0.406,-0.947l43.674,0Z" style="fill:#ddb88e;"/></svg>