<?xml version="1.0" encoding="UTF-8"?>
<svg xmlns="http://www.w3.org/2000/svg" xmlns:xlink="http://www.w3.org/1999/xlink" version="1.1" width="512" height="512" x="0" y="0" viewBox="0 0 512.002 512.002" style="enable-background:new 0 0 512 512" xml:space="preserve">
  <g>
    <path d="M400.866 221.84a10.077 10.077 0 0 0-7.07-2.93c-2.64 0-5.21 1.07-7.069 2.93-1.86 1.86-2.931 4.44-2.931 7.07s1.07 5.21 2.931 7.07a10.056 10.056 0 0 0 7.069 2.93c2.63 0 5.21-1.07 7.07-2.93 1.86-1.86 2.93-4.44 2.93-7.07 0-2.64-1.069-5.21-2.93-7.07z" fill="#f4a4a3" opacity="1" data-original="#000000"/>
    <path d="M457.093 386.284c-4.719-12.995-14.73-23.533-27.468-28.912-12.735-5.379-27.271-5.207-39.875.472l-21.244 9.57c29.265-24.176 44.246-60.835 40.176-98.77l-.016-.136-.653-5.394c-.665-5.483-5.648-9.395-11.13-8.725-5.483.664-9.39 5.647-8.726 11.129l.646 5.324c3.424 32.121-9.758 63.125-35.27 82.946l-61.444 47.74c-.588.457-1.226.84-1.893 1.162l-.562.253a10.61 10.61 0 0 1-1.084.378v-25.824l52.009-40.409c19.697-15.307 29.869-39.253 27.209-64.056a10.315 10.315 0 0 0-.19-1.145l-15.248-67.273a9.998 9.998 0 0 0-11.964-7.542c-5.386 1.221-8.763 6.577-7.542 11.963l15.114 66.683c1.708 17.665-5.611 34.668-19.65 45.577l-53.165 41.308h-37.376c-9.112 0-17.284 3.803-22.96 9.91l-39.144-17.633c-1.95-7.895 1.557-15.864 3.775-19.845l29.208-8.504h45.306c8.373 0 16.187-3.318 22.002-9.344 5.813-6.024 8.852-13.957 8.554-22.336-.587-16.525-14.225-29.47-31.048-29.47h-49.174c-2.891 0-5.764.409-8.546 1.218l-33.192 9.664 9.64-50.033c1.045-5.423-2.505-10.667-7.928-11.711-5.423-1.048-10.667 2.504-11.711 7.928l-10.395 53.952c-1.19 6.146.78 12.09 5.4 16.301 4.625 4.223 10.726 5.639 16.734 3.887l37.037-10.783c.14-.041.285-.057.426-.092v21.996l-31.548 9.184a39.225 39.225 0 0 1-10.961 1.576c-9.557.001-18.767-3.6-25.936-10.139-9.99-9.109-14.452-22.449-11.96-35.726l22.691-93.013a51.996 51.996 0 0 1 50.637-39.768h132.085c26.332 0 48.576 19.712 51.742 45.853l.907 7.481c.616 5.074 4.93 8.797 9.915 8.797.401 0 .808-.024 1.217-.074 5.482-.665 9.388-5.648 8.724-11.131l-.907-7.48c-4.382-36.17-35.162-63.446-71.598-63.446h-18.458c11.135-11.672 17.995-27.457 17.995-44.824V65c0-35.841-29.159-65-65-65s-65 29.159-65 65v10c0 17.367 6.86 33.152 17.995 44.824h-19.616a71.947 71.947 0 0 0-70.066 55.027l-22.752 93.259c-.038.155-.072.313-.103.47-3.92 20.249 2.838 40.634 18.076 54.527 10.217 9.32 23.209 14.696 36.83 15.301a48.186 48.186 0 0 0-1.35 7.304l-33.036-14.882c-12.605-5.681-27.14-5.85-39.876-.473-12.736 5.379-22.748 15.916-27.468 28.912-4.67 12.858-3.923 26.704 2.104 38.985 6.026 12.281 16.521 21.344 29.549 25.518a9.993 9.993 0 0 0 3.053.479c4.231 0 8.161-2.707 9.521-6.952 1.685-5.259-1.213-10.889-6.473-12.574-7.802-2.499-14.087-7.927-17.695-15.281-3.609-7.355-4.058-15.647-1.261-23.348 2.868-7.897 8.71-14.046 16.449-17.314 7.739-3.27 16.222-3.169 23.881.282l49.521 22.308.006.003 43.204 19.462c-.031.41-.06.82-.075 1.235-.298 8.38 2.74 16.312 8.554 22.336 5.815 6.025 13.629 9.344 22.002 9.344h6.188l-32.485 14.634-49.887-14.198c-5.313-1.516-10.843 1.568-12.355 6.881-1.512 5.312 1.569 10.844 6.881 12.355l19.651 5.593h-13.201c-17.365 0-31.492 14.127-31.492 31.491 0 17.364 14.129 31.492 31.494 31.492h70.728l.026.002c1.012 0 2.04-.154 3.052-.479l129.522-41.494a9.963 9.963 0 0 0-.728 3.733c0 6.336-5.155 11.491-11.491 11.491h-20.237c-5.522 0-10 4.478-10 10s4.478 10 10 10h20.237c17.364 0 31.491-14.127 31.491-31.491 0-3.543-1.848-6.648-4.628-8.425l45.423-14.552c13.028-4.174 23.522-13.236 29.55-25.518 6.027-12.28 6.774-26.125 2.104-38.983zM221.732 285.382h31.708c5.899 0 10.861 4.566 11.059 10.18a10.498 10.498 0 0 1-2.957 7.736 10.489 10.489 0 0 1-7.61 3.233h-32.2v-21.149zM216.276 65c0-24.813 20.187-45 45-45s45 20.187 45 45v10c0 23.516-18.135 42.865-41.153 44.824H257.429c-23.018-1.959-41.153-21.308-41.153-44.824V65zm20.978 338.753a10.49 10.49 0 0 1-7.612-3.233 10.5 10.5 0 0 1-2.956-7.735c.199-5.613 5.161-10.181 11.061-10.181h30.804v21.149h-31.297zM162.044 492c-6.337 0-11.492-5.155-11.492-11.491s5.155-11.491 11.492-11.491h46.882L218.062 492h-56.018zm274.99-75.542c-3.609 7.354-9.894 12.782-17.696 15.281l-180.696 57.889-13.708-34.482-.011-.028-.367-.922 173.409-78.117c7.659-3.45 16.139-3.552 23.88-.282 7.739 3.269 13.581 9.418 16.449 17.315 2.797 7.7 2.349 15.991-1.26 23.346z" fill="#f4a4a3" opacity="1" data-original="#000000"/>
    <path d="M131.316 417.031c-1.86-1.86-4.44-2.931-7.07-2.931s-5.21 1.07-7.07 2.931a10.076 10.076 0 0 0-2.93 7.069c0 2.641 1.07 5.21 2.93 7.08a10.05 10.05 0 0 0 7.07 2.92c2.63 0 5.21-1.06 7.07-2.92a10.1 10.1 0 0 0 2.93-7.08 10.08 10.08 0 0 0-2.93-7.069zM332.437 273.769l-.74-2.884c-7.273-28.348-32.791-48.147-62.056-48.147-5.522 0-10 4.477-10 10s4.478 10 10 10c20.129 0 37.681 13.618 42.683 33.116l.74 2.885c1.159 4.516 5.223 7.517 9.68 7.517.822 0 1.659-.102 2.492-.315 5.35-1.373 8.573-6.822 7.201-12.172z" fill="#f4a4a3" opacity="1" data-original="#000000"/>
  </g>
</svg>
