<?xml version="1.0" encoding="UTF-8"?>
<svg xmlns="http://www.w3.org/2000/svg" xmlns:xlink="http://www.w3.org/1999/xlink" version="1.1" width="512" height="512" x="0" y="0" viewBox="0 0 512 512" style="enable-background:new 0 0 512 512" xml:space="preserve">
  <g>
    <path d="M476.493 428.8c-3.217-20.909-20.208-36.476-41.317-37.858l-84.189-5.507a262.372 262.372 0 0 0 7.024-60.43v-90.44a63.075 63.075 0 0 0-8.22-31.104c-9.942-17.494-27.817-29.259-47.817-31.471l-16.498-1.825v-14.974a67.51 67.51 0 0 0 13.345-35.73l.572-.857a70.634 70.634 0 0 0 11.9-39.305 47.914 47.914 0 0 0-12.257-32.03 47.972 47.972 0 0 0-16.701-12c.132-1.079.206-2.169.206-3.27 0-14.634-11.906-26.54-26.54-26.54s-26.542 11.906-26.542 26.54c0 1.103.075 2.193.207 3.272a47.977 47.977 0 0 0-16.699 11.998 47.914 47.914 0 0 0-12.256 32.03 70.636 70.636 0 0 0 11.9 39.305l.573.859a67.512 67.512 0 0 0 13.345 35.729v14.973l-16.499 1.825c-20 2.212-37.875 13.977-47.816 31.471a63.075 63.075 0 0 0-8.22 31.105v90.439c0 20.51 2.366 40.713 7.023 60.43l-84.189 5.507c-21.109 1.382-38.1 16.95-41.317 37.857a44.758 44.758 0 0 0 20.286 44.62A145.235 145.235 0 0 0 133.636 496h244.732c27.604 0 54.52-7.809 77.84-22.581a44.756 44.756 0 0 0 20.285-44.62zM300.215 187.892c14.917 1.65 28.25 10.425 35.665 23.474a47.037 47.037 0 0 1 6.13 23.199v90.439c0 32.89-6.428 64.955-19.107 95.304L297.965 480h-7.89l-1.92-44.665 14.45-13.487a7.998 7.998 0 0 0 2.517-5.228l6.1-78.559 12.791-54.82a57.789 57.789 0 0 0-5.399-40.556l-7.348-13.647a76.73 76.73 0 0 0-13.512-41.417l2.462.272zM281.893 417.89c-3.05-6.1-9.18-9.889-16-9.889a17.78 17.78 0 0 0-9.891 2.996 17.78 17.78 0 0 0-9.89-2.996c-6.82 0-12.95 3.79-16 9.889l-.48.958-7.04-6.57L221.019 392h69.968l-1.575 20.276-7.04 6.571zm13.61-82.871c-.092.394-3.275 40.982-3.275 40.982h-72.452s-3.183-40.588-3.275-40.982l-2.023-8.672c26.935-8.106 56.113-8.106 83.048 0zM283 114.725a51.447 51.447 0 0 1-10.315 30.855 56.766 56.766 0 0 1-33.365 0 51.442 51.442 0 0 1-10.315-30.855v-15.29l7.364-6.627h39.266L283 99.435v15.29zm-40.472 48.091c4.448.837 8.96 1.271 13.475 1.271s9.025-.434 13.473-1.27v10.627l-13.474 10.6-13.474-10.6zM256 21.46c5.623 0 10.219 4.43 10.513 9.98-1.062-.07-19.962-.07-21.025 0 .294-5.55 4.889-9.98 10.512-9.98zM224.88 57.95a32.02 32.02 0 0 1 23.81-10.63h14.624a32.02 32.02 0 0 1 23.81 10.63 31.936 31.936 0 0 1 8.17 21.349 55.06 55.06 0 0 1-.748 9.002l-10.49-9.44a7.999 7.999 0 0 0-5.35-2.053h-45.407a7.999 7.999 0 0 0-5.352 2.053l-10.488 9.44a55.052 55.052 0 0 1-.748-9.002 31.936 31.936 0 0 1 8.169-21.349zm-8.17 173.156c0-16.311 6.606-31.93 18.202-43.295 0 0 16.968 13.296 17.511 13.568a7.997 7.997 0 0 0 8.577-.91l16.092-12.658c11.596 11.366 18.201 26.984 18.201 43.295 0 1.324.33 2.627.957 3.793l8.276 15.372a41.803 41.803 0 0 1 3.906 29.335l-7.263 31.13c-29.334-8.62-61-8.62-90.334 0l-7.263-31.13a41.802 41.802 0 0 1 3.906-29.335l8.277-15.372a8.005 8.005 0 0 0 .956-3.793zm-46.717 3.46c0-8.119 2.12-16.141 6.132-23.2 7.415-13.048 20.747-21.823 35.664-23.473l2.462-.272a76.715 76.715 0 0 0-13.513 41.417l-7.348 13.647a57.789 57.789 0 0 0-5.4 40.557l12.792 54.819 6.1 78.559a7.998 7.998 0 0 0 2.518 5.228l14.45 13.487L221.93 480h-7.891L189.1 420.309c-12.679-30.349-19.108-62.414-19.108-95.304zM64.36 459.903a28.76 28.76 0 0 1-13.035-28.67c2.068-13.435 12.985-23.437 26.55-24.325 0 0 86.44-5.821 87.247-6.164 2.618 8.69 10.124 27.905 10.124 27.905l-36.715-12.238a7.998 7.998 0 0 0-10.12 5.06 8 8 0 0 0 5.06 10.118l48 16c.61.203 15.228 32.41 15.228 32.41h-63.062a129.26 129.26 0 0 1-69.277-20.096zM248 480h-10.055l1.975-45.95 4.503-9.007A1.878 1.878 0 0 1 246.11 424a1.89 1.89 0 0 1 1.89 1.889zm16.004-54.111a1.89 1.89 0 0 1 1.889-1.889c.72 0 1.366.4 1.689 1.044l4.503 9.006L274.06 480h-10.056v-54.111zm183.641 34.014A129.263 129.263 0 0 1 378.368 480h-63.062l13.391-32.054c.613-.053 49.837-16.357 49.837-16.357a8 8 0 0 0 5.06-10.119 7.999 7.999 0 0 0-10.12-5.06l-36.715 12.24s7.506-19.216 10.124-27.906c.807.343 87.248 6.164 87.248 6.164 13.564.888 24.48 10.89 26.549 24.325a28.761 28.761 0 0 1-13.035 28.67z" fill="#f4a4a3" opacity="1" data-original="#000000"/>
  </g>
</svg>
