<?xml version="1.0" encoding="UTF-8"?>
<svg xmlns="http://www.w3.org/2000/svg" xmlns:xlink="http://www.w3.org/1999/xlink" version="1.1" width="512" height="512" x="0" y="0" viewBox="0 0 512 512" style="enable-background:new 0 0 512 512" xml:space="preserve">
  <g>
    <path d="M476 360h-9.578l-14.691-9.794a23.854 23.854 0 0 0-22.973-2l-14.909 6.56-77.759-10.691A7.943 7.943 0 0 0 335 344h-13.414l5.558-30.569-15.744-2.862-7.273 40A8 8 0 0 0 312 360h22.453L368 364.613V384h-63.03a32.759 32.759 0 0 1-12.617-2.511 33.1 33.1 0 0 1-14.676-11.949A33.638 33.638 0 0 1 272 350.46V208h-13.586l32.479-38.974q10.224 6.676 21.04 13.881a45.3 45.3 0 0 1 17.583 51.256 430.488 430.488 0 0 0-15.205 60.406l15.742 2.862a418.185 418.185 0 0 1 14.646-58.22c8.487-25.452-1.56-54.73-23.894-69.619-24.888-16.577-47.191-30.916-68.186-43.838a108.651 108.651 0 0 0-123.819 6.935l9.86 12.6a92.189 92.189 0 0 1 46.2-18.959A115.7 115.7 0 0 1 168 155.882V152h-16v119.734L144.516 384H97.531a.955.955 0 0 1-.952-1.014.953.953 0 0 1 .714-.864L122 375.746a8 8 0 0 0 6-7.746V152a8 8 0 0 0-13.316-5.978l-24.011 21.355a98.329 98.329 0 0 0-23.589-2.577c-21.159.429-36.775 8.931-45.16 24.588a47.2 47.2 0 0 0-3.624 37.351c6.069 19.092 23.132 37.269 44.3 37.269a38.656 38.656 0 0 0 9.4-1.173v28.335a47.956 47.956 0 0 0 32.824 45.541L112 339.1v22.7l-18.7 4.826A16.954 16.954 0 0 0 97.531 400H152a8 8 0 0 0 7.982-7.468l8-120c.012-.177.018-.354.018-.532v-50.414a44.587 44.587 0 0 0 23.242-4.3A44.069 44.069 0 0 0 213.766 192h13.953L256 234.422V350.46a49.559 49.559 0 0 0 8.465 28.1A49 49 0 0 0 304.97 400h170.68a20.649 20.649 0 0 0 14.5-6.049 19.664 19.664 0 0 0 5.85-13.994A19.983 19.983 0 0 0 476 360ZM36.028 196.943c5.525-10.315 15.958-15.744 31.009-16.135a61.688 61.688 0 0 1 1.715-.022 78.387 78.387 0 0 1 10.99.813l-3.51 5.4-2.383-1.065a18.827 18.827 0 0 0-26.477 16.1A18.723 18.723 0 0 0 50.79 214L39 232.715c-5.47-7.962-10.883-21-2.972-35.772Zm43.536 46.208c-3.171.37-6.035 2.1-8.981 3.405a22.779 22.779 0 0 1-17.3-.543 23.505 23.505 0 0 1-2.8-1.52l17.182-27.28A8 8 0 0 0 66.247 207l-1.967-1.77a2.827 2.827 0 0 1 .256-4.414 2.845 2.845 0 0 1 2.786-.273l8.629 3.856a8 8 0 0 0 9.972-2.945c7.7-11.862 15.3-22.05 26.077-31.633v27.368l-7.5 9.357a8 8 0 0 0-.511 9.3L112 228.447v1.188l-12.911 8.2a8 8 0 0 0-3.506 4.958 55.107 55.107 0 0 0-.653 3.148c.103-.605-13.966-2.954-15.366-2.79Zm30.319 78.381A31.974 31.974 0 0 1 88 291.17v-30.427l11.069 2.648a8 8 0 0 0 9.671-6.045l1.73-7.783.756-.48A31.994 31.994 0 0 1 112 256v66.236ZM203.9 170.278c-3.716 12.61-6.783 26.374-19.638 32.606A27.994 27.994 0 0 1 168 205.515v-25.9a129.844 129.844 0 0 0 33.993-53.715 92.817 92.817 0 0 1 13.072 1.8c-3.865 14.155-7.016 28.5-11.165 42.578Zm44.813 24.37-10.057-15.086A8 8 0 0 0 232 176h-13.526l11.9-43.619a93.4 93.4 0 0 1 13.865 7 1947.636 1947.636 0 0 1 33.134 20.875Zm230.111 188A4.54 4.54 0 0 1 475.65 384H384v-17.187l29.911 4.112a7.99 7.99 0 0 0 4.311-.6l16.985-7.473a7.939 7.939 0 0 1 7.646.666l16.709 11.14A8 8 0 0 0 464 376h12a3.983 3.983 0 0 1 4 3.992 3.825 3.825 0 0 1-1.176 2.653Z" fill="#f4a4a3" opacity="1" data-original="#000000"/>
  </g>
</svg>
