<?xml version="1.0"?><svg viewBox="0 0 64 64" xmlns="http://www.w3.org/2000/svg"><g data-name="03-cook" id="_03-cook"><path d="M4.3,1.87a1.007,1.007,0,0,1,1.49-.08L7,3l.42.38L3.52,8.52,1.63,6.63A1,1,0,0,1,1.56,5.3Z" style="fill:#fff"/><path d="M3.52,8.52l3.9-5.14,8.09,7.19L9.94,18.64a1.118,1.118,0,0,1-1.53.11L1.37,12.92a.987.987,0,0,1-.1-1.45Z" style="fill:#ffcf4f"/><polygon points="19 9.21 15.74 10.24 15.51 10.57 7.42 3.38 9.23 1 11.84 3.19 19 9.21" style="fill:#e7aa2f"/><path d="M16,3A10,10,0,0,1,26,13v1.5A3.517,3.517,0,0,1,22.5,18,3.5,3.5,0,0,1,19,14.5V9.21L11.84,3.19,12,3Z" style="fill:#a3c7b9"/><path d="M62.73,1.754a1.7,1.7,0,0,1-.42,2.289L54,11c-.19,1.659-1.81,3.4-3.87,4.709-2.8,1.769-5.86,1.709-6.83-.13s.51-4.779,3.32-6.549C48.55,7.8,50,8,52,8l8.46-6.7a1.581,1.581,0,0,1,2.27.44Z" style="fill:#e8e4dc"/><circle cx="42" cy="20" r="1" style="fill:#a3c7b9"/><circle cx="45" cy="20" r="1" style="fill:#a3c7b9"/><circle cx="48" cy="20" r="1" style="fill:#a3c7b9"/><circle cx="42" cy="24" r="1" style="fill:#a3c7b9"/><circle cx="45" cy="24" r="1" style="fill:#a3c7b9"/><circle cx="48" cy="24" r="1" style="fill:#a3c7b9"/><path d="M46.652,15.932a8.5,8.5,0,0,0,3.653-1.551c2.45-1.78,3.4-4.289,2.131-5.6a3.1,3.1,0,0,0-2.359-.765A6.187,6.187,0,0,0,46.89,9.032c-2.477,1.56-3.918,4.028-3.561,5.851a1.915,1.915,0,0,0,.235.343A3.526,3.526,0,0,0,46.652,15.932Z" style="fill:#cdc3b4"/><path d="M23.5,16A2.5,2.5,0,0,1,21,13.5V8.92A2,2,0,0,0,20.3,7.4L15.167,3H12l-.16.19L19,9.21V14.5A3.5,3.5,0,0,0,22.5,18,3.517,3.517,0,0,0,26,14.5v-1A2.5,2.5,0,0,1,23.5,16Z" style="fill:#65adaf"/><path d="M18.058,4.178a1,1,0,0,0,.609,1.277q.261.093.514.2A1,1,0,0,0,20,3.839c-.028-.013-.055-.028-.083-.04s-.073-.028-.11-.044c-.173-.071-.352-.132-.53-.194A1,1,0,0,0,18.058,4.178Z" style="fill:#d7dbbe"/><path d="M20.878,5.369a1,1,0,0,0,.148,1.406,7.945,7.945,0,0,1,2.925,5.334,1,1,0,0,0,.992.891,1.065,1.065,0,0,0,.112-.006,1,1,0,0,0,.882-1.087c-.021-.2-.056-.393-.089-.588-.02-.119-.033-.24-.058-.358a9.976,9.976,0,0,0-2.69-5c-.011-.012-.021-.024-.033-.036-.158-.157-.327-.3-.494-.449-.081-.07-.156-.145-.239-.213-.026-.021-.055-.04-.082-.061A1,1,0,0,0,20.878,5.369Z" style="fill:#d7dbbe"/><path d="M11.394,7.859a3.783,3.783,0,0,1,.122,4.368L9.981,14.112a5.977,5.977,0,0,1-4.512,2.2L8.41,18.75a1.118,1.118,0,0,0,1.53-.11l5.57-8.07L10.82,6.4A2.979,2.979,0,0,0,11.394,7.859Z" style="fill:#e7aa2f"/><path d="M12.084,3.4l-.632.79A2.994,2.994,0,0,0,10.82,6.4l4.69,4.168.23-.33L19,9.21Z" style="fill:#e7942f"/><path d="M3.825,8.118,1.983,6.276a.5.5,0,0,1-.032-.664L4.689,2.184A.494.494,0,0,1,5.054,2a.483.483,0,0,1,.383.144L6.665,3.371l.455.4.3-.4.3-.4L6.144,1.437a1.508,1.508,0,0,0-2.235.121l-2.74,3.43a1.5,1.5,0,0,0,.107,1.995L3.214,8.921l.306-.4Z" style="fill:#635d50"/><polygon points="7.755 3.009 7.725 2.979 7.42 3.38 7.12 3.776 15.18 10.946 15.224 10.984 15.51 10.57 15.74 10.24 15.856 10.203 7.755 3.009" style="fill:#635d50"/><rect height="3" style="fill:#da684e" width="62" x="1" y="60"/><rect height="4" style="fill:#da684e" width="46" x="9" y="27"/><path d="M9,35v4H7.24a2,2,0,0,1-1.79-1.11L4,35Z" style="fill:#423e35"/><path d="M60,35l-1.45,2.89A2,2,0,0,1,56.76,39H55V35Z" style="fill:#423e35"/><path d="M9,31v4H2a1,1,0,0,1-1-1V32a1,1,0,0,1,1-1Z" style="fill:#a0968c"/><path d="M63,32v2a1,1,0,0,1-1,1H55V31h7A1,1,0,0,1,63,32Z" style="fill:#a0968c"/><path d="M55,53a4,4,0,0,1-3.52,3.97A3.994,3.994,0,0,0,52,55c0-2.21-1-6-2-6s-6,4.79-6,7a3.129,3.129,0,0,0,.14.96L44,57H35.46A3.989,3.989,0,0,0,36,55c0-2.21-3-6-4-6s-4,3.79-4,6a3.989,3.989,0,0,0,.54,2H20l-.14-.04A3.129,3.129,0,0,0,20,56c0-2.21-5-7-6-7s-2,3.79-2,6a3.994,3.994,0,0,0,.52,1.97A4,4,0,0,1,9,53V31H55V53Z" style="fill:#e8e4dc"/><path d="M58.491,57.5H5.509A.474.474,0,0,0,5,57.929V60H6.019V58.357H16V60h1V58.357H31.5V60h1V58.357H47V60h1V58.357h9.981V60H59V57.929A.474.474,0,0,0,58.491,57.5Z" style="fill:#635d50"/><path d="M3,60H3a2,2,0,0,0,2,2H59a2,2,0,0,0,2-2h2v3H1V60Z" style="fill:#85392b"/><path d="M62,33H58a1,1,0,0,1-1-1V31H55v4h7a1,1,0,0,0,1-1V32A1,1,0,0,1,62,33Z" style="fill:#80786a"/><path d="M55,35v4h1V38a2,2,0,0,1,2-2h1.5l.5-1Z" style="fill:#292721"/><path d="M2,33H6a1,1,0,0,0,1-1V31H9v4H2a1,1,0,0,1-1-1V32A1,1,0,0,0,2,33Z" style="fill:#80786a"/><path d="M9,35v4H8V38a2,2,0,0,0-2-2H4.5L4,35Z" style="fill:#292721"/><path d="M9,27h3a2,2,0,0,0,2,2H50a2,2,0,0,0,2-2h3v4H9Z" style="fill:#bd4c3d"/><path d="M38,55c-.677,0-1.346-.035-2.008-.095,0,.031.008.065.008.095a3.989,3.989,0,0,1-.54,2H44l.14-.04A3.129,3.129,0,0,1,44,56a2.692,2.692,0,0,1,.247-1Z" style="fill:#d6cec1"/><path d="M53,55H52a3.994,3.994,0,0,1-.52,1.97A4,4,0,0,0,55,53,2,2,0,0,1,53,55Z" style="fill:#d6cec1"/><path d="M16,31H9V53a4,4,0,0,0,3.52,3.97A3.994,3.994,0,0,1,12,55c0-2.21,1-6,2-6s6,4.79,6,7a3.129,3.129,0,0,1-.14.96L20,57h8.54A3.989,3.989,0,0,1,28,55a5.172,5.172,0,0,1,.6-2.107A22.091,22.091,0,0,1,18.236,42.669,6.011,6.011,0,0,1,23.619,34H55V31Z" style="fill:#d6cec1"/><path d="M51.48,56.97A4.007,4.007,0,0,1,48,59c-1.85,0-3.41-.56-3.86-2.04A3.129,3.129,0,0,1,44,56c0-2.21,5-7,6-7s2,3.79,2,6A3.994,3.994,0,0,1,51.48,56.97Z" style="fill:#d84f27"/><path d="M35.46,57A4,4,0,0,1,28,55c0-2.21,3-6,4-6s4,3.79,4,6A3.989,3.989,0,0,1,35.46,57Z" style="fill:#d84f27"/><path d="M12.52,56.97A3.994,3.994,0,0,1,12,55c0-2.21,1-6,2-6s6,4.79,6,7a3.129,3.129,0,0,1-.14.96C19.41,58.44,17.85,59,16,59A4.007,4.007,0,0,1,12.52,56.97Z" style="fill:#d84f27"/><rect height="2" rx="1" ry="1" style="fill:#ea735c" width="30" x="14" y="27"/><rect height="2" rx="1" ry="1" style="fill:#ea735c" width="5" x="45" y="27"/><path d="M53,40a2,2,0,0,0-2,2v8.154a12.058,12.058,0,0,1,.714,2.366A1.99,1.99,0,0,0,55,51V42A2,2,0,0,0,53,40Z" style="fill:#f7f3eb"/><rect height="5" rx="2" ry="2" style="fill:#f7f3eb" width="4" x="51" y="34"/><path d="M34.6,57.4a2.9,2.9,0,0,1-5.19,0A3.356,3.356,0,0,1,29,55.8c0-1.768,2.25-4.8,3-4.8s3,3.032,3,4.8A3.356,3.356,0,0,1,34.6,57.4Z" style="fill:#4c8db0"/><path d="M34.163,57.8a2.549,2.549,0,0,1-4.326,0,2.325,2.325,0,0,1-.337-1.2c0-1.326,1.875-3.6,2.5-3.6s2.5,2.274,2.5,3.6A2.325,2.325,0,0,1,34.163,57.8Z" style="fill:#65adaf"/><path d="M50.6,57.4a2.9,2.9,0,0,1-5.19,0A3.356,3.356,0,0,1,45,55.8c0-1.768,4.25-4.8,5-4.8s1,3.032,1,4.8A3.356,3.356,0,0,1,50.6,57.4Z" style="fill:#4c8db0"/><path d="M50.153,57.8a2.54,2.54,0,0,1-4.316,0,2.325,2.325,0,0,1-.337-1.2c0-1.326,3.867-3.6,4.491-3.6s.5,2.274.5,3.6A2.325,2.325,0,0,1,50.153,57.8Z" style="fill:#65adaf"/><path d="M13.405,57.4a2.9,2.9,0,0,0,5.19,0A3.356,3.356,0,0,0,19,55.8c0-1.768-4.25-4.8-5-4.8s-1,3.032-1,4.8A3.356,3.356,0,0,0,13.405,57.4Z" style="fill:#4c8db0"/><path d="M13.847,57.8a2.54,2.54,0,0,0,4.316,0,2.325,2.325,0,0,0,.337-1.2c0-1.326-3.867-3.6-4.491-3.6s-.5,2.274-.5,3.6A2.325,2.325,0,0,0,13.847,57.8Z" style="fill:#65adaf"/><path d="M33.3,58.2a1.453,1.453,0,0,1-2.6,0,1.683,1.683,0,0,1-.2-.8A3.476,3.476,0,0,1,32,55a3.476,3.476,0,0,1,1.5,2.4A1.683,1.683,0,0,1,33.3,58.2Z" style="fill:#d7dbbe"/><path d="M49.292,58.2a1.448,1.448,0,0,1-2.59,0,1.683,1.683,0,0,1-.2-.8c0-.884,2.32-2.4,2.7-2.4s.3,1.516.3,2.4A1.683,1.683,0,0,1,49.292,58.2Z" style="fill:#d7dbbe"/><path d="M14.708,58.2a1.448,1.448,0,0,0,2.59,0,1.683,1.683,0,0,0,.2-.8c0-.884-2.32-2.4-2.695-2.4s-.3,1.516-.3,2.4A1.683,1.683,0,0,0,14.708,58.2Z" style="fill:#d7dbbe"/></g></svg>