<?xml version="1.0"?><svg id="Layer_1" style="enable-background:new 0 0 4000 4000;" version="1.1" viewBox="0 0 4000 4000" xml:space="preserve" xmlns="http://www.w3.org/2000/svg" xmlns:xlink="http://www.w3.org/1999/xlink"><g><g><g><path d="M1740.274,636.095c0-64.443-52.432-116.876-116.876-116.876s-116.876,52.432-116.876,116.876     c0,64.46,52.432,116.893,116.876,116.893S1740.274,700.556,1740.274,636.095z" style="fill:#FFFFFF;"/></g><g><path d="M1049.782,962.006h1147.232c-43.908-76.643-267.157-152.215-573.616-152.215     S1093.69,885.363,1049.782,962.006z" style="fill:#FFFFFF;"/></g><g><path d="M1189.65,3479.71c0.056,0.001,0.111,0.005,0.167,0.006l0.002-0.281c-0.042,0-0.102,0-0.169,0     V3479.71z" style="fill:#FFFFFF;"/></g><g><path d="M2678.661,1128.078h-138.45c-85.757,0-148.364-18.837-192.704-41.463v102.728     c37.598,38.215,72.262,79.241,103.187,122.825c22.655-38.948,67.994-76.227,150.267-76.227     c162.71,0,300.152,121.806,319.736,283.321l45.097,371.956c3.422,28.241,27.461,49.552,55.905,49.552     c16.314,0,31.256-6.709,42.098-18.889c10.825-12.181,15.755-27.8,13.858-43.979l-51.518-440.635     C3005.503,1261.014,2856.134,1128.078,2678.661,1128.078z" style="fill:#FFFFFF;"/></g><g><path d="M817.982,1022.299c-0.932,2.236-1.88,6.59,2.16,10.639L960.1,1172.887h1333.043v-95.378     c0-33.713-27.487-61.157-61.284-61.157H826.944C821.286,1016.353,818.897,1020.08,817.982,1022.299z" style="fill:#FFFFFF;"/></g><g><path d="M1042.808,2627.648c40.568-28.678,85.788-44.797,133.476-44.797c0.076,0,0.161,0,0.246,0     c29.681,0,55.973-10.402,74.481-29.308c33.887-34.606,61.983-84.723,81.24-144.917     c40.542-201.176,161.575-336.189,301.837-336.189c114.873,0,215.564,93.125,270.729,231.915     c26.273,6.708,53.727,3.847,78.391-8.344c28.063-13.909,48.697-37.999,58.091-67.866l1.889-6.014     c9.783-31.104,15.942-64.986,18.821-103.594c17.949-240.257,152.74-421.424,313.544-421.424     c76.242,0,146.249,40.989,200.852,109.105c-13.173-148.724-61.061-292.083-140.729-418.786     c-36.24-57.674-79.08-111.406-127.108-160.194H960.503c-175.158,178.017-271.645,412.945-271.645,663.019     c0,82.333,10.596,163.853,31.51,242.307C771.493,2326.38,885.742,2501.317,1042.808,2627.648z" style="fill:#FFFFFF;"/></g><g><path d="M2618.054,2579.361c62.182-62.179,150.439-115.623,246.419-157.385     c-79.389-49.868-144.02-102.664-182.652-135.535c-13.519,84.375-41.753,161.718-83.368,224.224     c-5.235,7.861-13.866,12.113-22.65,12.113c-5.176,0-10.41-1.474-15.035-4.557c-12.494-8.318-15.882-25.191-7.564-37.677     c53.872-80.91,83.536-190.179,83.536-307.682c0-94.499-19.381-181.828-52.063-252.196c-1.309-1.966-2.344-4.103-3.11-6.379     c-47.836-98.987-122.367-162.831-206.015-162.831c-132.047,0-243.535,159.55-259.333,371.109     c-3.202,42.844-10.131,80.741-21.176,115.859l-1.889,6.014c-13.883,44.131-44.368,79.741-85.832,100.273     c-26.243,12.998-54.626,18.775-82.967,17.315c16.197,57.22,25.182,120.152,25.182,186.197c0,23.836-1.177,47.807-3.481,71.22     c-1.381,14.027-13.205,24.514-27.012,24.514c-0.89,0-1.787-0.034-2.694-0.119c-14.942-1.474-25.86-14.772-24.386-29.714     c2.135-21.668,3.21-43.843,3.21-65.9c0-76.275-12.681-147.814-34.726-209.601c-0.935-1.893-1.646-3.882-2.122-5.947     c-45.621-123.192-129.044-205.892-224.238-205.892c-112.378,0-214.812,121.314-249.1,294.993c-0.137,0.688-0.415,1.304-0.6,1.969     c-0.096,0.348-0.111,0.699-0.221,1.046c-22.15,69.374-53.881,125.482-94.319,166.784     c-28.825,29.427-68.899,45.622-112.878,45.622c-0.119,0-0.237,0-0.347,0c-41.54,0-80.802,15.723-115.695,43.557     c-1.291,1.293-2.656,2.435-4.137,3.419c-84.116,70.137-141.694,211.595-141.694,374.43     c0,232.363,117.164,421.407,261.188,421.407c3.663,0,7.311-0.137,10.941-0.386c0.409-0.037,0.792-0.155,1.206-0.173     c0.805-0.102,1.609-0.169,2.423-0.186c135.494-4.879,224.908-83.18,303.794-152.282     c68.365-59.869,132.927-116.418,216.099-116.418c30.401,0,58.523,1.22,85.713,2.406c119.502,5.201,205.816,8.962,315.449-102.459     c55.151-56.142,147.107-64.833,265.897-25.022c21.03,7.013,42.809,12.656,64.974,17.142     C2415.703,2910.51,2478.825,2718.59,2618.054,2579.361z" style="fill:#FFFFFF;"/></g><g><path d="M2535.858,3140.309c177.595,27.182,355.498-30.475,484.096-159.057     c136.324-136.341,230.872-417.206,237.58-601.066c-184.132,7.013-465.081,101.646-601.041,237.597     c-128.646,128.654-186.277,306.631-159.113,484.144l543.207-543.2c10.605-10.639,27.817-10.639,38.422,0     c10.622,10.605,10.622,27.817,0,38.422L2535.858,3140.309z" style="fill:#FFFFFF;"/></g><g><path d="M3058.376,3019.674c-118.096,118.112-274.19,181.675-436.162,181.675     c-27.181,0-54.526-1.979-81.885-5.601c106.702,137.761,269.1,218.464,446.015,218.464c192.721,0,458.203-131.784,593.019-257.062     c-95.344-88.095-268.351-190.802-442.633-235.581C3112.534,2958.35,3086.366,2991.687,3058.376,3019.674z" style="fill:#FFFFFF;"/></g></g><g><path d="M1623.399,519.22c64.443,0,116.876,52.432,116.876,116.876c0,64.46-52.432,116.893-116.876,116.893    s-116.876-52.432-116.876-116.893C1506.523,571.652,1558.955,519.22,1623.399,519.22z" style="fill:#FFDA40;"/></g><g><path d="M1712.193,796.999c270.276,0,467.166,87.697,505.889,176.638H1206.304    C1245.027,884.696,1441.918,796.999,1712.193,796.999z" style="fill:#FFDA40;"/></g><g><path d="M1189.818,3479.717c-0.056-0.001-0.111-0.005-0.167-0.006v-0.275c0.068,0,0.127,0,0.169,0    L1189.818,3479.717z" style="fill:#333333;"/></g><g><path d="M2678.661,1128.078c177.474,0,326.842,132.936,347.476,309.19l51.518,440.635    c1.897,16.179-3.032,31.798-13.858,43.979c-10.842,12.181-25.784,18.889-42.098,18.889c-28.444,0-52.483-21.312-55.905-49.552    l-45.097-371.956c-19.584-161.515-157.026-283.321-319.736-283.321c-82.274,0-127.612,37.279-150.267,76.227    c-30.925-43.584-65.588-84.611-103.187-122.825v-102.728c44.34,22.626,106.946,41.463,192.704,41.463H2678.661z" style="fill:#FFFFFF;"/></g><g><path d="M817.982,1022.299c0.915-2.219,3.303-5.946,8.962-5.946h1404.915    c33.797,0,61.284,27.444,61.284,61.157v95.378H960.1l-139.958-139.949C816.102,1028.889,817.05,1024.535,817.982,1022.299z" style="fill:#FFFFFF;"/></g><g><path d="M880.362,2119.617c-19.689-78.454-29.666-159.974-29.666-242.307    c0-250.074,90.839-485.002,255.744-663.019l1237.422,12.942c45.217,48.788,85.549,102.519,119.668,160.194    c75.005,126.704,123.415,319.669,135.816,468.393c-51.406-68.116-124.958-123.257-196.736-123.257    c-151.391,0-300.725,136.624-317.623,376.881c-2.711,38.608-8.509,72.49-17.72,103.594c0,0-3.3,69.059-29.72,82.968    c-23.22,12.191-126.932,38.217-151.667,31.508c-51.935-138.79-146.733-231.915-254.881-231.915    c-132.052,0-228.421,106.589-266.589,307.765c-18.13,60.195-86.493,179.446-86.552,179.487    c-55.667,38.583-76.031,11.419-125.808,18.53C1004.178,2475.05,928.494,2313.438,880.362,2119.617z" style="fill:#FFA959;"/></g><g><path d="M2417.013,3119.783c-111.836-39.811-206.375-65.414-258.298-9.272    c-103.216,111.421-184.478,107.66-296.984,102.459c-25.599-1.186-52.074-2.406-80.695-2.406    c-78.303,0-139.086,56.549-203.449,116.418c-74.268,69.102-158.448,147.403-286.011,152.282c-0.766,0.017-1.523,0.085-2.281,0.186    c-0.39,0.018-0.751,0.135-1.135,0.173c-3.417,0.25-6.851,0.386-10.3,0.386c-135.593,0-245.898-189.044-245.898-421.407    c0-162.835,50.361-266.021,129.553-336.158c59.572-50.77,128.922-21.527,185.718-70.75    c88.437-76.645,82.323-142.875,103.176-212.248c0.104-0.347,42.575-319.691,191.613-330.164    c214.734-15.091,243.651,232.556,286.601,355.748c0.448,2.066,223.365-51.859,253.205-151.699    c10.488-35.092,16.922-73.016,19.937-115.859c14.873-211.559,89.238-469.663,213.554-469.663    c78.752,0,140.528,87.489,185.563,186.477c0.721,2.276,1.696,4.413,2.928,6.379c30.769,70.368,49.015,157.697,49.015,252.196    c0,117.503,12.891,55.098,42.442,113.579c36.372,32.871,97.219,85.667,171.961,135.535    c-90.362,41.762-173.453,95.206-231.995,157.385c-131.08,139.229-182.541,365.442-157.049,557.564    C2457.316,3132.439,2436.812,3126.797,2417.013,3119.783z" style="fill:#FFDA40;"/></g><g><path d="M3019.954,2981.252c-128.598,128.582-306.5,186.239-484.096,159.057l543.152-543.159    c10.622-10.605,10.622-27.817,0-38.422c-10.605-10.639-27.817-10.639-38.422,0l-543.207,543.2    c-27.164-177.513,30.468-355.49,159.113-484.144c135.96-135.951,416.909-230.584,601.041-237.597    C3250.825,2564.046,3156.278,2844.911,3019.954,2981.252z" style="fill:#FFFFFF;"/></g><g><path d="M3068.096,2981.252c-118.607,128.582-397.335,198.844-561.133,171.662l89.963-115.97    c15.659-187.91,108.407-325.461,227.058-454.115c125.397-135.951,293.409-195.629,463.235-202.642    C3281.031,2564.046,3193.829,2844.911,3068.096,2981.252z" style="fill:#BFE653;"/></g><g><path d="M2986.343,3414.212c-176.915,0-339.313-80.704-446.015-218.464    c27.36,3.622,54.705,5.601,81.885,5.601c161.973,0,318.067-63.563,436.162-181.675c27.991-27.988,54.158-61.324,78.353-98.105    c174.281,44.779,347.289,147.486,442.633,235.581C3444.545,3282.428,3179.063,3414.212,2986.343,3414.212z" style="fill:#BFE653;"/></g><g><g><g><path d="M1041.789,2688.867c-5.785,0-11.621-1.83-16.56-5.641      c-174.636-134.41-301.558-325.03-357.395-536.741c-22.117-82.943-33.34-169.189-33.34-256.232      c0-268.277,104.839-520.224,295.205-709.42c10.639-10.605,27.851-10.52,38.439,0.119c10.58,10.656,10.529,27.851-0.119,38.439      c-180.023,178.914-279.162,417.155-279.162,670.863c0,82.333,10.596,163.853,31.51,242.307      c52.814,200.226,172.849,380.461,338.015,507.603c11.893,9.148,14.112,26.208,4.964,38.117      C1057.994,2685.225,1049.93,2688.867,1041.789,2688.867z" style="fill:#4C180D;"/></g><g><path d="M2607.271,1932.826c-0.339,0-0.669,0-1.017-0.017c-14.993-0.542-26.708-13.146-26.157-28.156      c0.169-4.743,0.161-9.656,0.161-14.4c0-178.507-49.993-352.389-144.583-502.825c-38.151-60.717-83.417-117.249-134.571-168.038      c-10.647-10.571-10.707-27.783-0.135-38.422c10.571-10.639,27.792-10.707,38.439-0.135      c54.075,53.686,101.951,113.471,142.287,177.677c100.036,159.093,152.926,342.97,152.926,531.743      c0,5.387-0.009,10.978-0.212,16.399C2633.877,1921.306,2621.824,1932.826,2607.271,1932.826z" style="fill:#4C180D;"/></g><g><path d="M2320.325,1227.234H948.843c-7.208,0-14.12-2.863-19.22-7.962l-147.92-147.912      c-18.423-18.415-23.895-45.842-13.942-69.865c9.944-23.988,33.17-39.489,59.183-39.489h1404.915      c63.766,0,115.647,51.805,115.647,115.504v122.551C2347.507,1215.07,2335.335,1227.234,2320.325,1227.234z M960.1,1172.887      h1333.043v-95.378c0-33.713-27.487-61.157-61.284-61.157H826.944c-5.658,0-8.047,3.727-8.962,5.946      c-0.932,2.236-1.88,6.59,2.16,10.639L960.1,1172.887z" style="fill:#4C180D;"/></g><g><path d="M2232.24,1016.353c-15.01,0-27.182-12.164-27.182-27.173c0-84.84-238.876-179.388-581.66-179.388      s-581.66,94.548-581.66,179.388c0,15.01-12.172,27.173-27.182,27.173c-15.01,0-27.182-12.164-27.182-27.173      c0-151.825,327.698-233.735,636.024-233.735s636.024,81.91,636.024,233.735      C2259.422,1004.189,2247.25,1016.353,2232.24,1016.353z" style="fill:#4C180D;"/></g><g><path d="M1623.399,807.335c-94.421,0-171.239-76.81-171.239-171.239      c0-94.412,76.819-171.222,171.239-171.222c94.421,0,171.239,76.81,171.239,171.222      C1794.638,730.524,1717.819,807.335,1623.399,807.335z M1623.399,519.22c-64.443,0-116.876,52.432-116.876,116.876      c0,64.46,52.432,116.893,116.876,116.893s116.876-52.432,116.876-116.893C1740.274,571.652,1687.842,519.22,1623.399,519.22z" style="fill:#4C180D;"/></g><g><path d="M3021.698,1995.118c-55.905,0-103.137-41.861-109.879-97.36l-45.097-371.956      c-16.263-134.257-130.513-235.513-265.762-235.513c-104.932,0-114.394,76.082-115.131,84.756      c-1.254,14.874-14.239,26.089-29.147,24.937c-14.874-1.135-26.072-13.925-25.064-28.817      c3.151-46.774,42.598-135.223,169.342-135.223c162.71,0,300.152,121.806,319.736,283.321l45.097,371.956      c3.422,28.241,27.461,49.552,55.905,49.552c16.314,0,31.256-6.709,42.098-18.889c10.825-12.181,15.755-27.8,13.858-43.979      l-51.518-440.635c-20.634-176.254-170.003-309.19-347.476-309.19h-138.45c-150.834,0-230.228-58.243-264.135-92.955      c-10.486-10.741-10.275-27.953,0.458-38.439c10.724-10.47,27.936-10.3,38.439,0.457c27.927,28.596,94.319,76.59,225.239,76.59      h138.45c205.037,0,377.631,153.57,401.45,357.234l51.517,440.618c3.676,31.341-6.251,62.851-27.224,86.433      C3083.415,1981.599,3053.276,1995.118,3021.698,1995.118z" style="fill:#4C180D;"/></g></g><g><g><path d="M1464.552,3073.801c-14.798,0-26.919-11.859-27.165-26.716      c-1.601-95.039-22.616-184.131-60.767-257.621c-6.912-13.316-1.719-29.731,11.605-36.644      c13.299-6.878,29.731-1.711,36.643,11.605c42.005,80.91,65.121,178.338,66.866,281.745c0.254,15.01-11.706,27.377-26.716,27.631      C1464.865,3073.801,1464.704,3073.801,1464.552,3073.801z" style="fill:#4C180D;"/></g><g><path d="M1919.044,2643.957c-0.89,0-1.787-0.034-2.694-0.119c-14.942-1.474-25.86-14.772-24.386-29.714      c2.135-21.668,3.21-43.843,3.21-65.9c0-232.379-117.121-421.441-261.086-421.441c-112.378,0-214.812,121.314-249.1,294.993      c-2.914,14.722-17.254,24.31-31.925,21.396c-14.73-2.914-24.31-17.195-21.405-31.934      c40.006-202.648,161.549-338.802,302.43-338.802c173.942,0,315.449,213.439,315.449,475.787c0,23.836-1.177,47.807-3.481,71.22      C1944.676,2633.47,1932.851,2643.957,1919.044,2643.957z" style="fill:#4C180D;"/></g><g><path d="M1176.284,3534.358c-173.992,0-315.551-213.422-315.551-475.754s141.559-475.753,315.551-475.753      c0.076,0,0.161,0,0.246,0c29.681,0,55.973-10.402,74.481-29.308c33.958-34.678,62.106-84.925,81.368-145.286      c4.583-14.298,19.863-22.176,34.161-17.618s22.184,19.855,17.627,34.153c-22.15,69.374-53.881,125.482-94.319,166.784      c-28.825,29.427-68.899,45.622-112.878,45.622c-0.119,0-0.237,0-0.347,0c-144.363,0-261.526,189.044-261.526,421.407      c0,232.363,117.164,421.407,261.188,421.407c3.693,0,7.369-0.135,11.029-0.39c15.086-0.915,27.936,10.317,28.944,25.293      c1.016,14.976-10.309,27.936-25.284,28.952C1186.11,3534.188,1181.214,3534.358,1176.284,3534.358z" style="fill:#4C180D;"/></g><g><path d="M2575.803,2522.778c-5.176,0-10.41-1.474-15.035-4.557c-12.494-8.318-15.882-25.191-7.564-37.677      c53.872-80.91,83.536-190.179,83.536-307.682c0-232.362-117.164-421.407-261.188-421.407      c-132.047,0-243.535,159.55-259.333,371.109c-3.202,42.844-10.131,80.741-21.176,115.859l-1.889,6.014      c-13.883,44.131-44.368,79.741-85.832,100.273c-41.454,20.532-88.254,23.175-131.784,7.454      c-14.12-5.099-21.43-20.685-16.331-34.797s20.71-21.413,34.797-16.331c29.443,10.656,61.131,8.843,89.203-5.031      c28.063-13.909,48.697-37.999,58.091-67.866l1.889-6.014c9.783-31.104,15.942-64.986,18.821-103.594      c17.949-240.257,152.74-421.424,313.544-421.424c173.992,0,315.542,213.422,315.542,475.754      c0,128.108-32.899,248.067-92.642,337.803C2593.219,2518.526,2584.587,2522.778,2575.803,2522.778z" style="fill:#4C180D;"/></g><g><path d="M1189.65,3533.782c-15.01,0-27.182-12.164-27.182-27.173c0-14.603,11.52-26.513,25.962-27.156      c0.805-0.102,1.609-0.169,2.423-0.186c135.494-4.879,224.908-83.18,303.794-152.282      c68.365-59.869,132.927-116.418,216.099-116.418c30.401,0,58.523,1.22,85.713,2.406      c119.502,5.201,205.816,8.962,315.449-102.459c55.151-56.142,147.107-64.833,265.897-25.022      c32.561,10.859,66.798,18.771,101.73,23.48c14.874,2.016,25.301,15.704,23.294,30.578c-2.008,14.874-15.67,25.327-30.579,23.294      c-38.287-5.184-75.862-13.858-111.675-25.801c-68.171-22.836-159.889-39.354-209.907,11.571      c-126.608,128.667-233.218,124.093-356.574,118.655c-26.614-1.152-54.126-2.355-83.35-2.355      c-62.732,0-117.206,47.723-180.286,102.967c-85.382,74.777-182.132,159.516-335.948,165.632      C1192.361,3533.782,1190.658,3533.782,1189.65,3533.782z M1189.65,3479.435v27.173l0.169-27.173      C1189.777,3479.435,1189.718,3479.435,1189.65,3479.435z M1185.127,3480.079c-0.017,0-0.025,0.017-0.034,0.017      C1185.102,3480.096,1185.11,3480.079,1185.127,3480.079z" style="fill:#4C180D;"/></g><g><path d="M2925.033,2453.744c-4.54,0-9.131-1.135-13.366-3.541      c-116.351-65.816-208.899-145.608-248.422-179.693c-7.344-6.336-12.536-10.893-15.399-13.078      c-10.605-5.997-16.187-18.652-12.773-30.934c4.015-14.468,19.05-22.887,33.458-18.906c7.353,2.05,10.402,4.676,30.206,21.752      c38.304,33.035,128.006,110.387,239.698,173.56c13.062,7.386,17.669,23.971,10.266,37.033      C2943.702,2448.763,2934.503,2453.744,2925.033,2453.744z M2653.944,2259.956c0.009,0,0.017,0.017,0.034,0.017      C2653.961,2259.973,2653.952,2259.956,2653.944,2259.956z" style="fill:#4C180D;"/></g><g><path d="M2263.793,2077.62c-7.522,0-15.001-3.1-20.38-9.182c-9.936-11.249-8.869-28.427,2.38-38.354      c47.392-41.878,162.549-95.513,259.214,1.152c10.614,10.605,10.614,27.817,0,38.422c-10.622,10.639-27.817,10.639-38.439,0      c-85.095-85.095-180.76-2.406-184.792,1.152C2276.609,2075.384,2270.188,2077.62,2263.793,2077.62z" style="fill:#4C180D;"/></g><g><path d="M1519.39,2466.839c-7.522,0-15.001-3.1-20.38-9.182c-9.936-11.249-8.869-28.427,2.38-38.354      c47.367-41.895,162.557-95.513,259.214,1.152c10.614,10.605,10.614,27.817,0,38.422c-10.622,10.639-27.817,10.639-38.439,0      c-85.103-85.094-180.743-2.406-184.792,1.152C1532.205,2464.603,1525.785,2466.839,1519.39,2466.839z" style="fill:#4C180D;"/></g><g><path d="M2622.213,3201.349c-49.12,0-98.774-5.845-148.09-17.788      c-9.894-2.389-17.627-10.114-20.016-20.007c-51.306-211.847,9.987-430.233,163.946-584.193      c154.68-154.671,469.85-256.605,667.297-253.911c14.756,0.169,26.682,12.062,26.868,26.818      c2.626,197.091-98.732,512.312-253.844,667.407C2940.28,3137.786,2784.186,3201.349,2622.213,3201.349z M2503.228,3134.432      c188.24,39.947,380.249-16.721,516.725-153.18c136.324-136.341,230.872-417.206,237.58-601.066      c-184.132,7.013-465.081,101.646-601.041,237.597C2519.991,2754.293,2463.349,2946.336,2503.228,3134.432z" style="fill:#4C180D;"/></g><g><path d="M2480.553,3184.357c-6.954,0-13.908-2.643-19.219-7.962c-10.614-10.605-10.614-27.817,0-38.422      l579.254-579.246c10.605-10.639,27.817-10.639,38.422,0c10.622,10.605,10.622,27.817,0,38.422l-579.237,579.246      C2494.461,3181.715,2487.507,3184.357,2480.553,3184.357z" style="fill:#4C180D;"/></g><g><path d="M2986.343,3468.559c-217.607,0-415.393-111.133-529.067-297.297      c-7.827-12.807-3.786-29.528,9.03-37.355c12.816-7.844,29.545-3.778,37.355,9.03      c103.729,169.867,284.168,271.276,482.682,271.276c192.721,0,458.203-131.784,593.019-257.062      c-98.715-91.21-280.678-198.277-461.116-240.291c-14.62-3.388-23.7-18.008-20.295-32.628      c3.388-14.586,17.924-23.751,32.628-20.295c179.371,41.743,392.675,157.06,507.179,274.156      c10.317,10.554,10.334,27.41,0.034,37.965C3500.213,3317.327,3205.627,3468.559,2986.343,3468.559z" style="fill:#4C180D;"/></g></g></g></g></svg>