<svg xmlns="http://www.w3.org/2000/svg" id="Layer_1" style="enable-background:new 0 0 4096 4096;" version="1.1" viewBox="0 0 4096 4096" xml:space="preserve"><g><path d="M1076.4,1630.1c0,0-127.8,66.8-264.6-43.4c-56.7-50.1-166.9-293.7-90.1-470.7c30-60.1,203.6-617.5,747.7-617.5   c66.8,6.7,330.5,33.4,637.6,263.7s304.2,337.1,617.7,270.4c190.1-36.7,604-123.5,831,230.3c163.6,183.6,253.7,363.8,300.4,440.6   s190.3,287.1,193.6,490.7c6.7,203.6,53.4,357.2-260.4,520.7c-96.8,36.7-267,83.6-373.9,50.1c-106.8-10.1-233.7-39.7-537.4-210.1   c-303.8-170.5-356.7-238.3-528.8-221.1c-142.1-149.7-526-406.7-1003.1-478.8C1295.8,1830.4,1120.7,1793.7,1076.4,1630.1z" fill="#F4C47A" stroke="#6A3E0F" stroke-width="80" stroke-miterlimit="10" /><path d="M1101,1569.5c0,0,425,203.5,832.1,260.9s491.3,229.3,658.9,351.1s1037.7,704.8,1416.2,98.6   c0,0,95.7,302.8-340.3,430.1c-114.9,27.3-172.6,37.9-241.6,14.5c-69-8.5-186,12.2-707.1-307.6c-78.7-45.5-182.6-139.3-353.3-124.9   c-78.2-68.6-225.3-203-491.2-324.5c-170.2-68.3-306.5-119-515.4-154.1C1318,1797.5,1124.6,1757.7,1101,1569.5z" fill="#C96811" /><path d="M791,1476.5c0,0,281.8-379.2,842.2-162.6s611.1,334.4,1059.6,255.6s1137.2,221.3,1276,435.7   c17.6,80.4,53.8,159.6,29.7,330.8c-45.8,133.9-239.9,355.7-711.4,247.3s-736.4-288.9-785.3-330.4c-48.9-41.5-270.1-171-435-285.3   c-164.9-114.4-799.4-255.1-844.9-288.8c-45.4-33.7-120.8-109.4-120.8-109.4S886.6,1701.9,791,1476.5z" fill="#F2B55A" /><g><path d="M789.3,1560.7c3.1-8.2,6.8-16.2,10.7-24.1c3.9-7.9,8.1-15.6,12.4-23.3c4.4-7.6,9-15.1,13.8-22.5    c4.8-7.4,9.8-14.7,15.1-21.8c10.4-14.3,21.7-27.9,33.6-41c12-13,24.7-25.4,38.1-37.1c53.6-46.7,118.7-80.8,188.3-98.3    c34.7-9,70.5-13.9,106.3-15.7c2.2-0.2,4.5-0.2,6.7-0.3l6.7-0.2l6.7-0.2c2.2-0.1,4.5,0,6.7,0l13.5,0.1l13.4,0.5    c2.2,0.1,4.5,0.1,6.7,0.3l6.7,0.4c4.5,0.3,8.9,0.5,13.4,0.9l13.4,1.3c2.2,0.2,4.5,0.4,6.7,0.6l6.7,0.8    c35.6,4.3,70.8,10.9,105.4,19.8l13,3.4l6.5,1.7c2.2,0.6,4.3,1.2,6.4,1.8l25.5,7.3l12.7,3.7c4.2,1.2,8.4,2.6,12.7,3.9l25.3,7.8    c8.5,2.5,16.8,5.4,25.2,8.1l25.2,8.3l25,8.7c8.3,2.9,16.7,5.7,25,8.8c16.6,6.1,33.2,12,49.7,18.4c8.2,3.2,16.5,6.2,24.7,9.4    l24.6,9.7c65.6,25.9,130.2,53.8,194.8,81c64.5,27.3,129,53.9,194.1,78.5c65.1,24.5,130.9,46.9,197.4,66.8l24.9,7.5    c4.1,1.3,8.3,2.4,12.5,3.6l12.5,3.5l25.1,7c4.2,1.2,8.4,2.2,12.6,3.4l12.6,3.3l25.2,6.6l6.3,1.6l6.3,1.5l12.7,3.1l25.3,6.2    c4.2,1,8.4,2.1,12.7,3.1l12.7,2.9l25.4,5.8c8.5,1.9,16.9,3.9,25.5,5.6l51.1,10.7c34.2,6.6,68.3,13.4,102.6,19.2l25.7,4.5l6.4,1.1    l6.4,1l12.9,2.1l51.6,8.3l51.7,7.6c8.6,1.2,17.2,2.6,25.9,3.7l25.9,3.4l51.9,6.8l52.1,6.5l26.1,3.2l26.1,3.2l52.2,6.3    c69.5,8.3,139.1,16.3,208.7,23.9c69.6,7.6,139.2,14.7,208.8,21.2c34.8,3.3,69.7,6.4,104.7,9.6c35,3.2,70.2,6.3,106.4,11.2    c18.2,2.5,36.8,5.7,55.3,10c18.5,4.3,36.8,9.7,54.3,15.6c17.5,5.9,34.4,12.3,51,18.7c16.7,6.4,33,13,49.4,19.6l-48.3,58.9    c-20.5-31.1-42.2-61.3-65.2-90.5c-23-29.2-47.3-57.3-72.8-84.3c-51-53.9-107.1-103-167.2-146.6c-60.1-43.6-124.4-81.5-191.5-113.9    c-67.1-32.4-137.1-59.2-208.7-81.1c-4.5-1.4-9-2.7-13.5-4l-13.5-3.9l-13.5-3.8l-6.8-1.9l-6.8-1.8l-13.6-3.6    c-4.5-1.2-9.1-2.3-13.6-3.5c-4.6-1.1-9.1-2.3-13.7-3.4l-13.7-3.2c-36.6-8.6-73.5-15.9-110.6-22.4c-4.6-0.8-9.3-1.6-13.9-2.3    c-4.6-0.8-9.3-1.6-13.9-2.3c-9.3-1.4-18.6-2.9-28-4.3c-18.7-2.8-37.4-5.2-56.1-7.5c-18.8-2.3-37.6-4.3-56.4-6.2    c-18.8-1.8-37.7-3.5-56.6-5.1c-37.8-3-75.7-5.4-113.8-7.3l-28.6-1.4l-7.2-0.4l-3.6-0.2l-3.7-0.2l-14.8-0.9    c-4.9-0.3-9.9-0.6-14.8-1l-14.8-1.3l-14.8-1.3l-14.7-1.7c-39.3-4.5-78.4-11-116.9-19.6c-38.6-8.6-76.6-19.2-114-31.4    c-37.4-12.3-74-26.3-110-41.2c-36-14.9-71.4-30.9-106.4-47.2c-35-16.4-69.6-33.1-104.2-49.9c-34.5-16.8-69-33.5-103.4-49.9    c-34.5-16.5-69.1-32.6-103.8-48.2l-6.5-3l-3.3-1.5l-3.3-1.5l-13.4-5.9l-13.4-5.9c-2.3-1-4.4-2.1-6.5-3.1l-6.5-3.2l-25.9-12.9    l-25.7-12.1c-34.3-15.8-69-30.8-104.4-43.7c-35.4-13.1-71.2-24.8-107.6-34.5c-36.4-9.7-73.2-17.3-110.4-22.5    c-4.6-0.8-9.3-1.2-14-1.8l-14-1.7l-3.5-0.4l-3.5-0.3l-7-0.6l-14-1.2c-2.3-0.2-4.7-0.3-7-0.4l-7-0.3l-14-0.7l-14.1-0.2l-7-0.1    c-2.3,0-4.7-0.1-7,0c-37.5,0.3-74.9,3.8-111.8,10.5c-2.3,0.4-4.6,0.9-6.9,1.4l-6.9,1.4c-4.6,1-9.2,1.8-13.7,3l-13.6,3.4    c-1.1,0.3-2.3,0.5-3.4,0.9l-3.4,1l-6.8,1.9c-9.1,2.5-17.9,5.5-26.9,8.4c-2.2,0.7-4.4,1.6-6.6,2.4l-6.6,2.4l-6.6,2.4    c-2.2,0.8-4.4,1.8-6.5,2.6c-69.8,27.8-133.9,70.4-188.3,123.5c-13.6,13.2-26.6,27.1-39,41.6c-3.1,3.6-6.1,7.3-9.2,10.9l-8.9,11.2    c-2.9,3.8-5.8,7.6-8.7,11.4c-2.8,3.9-5.7,7.6-8.5,11.5c-11.1,15.5-21.6,31.5-31.3,48c-9.7,16.5-18.8,33.4-26.5,51    c3.2-9,7-17.9,10.9-26.7c3.9-8.8,8.2-17.4,12.6-26c8.8-17.1,18.5-33.8,28.8-50.1c10.3-16.3,21.5-32.1,33.3-47.4    c11.8-15.3,24.3-30.1,37.5-44.3c13.2-14.2,27.1-27.8,41.6-40.7c7.2-6.5,14.7-12.7,22.2-18.9l11.5-9c1.9-1.5,3.9-2.9,5.8-4.4    l5.9-4.3c31.5-22.9,65.5-42.7,101.2-58.8c2.2-1,4.4-2.1,6.7-3l6.8-2.8l6.8-2.8c2.3-0.9,4.5-1.9,6.8-2.8c9.2-3.4,18.3-7,27.7-10    l7-2.3l3.5-1.2c1.2-0.4,2.3-0.7,3.5-1.1l14.1-4.1c4.7-1.5,9.5-2.5,14.2-3.8l7.1-1.8c2.4-0.6,4.7-1.2,7.2-1.7    c38.3-8.6,77.4-13.7,116.6-15.6c2.5-0.2,4.9-0.2,7.4-0.3l7.4-0.2l14.7-0.3l14.7,0.2l7.4,0.1c2.5,0,4.9,0,7.4,0.2l14.7,0.7l7.3,0.3    l3.7,0.2l3.7,0.3l14.6,1.2c4.9,0.4,9.8,0.7,14.6,1.4l14.6,1.7l7.3,0.9c1.2,0.2,2.4,0.3,3.6,0.4l3.6,0.5l14.5,2.2l7.3,1.1    c2.4,0.4,4.8,0.7,7.2,1.2l28.9,5.3l28.7,6.2c76.2,17.8,150.2,43.2,221.8,73.9l26.8,11.6l26,12l6.5,3c2.2,1,4.3,2,6.5,2.9l13.1,5.4    l13.1,5.4l3.3,1.3l3.3,1.4l6.7,2.8c35.6,14.9,71,30.3,106.1,45.9c70.4,31.3,139.9,63.9,209.6,94.6    c69.7,30.6,139.7,59.3,211.3,81.3c35.7,11,71.9,20.4,108.3,27.8c36.5,7.4,73.2,12.9,110.2,16.5l13.9,1.3l13.9,1l13.9,1    c4.6,0.3,9.3,0.4,13.9,0.7l13.9,0.6l3.5,0.2l3.6,0.1l7.2,0.2l28.9,1c38.5,1.4,77.2,3.3,115.9,5.8c77.4,5.1,155,13.3,232.1,25.7    c77.1,12.5,153.7,29.3,229,51.6c37.6,11.2,74.9,23.7,111.8,37.6c4.6,1.7,9.2,3.6,13.8,5.3l13.7,5.4l13.7,5.6    c4.5,1.9,9.1,3.7,13.6,5.7l13.6,5.9l6.8,3l6.7,3.1l13.5,6.1c4.5,2,8.9,4.2,13.4,6.3c35.6,17,70.6,35.4,104.7,55.4    c34.1,20,67.3,41.7,99.4,64.8c64.3,46.2,124.2,98.6,178.7,156c54.6,57.4,103.5,120,146.8,186l70,106.6l-118.3-47.7    c-16.2-6.5-32.4-13.1-48.4-19.3c-16.1-6.3-32-12.3-47.7-17.7c-15.7-5.4-31.1-10-46.8-13.7c-15.6-3.7-31.6-6.5-48.2-8.9    c-33.2-4.6-68-7.9-102.8-11.3c-34.9-3.4-69.9-6.7-104.9-10.2c-70-7-140-14.7-209.8-22.9c-69.9-8.2-139.6-16.9-209.3-26l-52.3-6.9    l-26.1-3.5l-26.1-3.6l-52.2-7.1l-52.4-7.6l-26.2-3.8c-8.7-1.3-17.4-2.8-26.2-4.1l-52.3-8.4l-52.2-9.2l-13-2.3l-6.5-1.2l-6.5-1.2    l-26-5c-34.8-6.5-69.4-13.9-104-21.2l-51.8-11.8c-8.6-1.9-17.2-4.1-25.8-6.2l-25.8-6.3c-68.7-17.2-136.9-36.6-204.4-58.5    c-67.4-21.9-134.1-46.2-199.7-72.7c-65.6-26.5-130.1-55.2-194.1-84.3l-95.7-43.7c-15.9-7.3-31.9-14.4-47.8-21.6l-24-10.6l-12-5.3    l-12-5.2c-64.1-27.7-128.6-53.8-194.4-76.8l-24.7-8.6c-4.1-1.4-8.2-2.9-12.4-4.2l-12.4-4.1l-24.8-8.1c-2.1-0.7-4.1-1.4-6.2-2    l-6.2-1.9l-12.4-3.8c-2.1-0.6-4.1-1.2-6.2-1.8l-6.2-1.7l-12.4-3.4l-12.5-3.1c-4.2-1-8.3-2.1-12.5-3c-8.4-1.8-16.8-3.8-25.2-5.3    l-12.7-2.4l-12.7-2.1l-6.4-1c-2.1-0.3-4.3-0.6-6.4-0.9l-12.8-1.7c-4.3-0.5-8.5-0.9-12.8-1.4l-6.4-0.7c-2.1-0.2-4.3-0.3-6.4-0.5    l-12.8-1l-12.9-0.6c-2.1-0.1-4.3-0.2-6.4-0.3l-6.4-0.1l-6.4-0.1c-2.1,0-4.3-0.1-6.4,0l-12.9,0.2c-2.1,0-4.3,0.2-6.4,0.2l-6.4,0.3    l-6.4,0.3l-6.4,0.5l-6.4,0.5l-3.2,0.3l-3.2,0.4l-12.8,1.4l-12.7,1.8l-3.2,0.5l-3.2,0.6l-6.3,1.1c-2.1,0.4-4.2,0.7-6.3,1.1    l-6.3,1.3c-16.8,3.5-33.4,7.9-49.7,13.3c-16.3,5.4-32.3,11.7-48,19c-31.2,14.5-60.9,32.7-88.1,54.1    c-13.6,10.7-26.7,22.2-39.1,34.4c-6.2,6.1-12.3,12.3-18.1,18.8c-5.9,6.4-11.6,13-17.1,19.7c-11.1,13.5-21.4,27.6-31,42.2    c-4.8,7.3-9.4,14.8-13.7,22.4C797.1,1544.9,793,1552.7,789.3,1560.7z" fill="#6A3E0F" /></g><g><path d="M3998.3,1967.6c-5.7,9.7-11.8,19.1-18.1,28.5c-6.3,9.3-12.8,18.5-19.4,27.6c-13.3,18.2-27.2,36-41.7,53.4    c-28.9,34.8-59.8,67.9-92.6,99.4c-32.8,31.5-67.4,61.2-103.9,88.8c-36.5,27.6-74.8,53-114.9,75.8c-40,22.8-81.9,42.8-125.2,59.7    c-43.4,16.7-88.2,30.2-134.1,39.5c-45.8,9.5-92.7,14.9-139.7,16c-23.5,0.6-47,0.1-70.5-1.5c-23.5-1.5-46.8-4.2-70-7.8    c-23.2-3.6-46.2-8.3-69-13.9l-8.5-2.1l-2.1-0.5l-2.3-0.6l-4.5-1.2c-3-0.8-6-1.6-9-2.5l-8.6-2.9c-5.9-2-11.1-3.8-16.5-5.7    l-16.1-5.7c-21.4-7.7-42.6-15.7-63.7-23.9c-21-8.3-42-16.7-62.8-25.3c-20.8-8.6-41.5-17.3-62.1-26.1l-30.9-13.2l-30.8-13.3    l-61.4-26.4c-20.4-8.8-40.9-17.4-61.4-26c-81.9-34.2-164.3-66.3-248.8-92.4c-42.3-13-85.1-24.5-128.4-34.1    c-43.4-9.7-87.4-17.2-131.9-23.1c44.8-3.2,90.1-2.5,135.2,0.8c45.1,3.4,90.1,9.5,134.7,17.9c44.6,8.4,88.7,19,132.4,31.2    c43.6,12.2,86.8,25.8,129.5,40.4c85.4,29.1,168.9,62,252.1,93.4c20.8,7.8,41.5,15.7,62.3,23.2c20.8,7.6,41.5,15,62.3,22.2    l15.6,5.3c5.2,1.7,10.6,3.6,15.3,5.1l7.3,2.4c2.4,0.7,4.8,1.2,7.2,1.9l3.6,0.9l1.8,0.5l1.9,0.5l7.8,1.9l3.9,1l3.9,0.9l7.8,1.8    c5.2,1.1,10.4,2.2,15.6,3.3l7.8,1.5l3.9,0.8l3.9,0.7l7.8,1.4c2.6,0.5,5.2,0.8,7.9,1.3c10.5,1.7,21,3.1,31.5,4.4l7.9,0.9    c2.6,0.3,5.3,0.6,7.9,0.8l7.9,0.7c2.6,0.2,5.3,0.4,7.9,0.6c10.6,0.8,21.2,1.4,31.8,1.8c5.3,0.1,10.6,0.3,15.9,0.3l8,0.1l8,0    c2.7,0,5.3,0,8-0.1l8-0.2c5.3-0.2,10.6-0.3,15.9-0.7c10.6-0.5,21.2-1.3,31.8-2.2c10.6-1,21.2-2.1,31.7-3.6    c10.5-1.4,21.1-2.9,31.6-4.8c42-7.3,83.6-17.8,124.4-31.4c40.8-13.5,80.8-30,119.9-48.8c78.2-37.8,152.5-85.1,222.5-138.8    c35-26.9,69.1-55.3,102-85.2c16.5-14.9,32.7-30.2,48.6-45.9C3967.6,2000.2,3983.3,1984.2,3998.3,1967.6z" fill="#6A3E0F" /></g><path d="M3533.2,2219.6c0,0-55.7-205.6,0-224.6s160.2-50.6,181,0c20.9,50.6,13.9,78.6,0,111.6   C3700.4,2139.5,3618,2298.4,3533.2,2219.6z" fill="#DF8A1B" /><path d="M3375.8,1747.6c0,0-33.3-122.8,0-134.2s95.7-30.2,108.1,0c12.5,30.2,8.3,47,0,66.7   C3475.6,1699.8,3426.4,1794.7,3375.8,1747.6z" fill="#EAAB4B" /><path d="M3018,1714.3c0,0-49.6-183,0-200c49.6-17,142.6-45,161.2,0c18.6,45,12.4,70,0,99.4   C3166.8,1643,3093.4,1784.5,3018,1714.3z" fill="#EAAB4B" /><path d="M2614.1,1647.5c0,0-49.6-183,0-200c49.6-17,142.6-45,161.2,0c18.6,45,12.4,70,0,99.4   C2762.9,1576.2,2689.6,1717.8,2614.1,1647.5z" fill="#EAAB4B" /><path d="M1239.6,793.5c0,0-40-147.6,0-161.3c40-13.7,115-36.3,130,0c15,36.3,10,56.4,0,80.1   C1359.6,736.1,1300.4,850.1,1239.6,793.5z" fill="#EAAB4B" /><path d="M1572.3,852.7c0,0-40-147.6,0-161.3c40-13.7,115-36.3,130,0c15,36.3,10,56.4,0,80.1   C1692.3,795.2,1633.1,909.3,1572.3,852.7z" fill="#EAAB4B" /><path d="M1872.3,977.7c0,0-40-147.6,0-161.3s115-36.3,130,0c15,36.3,10,56.4,0,80.1   C1992.3,920.2,1933.1,1034.3,1872.3,977.7z" fill="#EAAB4B" /><path d="M2183.5,1137.8c0,0-28.4-105,0-114.7c28.4-9.7,81.8-25.8,92.5,0c10.7,25.8,7.1,40.2,0,57   C2268.9,1096.9,2226.8,1178,2183.5,1137.8z" fill="#EAAB4B" /><path d="M2590.4,1244.9c0,0-28.4-105,0-114.7s81.8-25.8,92.5,0s7.1,40.2,0,57C2675.7,1204,2633.7,1285.2,2590.4,1244.9   z" fill="#EAAB4B" /><path d="M2967.1,1268.8c0,0-34.9-128.7,0-140.6c34.9-11.9,100.2-31.6,113.3,0s8.7,49.2,0,69.8   C3071.7,1218.6,3020.2,1318.1,2967.1,1268.8z" fill="#EAAB4B" /><path d="M3283.8,1343.8c0,0-34.9-128.7,0-140.6c34.9-11.9,100.2-31.6,113.3,0s8.7,49.2,0,69.8   C3388.4,1293.7,3336.9,1393.2,3283.8,1343.8z" fill="#EAAB4B" /><path d="M2243.6,1554.7c0,0-37.9-139.7,0-152.7c37.9-13,108.8-34.4,123,0c14.2,34.4,9.5,53.4,0,75.8   S2301.2,1608.3,2243.6,1554.7z" fill="#EAAB4B" /><path d="M1841.8,1392.2c0,0-37.9-139.7,0-152.7c37.9-13,108.8-34.4,123,0c14.2,34.4,9.5,53.4,0,75.8   S1899.4,1445.7,1841.8,1392.2z" fill="#EAAB4B" /><path d="M992.6,1213.8c0,0-37.9-139.7,0-152.7c37.9-13,108.8-34.4,123,0c14.2,34.4,9.5,53.4,0,75.8   S1050.2,1267.3,992.6,1213.8z" fill="#EAAB4B" /><path d="M1387.4,1213.8c0,0-37.9-139.7,0-152.7c37.9-13,108.8-34.4,123,0c14.2,34.4,9.5,53.4,0,75.8   S1445,1267.3,1387.4,1213.8z" fill="#EAAB4B" /><path d="M3766.2,2546.2c0,0-46.5-171.6,0-187.5c46.5-15.9,133.7-42.2,151.1,0c17.4,42.2,11.6,65.6,0,93.1   C3905.7,2479.4,3837,2612.1,3766.2,2546.2z" fill="#D3730B" /><path d="M3421.9,2673.3c0,0-43.6-160.8,0-175.7c43.6-14.9,125.2-39.5,141.6,0c16.3,39.5,10.9,61.5,0,87.3   C3552.5,2610.7,3488.1,2735,3421.9,2673.3z" fill="#D3730B" /><path d="M3092.7,2245.6c0,0-55.7-205.6,0-224.6s160.2-50.6,181,0c20.9,50.6,13.9,78.6,0,111.6   S3177.5,2324.5,3092.7,2245.6z" fill="#DF8A1B" /><path d="M2702.3,2159.8c0,0-55.7-205.6,0-224.6s160.2-50.6,181,0c20.9,50.6,13.9,78.6,0,111.6   S2787.1,2238.6,2702.3,2159.8z" fill="#DF8A1B" /><path d="M2307.5,2039.3c0,0-55.7-205.6,0-224.6s160.2-50.6,181,0c20.9,50.6,13.9,78.6,0,111.6   C2474.6,1959.2,2392.2,2118.1,2307.5,2039.3z" fill="#DF8A1B" /><path d="M1913.2,1902.4c0,0-55.7-205.6,0-224.6s160.2-50.6,181,0c20.9,50.6,13.9,78.6,0,111.6   S1998,1981.3,1913.2,1902.4z" fill="#DF8A1B" /><path d="M1469.8,1782c0,0-55.7-205.6,0-224.6s160.2-50.6,181,0c20.9,50.6,13.9,78.6,0,111.6   C1636.9,1701.9,1554.5,1860.9,1469.8,1782z" fill="#DF8A1B" /><path d="M1176.4,1645.2c0,0-55.7-205.6,0-224.6s160.2-50.6,181,0c20.9,50.6,13.9,78.6,0,111.6   C1343.5,1565.1,1261.1,1724,1176.4,1645.2z" fill="#DF8A1B" /></g><path d="M2031.2,3397c0,0-227.8-62.6-495.7-37.6c-67.6,0-225.3-7.5-320.5-85.1c-95.1-77.6-47.6-212.8-443.2-353  c-155.2-45.1-425.6-50.1-548.3-170.3C100.8,2630.8-1.9,2481.8,83.3,2175.7c30-80.7,170.3-361.1,370.6-368.6  c115.2,12.5,230.3,12.5,282.9,45.1c52.6,32.5,27.5,65.1,185.3,50.1c157.7-15,313-7.5,410.6-5c22.5-2.5,55.1-32.5,120.2-2.5  c45.1,10,175.3-15,568.4,167.8c77.6,32.5,217.8,112.7,250.4,127.7c32.5,15,100.2,50.1,170.3,117.7  c70.1,67.6,170.3,122.7,185.3,130.2c15,7.5,225.3,150.2,207.8,395.6c-7.5,117.7-50.1,320.5-247.9,398.1  C2389.2,3309.4,2404.3,3417,2031.2,3397z" fill="#F2B55A" stroke="#6A3E0F" stroke-width="80" stroke-miterlimit="10" /><path d="M52,2380.5c0,0-139,698.5,404.6,753.2c62.6,10,182,5.9,257.9,22.5c227.8,50.1,297.7,133.2,372.8,228.3  c75.1,95.1,188.6,158.8,395.6,188.9c45.1,13.4,174.9-14.6,535.8,17.6c41.1,3.7,177.8,21.4,257.9-18.7c53.8-28.8,91.8-15,130.2-23.4  s321.3-40.1,373.1-192c6.7-18.4,76.6-122.4,112.5-187.8c45.4-82.7-17.3-252.9-59.3-312.1c-15.2,51.4-37.8,240-215.1,361  c-71.1,31.2-183.5,88.6-253.8,138.2c-44.8,17.6-206,71.7-361,33.9c-128.7-22.6-254.9-40.9-512-31.8  c-69.9-6.5-280.2-29.5-346.3-180.5c-74.4-110.9-260.7-227.1-399.4-263.6C639.1,2886.2,115.8,2938.8,52,2380.5z" fill="#D18122" stroke="#6A3E0F" stroke-width="80" stroke-miterlimit="10" /><path d="M1848.5,2222.9c0,0-24.1-227-436.8-256.8c-412.6-29.8-581.9,5.1-652.1,11.5c-70.2,6.4-566.3,43.1-556.1,341.6  c17,106.4-59.6,497.7,969.9,587.1c59.6,195.7,106.4,361.6,638.1,348.8c72.3,4.3,239.9-8.5,292.2,21.3  c52.3,29.8,516,12.8,537.3-370.1C2636.9,2668,2544.8,2228.7,1848.5,2222.9z" fill="#DF8A1B" /><g><path d="M1011,2804.2c-8.9-2.7-450.4-66.6-529.2-174.3c-98-133.9-202.6-412.8,60.9-517.3c55.8-15.4,68.2-18.4,124-40   s322.5-64.5,477.5-64.5s685.3,61.5,604.6,356.5c-96.1,21.5-210.9,27.7-381.4,258.2C1308.7,2693.5,1255.9,2878.8,1011,2804.2z" fill="#CE602D" stroke="#693B15" stroke-width="80" stroke-miterlimit="10" /><path d="M2191.5,2374.3c0,0,313.8,126.1,310.9,407.6c-2.9,46.9-22,422.2-353.4,416.4c-76.3-20.5-120.2-70.4-281.5-55.7   s-244.9,35.3-362.2-52.7c-73.3-35.2-208.2-64.5-237.6-217c-20.5-11.7-67.6-7,0-74.2c14.7-34.3,42.7-85.7,119.6-145   c29.8-39.6,85.7-191.3,285.1-261.7C1824.9,2350.9,2009.7,2301,2191.5,2374.3z" fill="#CE602D" stroke="#693B15" stroke-width="80" stroke-miterlimit="10" /><path d="M1702.4,2242c0,0-232.3,287.9-1283.5,94.2c0,0-9.4,148.1,98.3,273.3c15.8,16.8,73.1,68.2,296.4,114.6   c42.5,9.9,137.3,34.6,193.6,39.5c48.4,11.9,140.3,42.5,215.4-16.8c22.7-20.7,52.4-49.4,105.7-137.3   c40.5-52.4,159.3-240.3,387.5-277.9C1715.8,2331.7,1726.1,2286.7,1702.4,2242z" fill="#C5470A" /><path d="M1441.4,2474.7c0,0-430.9,268.3-870.2,172.9c0,0,79.9,39.3,187.2,64.2c89.5,20.6,164.9,42,248.8,51.9   c20.2,5.1,171.6,61.6,249.7-51.8c11.5-13.9,85.6-110.8,99.7-128.3C1370.8,2566,1436.4,2479.4,1441.4,2474.7z" fill="#B93102" /><path d="M2375.2,2555.5c0,0-304.9,233.8-1026.1,190.3c0,0-20.7,14.8-45.4,71.1l-18.8,21.7l18.8,10.9   c0,0-4,126.1,172.6,184.7c15.1,6.6,46.8,20.4,46.8,20.4s68.5,59.3,167.3,62.6c58.6-3.3,170.6-13.8,201.5-15.8   s118.6-10.5,230.5,46.8c12.5,6.6,29,15.1,53.3,11.9c24.4-3.3,210.5,0.7,269.8-254.1C2483.2,2767.6,2463.5,2642.4,2375.2,2555.5z" fill="#C5470A" /><path d="M2461.4,2737.3c0,0-527.6,402.8-1131.9,192.7c0,0,37.3,82,193.4,124.8c26.5,18.7,93.4,78.9,214.1,59.4   c101.2-8.3,217.5-32.7,320.7,6.9c47.6,19,71.1,32.8,83.5,35.8c12.5,3.1,75.4,11.4,126.5-15.7   C2319.1,3114,2471.3,3048.8,2461.4,2737.3z" fill="#B93102" /></g><path d="M80.2,2632.9c0,0,142.5,393.5,504.1,402c83,6.4,306.3,18.6,440.3,163.5s289.3,308.7,565.8,289.6  c119.1-10.6,351,27.7,489.2,27.7c61.7,10.6,161.7-31.9,240.4-42.5s514.3-91.1,524-492.1c0,0,34.7,84.4,17,152.4  c-11.3,27.7-47.5,87.9-61.7,107.8s-49.6,83.7-55.3,91.5c-5.7,7.8-15.6,131.2-353.1,175.8c0,0-43.3,1.8-53.4,1.8s-54.1,7.1-88.1,27.7  c-7.1,3.5-79.4,28.7-188.4,14.4c-98.4-9-237.3-18.3-308.2-19.7c-57.4,0.7-246.7,4.3-254.5,1.4c-7.8-2.8-255.2-27.2-361.6-156  c-13.5-16.3-122.7-183.6-304.2-232.6c-29.1-11.3-134-46.1-246.7-45.4c-66.6-3.5-284.3,0-387.5-132.2  C172.7,2944.5,93.5,2846.2,80.2,2632.9z" fill="#BC690F" /></svg>