<?xml version="1.0"?><svg data-name="Layer 1" id="Layer_1" viewBox="0 0 128 128" xmlns="http://www.w3.org/2000/svg"><title/><circle cx="64" cy="64" r="37.202" style="fill:#fabe02"/><path d="M64,26.8a37.541,37.541,0,0,0-4.348.261,37.2,37.2,0,0,1,0,73.883A37.2,37.2,0,1,0,64,26.8Z" style="fill:#f59a1d"/><path d="M42.1,82.38a1.748,1.748,0,0,1-1.4-.691q-.455-.6-.88-1.222a1.75,1.75,0,1,1,2.891-1.973q.375.549.777,1.078A1.75,1.75,0,0,1,42.1,82.38Z" style="fill:#f59a1d"/><path d="M38.534,76.147a1.751,1.751,0,0,1-1.621-1.088A29.092,29.092,0,0,1,34.75,64a1.75,1.75,0,0,1,3.5,0,25.6,25.6,0,0,0,1.9,9.734,1.751,1.751,0,0,1-1.62,2.413Z" style="fill:#f59a1d"/><path d="M64,19.791a1.75,1.75,0,0,1-1.75-1.75V9a1.75,1.75,0,0,1,3.5,0v9.041A1.75,1.75,0,0,1,64,19.791ZM41.9,25.714a1.75,1.75,0,0,0,.641-2.391l-4.521-7.83a1.75,1.75,0,0,0-3.031,1.75l4.521,7.83a1.749,1.749,0,0,0,2.391.641ZM25.714,41.9a1.75,1.75,0,0,0-.641-2.391l-7.83-4.521a1.75,1.75,0,1,0-1.75,3.031l7.83,4.521a1.749,1.749,0,0,0,2.391-.641Zm78.963.641,7.83-4.521a1.75,1.75,0,0,0-1.75-3.031l-7.83,4.521a1.75,1.75,0,1,0,1.75,3.031ZM88.5,25.073l4.521-7.83a1.75,1.75,0,0,0-3.031-1.75l-4.521,7.83a1.75,1.75,0,1,0,3.031,1.75ZM65.75,119v-9.041a1.75,1.75,0,1,0-3.5,0V119a1.75,1.75,0,0,0,3.5,0Zm55-55A1.75,1.75,0,0,0,119,62.25h-9.041a1.75,1.75,0,1,0,0,3.5H119A1.75,1.75,0,0,0,120.75,64ZM19.791,64a1.75,1.75,0,0,0-1.75-1.75H9a1.75,1.75,0,0,0,0,3.5h9.041A1.75,1.75,0,0,0,19.791,64Zm72.584,49.147a1.75,1.75,0,0,0,.641-2.391l-4.521-7.83a1.75,1.75,0,1,0-3.031,1.75l4.521,7.83a1.749,1.749,0,0,0,2.391.641Zm20.772-20.772a1.75,1.75,0,0,0-.641-2.391l-7.83-4.521a1.75,1.75,0,1,0-1.75,3.031l7.83,4.521a1.749,1.749,0,0,0,2.391-.641Zm-95.9.641,7.83-4.521a1.75,1.75,0,1,0-1.75-3.031l-7.83,4.521a1.75,1.75,0,1,0,1.75,3.031Zm20.772,19.491,4.521-7.83a1.75,1.75,0,1,0-3.031-1.75l-4.521,7.83a1.75,1.75,0,1,0,3.031,1.75Z" style="fill:#fabe02"/></svg>