<?xml version="1.0"?><svg enable-background="new 0 0 512 512" id="Flat" version="1.1" viewBox="0 0 512 512" xml:space="preserve" xmlns="http://www.w3.org/2000/svg" xmlns:xlink="http://www.w3.org/1999/xlink"><path d="M483.636,309.353c-9.12-18.16-22.64-24.8-22.64-24.8c-4.56-2.24-9.68-3.76-15.36-4.32  c-0.64-0.08-6.32-0.16-13.12-0.16V90.553c0-45.36-36-82.56-80-82.56h-16c-44,0-80,37.2-80,82.56v189.6c-6.8-0.08-12.48,0-13.12,0.08  c-26.72,2.64-38.64,27.44-44.96,50.56c-6.88,25.44-16.64,50.08-24.64,75.28c-0.88,2.88-4.88,3.28-6.32,0.56l-46.64-90.56  c-0.48-0.96-0.8-2-0.88-3.04l-1.52-19.68l12.24-4.24c2.88,8.4,12,12.8,20.32,9.92l15.12-5.2c8.32-2.96,12.8-12,9.92-20.4  l-7.84-22.64c-2.88-8.4-12-12.8-20.4-9.92l-15.12,5.2c-8.32,2.96-12.72,12-9.84,20.4l-13.76,4.72c0.08-0.8,0-1.6-0.16-2.4  l-1.92-7.52c-1.12-4.64-6.16-7.2-10.64-5.52l-24.88,9.52c-3.92,1.52-6,5.76-4.8,9.76l2.16,7.2c0.32,0.96,0.72,1.76,1.28,2.48  l-15.36,5.28c-2.88-8.32-12-12.8-20.32-9.92l-15.12,5.28c-8.4,2.88-12.8,12-9.92,20.32l7.84,22.72c2.88,8.32,12,12.72,20.32,9.84  l15.2-5.2c8.32-2.88,12.72-12,9.84-20.32l11.44-4l16.48,13.84c1.2,1.04,2.08,2.4,2.56,3.92l39.44,117.52  c2.64,7.92,7.04,15.04,12.96,20.96c7.52,7.52,17.76,11.6,28.24,11.6c2.56,0,5.12-0.24,7.68-0.72c12.08-2.4,22.32-10.24,27.84-21.28  l39.28-78.56v12.24c0,1.2,0,2.48,0.08,3.68c0.48,22.24,5.92,44.16,15.92,64.08v48c0,0,133.36,0,160,0v-48  c10-19.92,15.44-41.84,15.92-64.08c0.08-1.2,0.08-2.48,0.08-3.68v-12.24l8,128h48C499.796,402.793,493.316,328.713,483.636,309.353z  " fill="#FFD5C2"/><path d="M483.636,309.353c9.68,19.36,16.16,93.44,12.88,194.64h-48l-8-128v12.24c0,1.2,0,2.48-0.08,3.68  c-31.28-23.6-24.24-108.32-23.92-111.84c4.88,0,10.72,0,16,0c6.8,0,12.48,0.08,13.12,0.16c5.68,0.56,10.8,2.08,15.36,4.32  C460.996,284.553,474.516,291.193,483.636,309.353z" fill="#FFD5C2"/><path d="M416.516,280.073c-5.6-0.08-9.76-0.08-9.76-0.08c-5.04,0-10.16-0.8-14.8-2.8c-0.88-0.4-1.76-0.8-2.64-1.28  c-22.64-12.64-22-45.68-21.12-56.48c8.08-3.28,15.44-8.16,21.52-14.24c11.6-11.6,18.8-27.6,18.8-45.2v4c0,6.64,5.36,12,12,12  c6.64,0,12-5.36,12-12v116v0.08C427.236,280.073,421.396,280.073,416.516,280.073z" fill="#7C4D4D"/><path d="M317.034,71.691c-9.004,15.752-27.018,26.997-33.828,30.846c-1.688,0.954-2.691,2.716-2.691,4.655v32.801  c0-6.64-5.36-12-12-12c-6.64,0-12,5.36-12,12v-49.44c0-45.36,36-82.56,80-82.56h16c44,0,80,37.2,80,82.56v49.44  c0-6.64-5.36-12-12-12c-6.64,0-12,5.36-12,12v-30.057c0-3.172-2.745-5.536-5.908-5.296c-39.503,3.008-66.141-21.681-76.83-33.971  C323.299,67.82,318.908,68.412,317.034,71.691z" fill="#7C4D4D"/><path d="M440.436,391.913c-0.48,22.24-5.92,44.16-15.92,64.08h-160c-10-19.92-15.44-41.84-15.92-64.08  c31.28-23.6,24.24-108.32,23.92-111.84c5.6-0.08,9.76-0.08,9.76-0.08c5.04,0,10.16-0.8,14.8-2.8c1.84,28,10.16,90.8,47.44,90.8  s45.6-62.8,47.44-90.8c4.64,2,9.76,2.8,14.8,2.8c0,0,4.16,0,9.76,0.08C416.196,283.593,409.156,368.313,440.436,391.913z" fill="#AA9F9F"/><path d="M424.516,455.993v48c-26.64,0-160,0-160,0v-48H424.516z" fill="#FFD5C2"/><path d="M272.516,280.073c-4.8,0-10.72,0-16,0.08v-0.16v-116c0,6.64,5.36,12,12,12c6.64,0,12-5.36,12-12v-4  c0,17.6,7.2,33.6,18.8,45.2c6.08,6.08,13.44,10.96,21.52,14.24c0.88,10.8,1.52,43.84-21.12,56.48c-0.88,0.48-1.76,0.88-2.64,1.28  c-4.64,2-9.76,2.8-14.8,2.8C282.276,279.993,278.116,279.993,272.516,280.073z" fill="#7C4D4D"/><path d="M420.516,127.993c-6.64,0-12,5.36-12,12v-30.057c0-3.172-2.745-5.536-5.908-5.296  c-39.503,3.008-66.141-21.681-76.83-33.971c-2.479-2.85-6.87-2.258-8.744,1.021c-9.004,15.752-27.018,26.997-33.828,30.846  c-1.688,0.954-2.69,2.716-2.69,4.655v32.801c0-6.64-5.36-12-12-12c-6.64,0-12,5.36-12,12v24c0,6.64,5.36,12,12,12  c6.64,0,12-5.36,12-12v-4c0,17.6,7.2,33.6,18.8,45.2c6.08,6.08,13.44,10.96,21.52,14.24c0.88,10.8,1.52,43.84-21.12,56.48  c-0.88,0.48-1.76,0.88-2.64,1.28c1.84,28,10.16,90.8,47.44,90.8c37.28,0,45.6-62.8,47.44-90.8c-0.88-0.4-1.76-0.8-2.64-1.28  c-22.64-12.64-22-45.68-21.12-56.48c8.08-3.28,15.44-8.16,21.52-14.24c11.6-11.6,18.8-27.6,18.8-45.2v4c0,6.64,5.36,12,12,12  c6.64,0,12-5.36,12-12v-24C432.516,133.353,427.156,127.993,420.516,127.993z" fill="#FFD5C2"/><path d="M272.516,280.073c0.32,3.52,7.36,88.24-23.92,111.84c-0.08-1.2-0.08-2.48-0.08-3.68v-12.24l-39.28,78.56  c-5.52,11.04-15.76,18.88-27.84,21.28c-2.56,0.48-5.12,0.72-7.68,0.72c-10.48,0-20.72-4.08-28.24-11.6  c-5.92-5.92-10.32-13.04-12.96-20.96l-39.44-117.52c-0.48-1.52-1.36-2.88-2.56-3.92l-16.48-13.84l44.4-15.36l1.52,19.68  c0.08,1.04,0.4,2.08,0.88,3.04l46.64,90.56c1.44,2.72,5.44,2.32,6.32-0.56c8-25.2,17.76-49.84,24.64-75.28  c6.32-23.12,18.24-47.92,44.96-50.56c0.64-0.08,6.32-0.16,13.12-0.08C261.796,280.073,267.716,280.073,272.516,280.073z" fill="#FFD5C2"/><path d="M176.036,273.433c2.88,8.4-1.6,17.44-9.92,20.4l-15.12,5.2c-8.32,2.88-17.44-1.52-20.32-9.92l-7.84-22.64  c-2.88-8.4,1.52-17.44,9.84-20.4l15.12-5.2c8.4-2.88,17.52,1.52,20.4,9.92L176.036,273.433z" fill="#AA9F9F"/><path d="M122.836,266.473l7.84,22.64l-12.24,4.24l-44.4,15.36l-11.44,4l-7.84-22.72l15.36-5.28  c1.84,2.32,5.04,3.36,8.08,2.24l26.24-9.68c2.64-0.96,4.48-3.36,4.64-6.08L122.836,266.473z" fill="#EDA992"/><path d="M108.916,268.793c0.16,0.8,0.24,1.6,0.16,2.4c-0.16,2.72-2,5.12-4.64,6.08l-26.24,9.68  c-3.04,1.12-6.24,0.08-8.08-2.24c-0.56-0.72-0.96-1.52-1.28-2.48l-2.16-7.2c-1.2-4,0.88-8.24,4.8-9.76l24.88-9.52  c4.48-1.68,9.52,0.88,10.64,5.52L108.916,268.793z" fill="#FFD5C2"/><path d="M62.596,312.713c2.88,8.32-1.52,17.44-9.84,20.32l-15.2,5.2c-8.32,2.88-17.44-1.52-20.32-9.84l-7.84-22.72  c-2.88-8.32,1.52-17.44,9.92-20.32l15.12-5.28c8.32-2.88,17.44,1.6,20.32,9.92L62.596,312.713z" fill="#AA9F9F"/><g><path d="M316.985,135.571c-8.172,0-14.305-3.992-14.688-4.25c-1.836-1.227-2.336-3.711-1.109-5.547   s3.695-2.344,5.531-1.117c0.461,0.297,10.039,6.352,19.578,0.008c1.82-1.227,4.305-0.734,5.547,1.109   c1.227,1.836,0.727,4.32-1.109,5.547C325.953,134.509,321.195,135.571,316.985,135.571z" fill="#7C4D4D"/></g><g><path d="M345.102,191.571c-10.172,0-17.82-3.523-18.297-3.75c-1.992-0.945-2.844-3.312-1.906-5.312   c0.938-2.008,3.328-2.844,5.312-1.93c0.156,0.07,14.562,6.633,28.594,0.008c2-0.922,4.391-0.094,5.328,1.906   c0.945,2,0.086,4.383-1.906,5.328C356.266,190.634,350.344,191.571,345.102,191.571z" fill="#EDA992"/></g><g><path d="M372.985,135.571c-8.172,0-14.305-3.992-14.688-4.25c-1.836-1.227-2.336-3.711-1.109-5.547   s3.688-2.344,5.531-1.117c0.461,0.297,10.047,6.352,19.578,0.008c1.82-1.227,4.312-0.734,5.547,1.109   c1.227,1.836,0.727,4.32-1.109,5.547C381.953,134.509,377.195,135.571,372.985,135.571z" fill="#7C4D4D"/></g></svg>