<svg xmlns="http://www.w3.org/2000/svg" id="Layer_1" style="enable-background:new 0 0 128 128;" version="1.1" viewBox="0 0 128 128" xml:space="preserve"><path d="M109,62.5c0-7.3-5.9-13.2-13.2-13.2c-1.4,0-2.7,0.2-3.9,0.6c0-0.1,0-0.1,0-0.2c0-8.6-7-15.6-15.6-15.6  c-4.7,0-9,2.1-11.8,5.4c-3.7-3.4-8.6-5.4-14.1-5.4c-9.5,0-17.5,6.3-20.1,14.9C22.7,50.4,17,57.1,17,65.1" fill="#FFFBD6" /><g><path d="M37,54c1.3-10.3,10.9-16.2,19.5-16.2c0.6,0,1.2,0,1.8,0.1c-2.9-1.8-6.3-2.9-10-2.9c-8.6,0-15.9,5.9-18.3,13.9   c-6.9,1.5-12,7.7-12,15.2l8.5-0.2C26.5,58.9,31.1,54.1,37,54z" fill="#FFFFFF" /></g><path d="M109,62.5c0-7.3-5.9-13.2-13.2-13.2c-1.4,0-2.7,0.2-3.9,0.6c0-0.1,0-0.1,0-0.2c0-8.6-7-15.6-15.6-15.6  c-4.7,0-9,2.1-11.8,5.4c-3.7-3.4-8.6-5.4-14.1-5.4c-9.5,0-17.5,6.3-20.1,14.9C22.7,50.4,17,57.1,17,65.1" fill="none" stroke="#31352E" stroke-width="6" stroke-miterlimit="10" /><path d="M116.3,64c0,29-23.5,52.5-52.5,52.5S11.3,93,11.3,64H116.3z" fill="#94C2D9" /><path d="M27.3,64h-16c0,27.1,20.6,49.4,46.9,52.2C39.8,106.1,27.3,86.5,27.3,64z" fill="#BFDCE8" /><path d="M116.3,64c0,29-23.5,52.5-52.5,52.5S11.3,93,11.3,64H116.3z" fill="none" stroke="#31352E" stroke-width="6" stroke-linejoin="round" stroke-miterlimit="10" /><rect height="10" width="50" x="39" y="110" fill="#94C2D9" /><rect height="8" width="9" x="39" y="111" fill="#BFDCE8" /><rect height="10" width="50" x="39" y="110" fill="none" stroke="#31352E" stroke-width="6" stroke-miterlimit="10" /><line x1="92" x2="73" y1="7" y2="48" fill="none" stroke="#CD9356" stroke-width="6" stroke-linecap="round" stroke-linejoin="round" stroke-miterlimit="10" /><line x1="106" x2="80" y1="16" y2="53" fill="none" stroke="#CD9356" stroke-width="6" stroke-linecap="round" stroke-linejoin="round" stroke-miterlimit="10" /><path d="M61,49c0,0,12.8-0.4,18,10C79,59,78.5,41.8,61,49z" fill="#FFFFFF" /></svg>