<?xml version="1.0" encoding="UTF-8"?>
<svg xmlns="http://www.w3.org/2000/svg" xmlns:xlink="http://www.w3.org/1999/xlink" version="1.1" width="512" height="512" x="0" y="0" viewBox="0 0 512 512" style="enable-background:new 0 0 512 512" xml:space="preserve" class="">
  <g transform="matrix(1,0,0,1,0,2.842170943040401e-14)">
    <path d="m410.676 242.97-6.374 14.676c.982-2.261 14.5 12.416 15.356 13.962 4.242 7.676 5.163 18.348 2.656 26.744L394.517 391h-23.492l12.486-62.431a7.97 7.97 0 0 0-6.818-9.5 50.374 50.374 0 0 0 8.331-6.717A50 50 0 0 0 397.667 263l-23.3-79.906a43.4 43.4 0 0 0-23.767-28.115l-6.933-13.868V71a40.045 40.045 0 0 0-40-40h-8.585a56.287 56.287 0 0 0-39.415-16c-30.879 0-56 24.714-56 55.092 0 3.273.148 6.583.411 9.893a21.739 21.739 0 0 0-1.923 32.666 21.942 21.942 0 0 0 10.705 5.808c.181.853.378 1.7.6 2.552l1.192 4.515a43.852 43.852 0 0 0 13.014 21.267V151h-16.62a8 8 0 0 0-7.892 6.685l-7.521 45.128a49.142 49.142 0 0 0-7.447 8.576l-3.722-2.79a8 8 0 0 0-12.56 4.461l-16 64a8 8 0 0 0 6.772 9.878l64 8a8 8 0 0 0 8.582-5.408l7.82-23.461L244.611 255h3.056v56h-92.63a27.381 27.381 0 0 1-26.45-34.419l23.813-89.269A27.4 27.4 0 0 1 178.837 167h9.83v-16h-9.83a43.42 43.42 0 0 0-41.9 32.188l-14.9 55.869a47.397 47.397 0 0 0-2.2-.057 47.9 47.9 0 0 0-34.072 14.107c-12.8 12.786-17.217 32.614-12.071 49.842l44.376 147.9-20.5 10.256A17.886 17.886 0 0 0 105.557 495h62.11a8 8 0 0 0 7.844-9.569l-22.6-112.992 17.793 30.5A56.736 56.736 0 0 0 219.557 431a56.643 56.643 0 0 0 36.107-13.025 56.56 56.56 0 0 0 84.963-15.034l17.794-30.5-22.6 112.992a8 8 0 0 0 7.846 9.567h62.11a17.886 17.886 0 0 0 8-33.886l-20.513-10.26 44.38-147.914c7.056-23.518-4.055-50.018-26.968-59.97ZM175.1 272.864l-4.585-4.28 5.655-22.622a48.6 48.6 0 0 0 15.171 28.938ZM332.5 167a27.4 27.4 0 0 1 26.44 20.312c.016.059.032.119.05.177l23.31 79.985A34 34 0 0 1 349.667 311h-86v-56h3.055l5.535 11.069 7.82 23.461a8 8 0 0 0 8.582 5.408l64-8a8 8 0 0 0 6.768-9.883l-16-63.994a8 8 0 0 0-12.562-4.46l-4.545 3.409a49.112 49.112 0 0 0-7.862-9.2L312.486 167H332.5Zm-13.934 108.075a48.766 48.766 0 0 0 15.766-32.421l6.481 25.934-4.585 4.28Zm-14.9-156.7a21.717 21.717 0 0 0 16-21.2 22.228 22.228 0 0 0-5.98-15.268 21.205 21.205 0 0 0-2.4-2.179q.373-4.815.379-9.631a53.986 53.986 0 0 0-5.092-22.909A24.03 24.03 0 0 1 327.667 71v72a8.007 8.007 0 0 0 .844 3.578l2.211 4.422h-3.055a24.027 24.027 0 0 1-24-24Zm-87.93-44.424q-.071-1.935-.07-3.854c0-21.556 17.944-39.092 40-39.092s40 17.536 40 39.092q0 3.913-.284 7.837c-16.324-17.645-22.869-30.077-23-30.323a8 8 0 0 0-13.345-1.375c-15.189 18.823-30.07 23.736-43.3 27.71ZM295.689 151h-8.022v-4.208a45.359 45.359 0 0 0 3.476-3.513 40.027 40.027 0 0 0 4.546 7.721Zm-72.022-62.747c11.651-3.637 26-9.167 40.427-23.692a217.98 217.98 0 0 0 23.573 28.489c0 7.725.716 16.355-1.265 23.879l-1.189 4.506C281.854 134.132 269.7 143 255.667 143s-26.187-8.868-29.545-21.561l-1.189-4.507c-.511-1.939-3.221-28.068-1.266-28.679Zm53.691 78.4-1.446 7.24a21.281 21.281 0 0 1-41.73 0l-1.4-6.989a8 8 0 0 0 6.885-7.904v-2.713a48.537 48.537 0 0 0 32 0V159a8 8 0 0 0 5.691 7.658ZM239.666 239c-5.645.011-7.573 5.257-9.808 9.474-5.053 9.531-8.31 19.585-11.706 29.774l-7.368-.921-4.476-9.683a7.989 7.989 0 0 0-2.267-2.893c-16.194-12.943-16.176-38.584 0-51.5a8 8 0 0 0 2.9-4.936L213.823 167h2.664l2 10.041a37.281 37.281 0 0 0 73.11 0l2.01-10.041h2.663l.024.146c.012.094.026.187.042.281l6.82 40.889a8 8 0 0 0 2.895 4.933c16.174 12.933 16.313 38.446 0 51.505a7.987 7.987 0 0 0-2.579 3.683l-3.011 8.9-7.276.909c-.944-.639-1.61-4.356-1.981-5.377a279.994 279.994 0 0 0-12.379-29.449 8 8 0 0 0-7.158-4.42Zm16 88h22.562l-22.562 21.058L233.1 327Zm-138.85 64-27.794-92.64a32.341 32.341 0 0 1-1.355-9.26v-1.93a32.136 32.136 0 0 1 30.1-32.1l-4.639 17.391a43.4 43.4 0 0 0 18.465 47.655 8 8 0 0 0-3.768 8.45L140.308 391Zm41.091 88h-52.35a1.885 1.885 0 0 1-.841-3.575l26.529-13.27a8 8 0 0 0 4.084-9.454L121.617 407h21.891Zm168.9-84.119a40.552 40.552 0 0 1-63.7 8.243l-1.78-1.78a8 8 0 0 0-11.315 0l-1.779 1.779a40.552 40.552 0 0 1-63.7-8.244l-40.406-69.264a43.6 43.6 0 0 0 10.91 1.385h54.617l40.554 37.849a8 8 0 0 0 10.917 0L301.68 327h47.987a49.948 49.948 0 0 0 18.885-3.68Zm79.821 80.548a1.885 1.885 0 0 1-.849 3.571h-52.354l14.4-72h21.891L376 452.7a8 8 0 0 0 4.084 9.454Z" fill="#f4a4a3" opacity="1" data-original="#000000" class=""/>
  </g>
</svg>
