<?xml version="1.0"?><svg enable-background="new 0 0 64 64" version="1.1" viewBox="0 0 64 64" xml:space="preserve" xmlns="http://www.w3.org/2000/svg" xmlns:xlink="http://www.w3.org/1999/xlink"><g id="Captions"/><g id="Icons"><g><g><path d="M8,14v1.909c0,0.06,0.003,0.121,0.008,0.181l3.826,42.091C11.928,59.211,12.792,60,13.826,60h16.347     c1.034,0,1.898-0.789,1.992-1.819l3.826-42.091C35.997,16.03,36,15.97,36,15.909V14c0-1.105-0.895-2-2-2H10     C8.895,12,8,12.895,8,14z" fill="#0A5078"/></g><g><path d="M32.491,54.6l1.643-18.077c-2.6,0.998-4.577,3.347-5.028,6.155c-0.239,1.487-0.066,2.913,0.421,4.183     l-0.001,0L32.491,54.6z" fill="#00325A"/></g><g><path d="M34,12h-2.314C31.242,13.252,31,14.598,31,16c0,3.629,1.62,6.887,4.174,9.089l0.818-8.999     C35.997,16.03,36,15.97,36,15.909V14C36,12.895,35.105,12,34,12z" fill="#00325A"/></g><g><path d="M10.372,20l3.19,35.091C13.609,55.606,14.041,56,14.558,56h14.884c0.517,0,0.949-0.394,0.996-0.909     L33.628,20H10.372z" fill="#00A0C8"/></g><g><path d="M30.868,50.363l1.147-12.624c-1.516,1.211-2.591,2.961-2.909,4.939c-0.239,1.487-0.066,2.913,0.421,4.183     l-0.001,0L30.868,50.363z" fill="#0082AA"/></g><g><path d="M33.345,23.118L33.628,20h-1.942C32.085,21.125,32.647,22.174,33.345,23.118z" fill="#0082AA"/></g><g><g><path d="M43,41c-0.552,0-1-0.448-1-1v-4c0-2.206,1.794-4,4-4h1c0.552,0,1,0.448,1,1s-0.448,1-1,1h-1      c-1.103,0-2,0.897-2,2v4C44,40.552,43.552,41,43,41z" fill="#0A5078"/></g><g><path d="M55.894,42.678c-0.541-3.369-3.279-6.077-6.652-6.584c-2.368-0.356-4.577,0.327-6.241,1.662      c-1.665-1.334-3.873-2.018-6.241-1.662c-3.374,0.507-6.111,3.216-6.652,6.584c-0.239,1.487-0.066,2.913,0.421,4.183l-0.001,0      l3.802,9.927l0,0C35.049,58.666,36.869,60,39,60c0.783,0,1.524-0.18,2.183-0.501c1.154-0.561,2.479-0.561,3.633,0      C45.476,59.82,46.217,60,47,60c2.131,0,3.951-1.334,4.67-3.212l0,0l3.802-9.927l-0.001,0      C55.959,45.59,56.132,44.165,55.894,42.678z" fill="#C80A50"/></g><g><circle cx="35" cy="41" fill="#F0F0F0" r="1"/></g></g><g><circle cx="44" cy="16" fill="#F0F0F0" r="10"/><path d="M44,28c-6.617,0-12-5.383-12-12S37.383,4,44,4s12,5.383,12,12S50.617,28,44,28z M44,8     c-4.411,0-8,3.589-8,8s3.589,8,8,8s8-3.589,8-8S48.411,8,44,8z" fill="#FAB400"/></g><g><path d="M52.563,7.609l-2.827,2.827c0.968,0.998,1.673,2.246,2.019,3.637l3.118-3.118     C54.293,9.71,53.513,8.578,52.563,7.609z" fill="#DC9600"/></g><g><path d="M49.736,10.436L44,16.171l-2.586-2.585c-0.78-0.781-2.048-0.781-2.828,0     c-0.781,0.781-0.781,2.047,0,2.828l4,4C42.976,20.805,43.488,21,44,21s1.023-0.195,1.414-0.586l6.341-6.341     C51.409,12.682,50.704,11.433,49.736,10.436z" fill="#D2D2D2"/></g><g><path d="M44,20c-0.512,0-1.024-0.195-1.414-0.586l-4-4c-0.781-0.781-0.781-2.047,0-2.828     c0.78-0.781,2.048-0.781,2.828,0L44,15.171l8.586-8.585c0.78-0.781,2.048-0.781,2.828,0c0.781,0.781,0.781,2.047,0,2.828l-10,10     C45.024,19.805,44.512,20,44,20z" fill="#00A0C8"/></g></g></g></svg>