<?xml version="1.0"?><svg id="Filloutline" style="enable-background:new 0 0 415.703 504.01;" version="1.1" viewBox="0 0 415.703 504.01" xml:space="preserve" xmlns="http://www.w3.org/2000/svg" xmlns:xlink="http://www.w3.org/1999/xlink"><g><g><g><path d="M16.31,467.721c3.92,2.22,5.28,7.17,3.05,11.07c-2.23,3.89-7.21,5.25-11.13,3.03     c-3.91-2.22-5.28-7.17-3.05-11.07C7.41,466.861,12.4,465.501,16.31,467.721z" style="fill:#C19B7A;"/></g><g><path d="M133.13,403.171c3.92,2.22,5.29,7.18,3.05,11.07c-2.23,3.89-7.21,5.25-11.12,3.03     c-3.92-2.22-5.29-7.17-3.06-11.06C124.23,402.311,129.22,400.961,133.13,403.171z" style="fill:#C19B7A;"/></g><g><path d="M55.14,359.001c3.91,2.22,5.28,7.17,3.05,11.07c-2.23,3.89-7.21,5.25-11.13,3.03     s-5.28-7.17-3.05-11.06C46.24,358.141,51.22,356.791,55.14,359.001z" style="fill:#C19B7A;"/></g><g><path d="M206.24,325.321l-4.31,56.13h0.01c-29.846,38.155-35.353,70.507-10.03,95.51     c2.17,1.97,5.07,3.18,8.25,3.18h28.73c8.92,0,16.15-7.19,16.15-16.05v-89.41l0.02-0.08L206.24,325.321z" style="fill:#349370;"/></g><g><path d="M308.33,337.491l1.186,1.159c27.865,27.223,28.279,71.915,0.924,99.651l-2.111,2.14v9.32     c0,3.34,2.72,6.04,6.08,6.04c3.38,0,6.44,1.36,8.65,3.57c2.22,2.2,3.59,5.24,3.59,8.6c0,3.36-1.37,6.4-3.59,8.6     c-2.21,2.21-5.27,3.57-8.65,3.57h-28.74c-8.92,0-16.15-7.19-16.15-16.05v-89.41l-0.03-0.13     c0.937-29.795,22.047-44.307,38.81-49.23l0.03,0V337.491z" style="fill:#349370;"/></g><g><path d="M289.69,153.751l0.07-0.12c-6.87-3.8-13.12-5.42-16.16-6.09v3.57c0,8.7-6.68,16.12-15.41,16.68     c-0.45,0.03-0.76,0.03-0.91,0.03h-0.36c-8.96-0.16-15.96-7.82-15.96-16.73v-3.55c-3.99,1-9.9,2.81-16.09,6.21     c-18.797,32.447-27.946,72.847-18.63,128.47v43.1c0,3,0.26,5.93,0.76,8.79c1.68,9.57,6.06,18.23,12.34,25.16l12.9,10.28     c3.44,1.93,7.12,3.47,11,4.57c0.6,0.17,1.21,0.33,1.82,0.48c4.21,1.03,8.63,1.54,13.18,1.46c3.88-0.07,7.64-0.59,11.25-1.51     c21.98-5.57,38.08-25.85,38.81-49.23c0.02-0.56,0.03-1.12,0.03-1.68v-86.86C319.948,207.388,309.315,180.137,289.69,153.751z" style="fill:#F48CA7;"/></g><g><path d="M411.71,162.011c0,0.81-0.1,1.63-0.31,2.45l-5.38,21.33c-6.587,9.759-13.055,8.585-19.39-4.89     l5.38-21.33c1.35-5.36,6.78-8.6,12.14-7.25C408.68,153.461,411.71,157.531,411.71,162.011z" style="fill:#DBBB9C;"/></g><g><path d="M406.02,185.791l-38.25,151.7c-7.443,7.896-14.435,9.492-20.63,0l39.49-156.59L406.02,185.791z" style="fill:#C19B7A;"/></g><g><path d="M391.67,358.591v68.95c0,7.13-5.81,12.9-12.98,12.9h-70.36v-81.85     C336.984,344.945,364.823,344.023,391.67,358.591z" style="fill:#1EA6BC;"/></g><g><path d="M289.92,236.111v-20.41L207,334.111c1.68,9.57,6.06,18.23,12.34,25.16l12.9,10.28     c3.44,1.93,7.12,3.47,11,4.57l65.09-103.13v-34.21L289.92,236.111z" style="fill:#EA728C;"/></g><g><path d="M352.42,159.841l-36.43,30.79l-1.58-6.58c-1.35-4.5-3.74-10.35-8.16-16.23     c-4.98-6.61-10.94-11.12-16.49-14.19l-0.07,0.12c-2.09,4.72-5.69,14.77-3.5,26.98c0.37,2.05,0.86,3.95,1.43,5.69     c1.46,4.52,2.3,9.19,2.3,13.93v35.76l18.42,0.64c3.29,1.14,13.51,4.18,25.64,0.29c0.11-0.04,0.23-0.08,0.34-0.11     c11.57-3.83,19.51-14.45,20.73-26.52l5.31-52.9v-0.67C358.28,155.128,355.36,154.728,352.42,159.841z" style="fill:#FFD7D2;"/></g><g><path d="M393.43,337.491c5.86,0,10.61,4.72,10.61,10.55c0,2.91-1.19,5.55-3.11,7.46     c-1.92,1.91-4.57,3.09-7.5,3.09h-1.76h-83.34v-21.1h38.81h20.63H393.43z" style="fill:#0D87A3;"/></g><g><path d="M201.94,381.451h-0.01c-5.09,4.48-9.91,8.79-14.47,12.92     c0.293,12.974,12.766,22.174,25.248,18.623l5.072-1.443c1.89-6.09,3.7-12.11,5.43-18.05L201.94,381.451z" style="fill:#DBBB9C;"/></g><g><path d="M234.11,333.501c3.36,4.96,7.68,8.76,12.52,10.93l-14.39,25.12l-6.3,10.98l-14.18-8.03l7.58-13.23     L234.11,333.501z" style="fill:#DBBB9C;"/></g><g><path d="M337.65,152.841l-21.66,37.79l-26.07,45.48l-37.17,64.86l0.45,0.7c5.68,0.42,10.81,2.37,14.9,5.31     l40.23-70.2v-0.03h0.01l44.08-76.91C351.832,152.373,347.491,149.35,337.65,152.841z" style="fill:#DBBB9C;"/></g><g><polygon points="229.49,382.541 223.21,393.501 222,395.601 200.73,383.561 201.94,381.451      208.22,370.491 211.76,372.501 225.94,380.531    " style="fill:#C19B7A;"/></g><g><path d="M202.53,402.911l15.25,8.64c-3.75,12.16-7.82,24.61-12.22,37.31c-1.14,3.32-2.3,6.61-3.46,9.87     c-2.4,6.73-5.87,12.86-10.19,18.23c-12.44,15.46-31.84,24.52-52.46,22.85c-0.21-0.01-0.95-0.08-1.11-0.09     c-33.77-3.01-57.96-17.54-69.39-25.53c14.23-2.18,34.36-7.28,54.13-20.69c10.09-6.85,15.66-12.85,28.81-25.7     c8.93-8.71,20.87-20.11,35.57-33.43L202.53,402.911z" style="fill:#C19B7A;"/></g><g><path d="M318.49,33.971c-1.34-3.06-6.84-15.69-20.41-20.28c-8.9-3.01-16.91-1.08-20.4,0     c-1.97-1.49-19.08-14.01-40.8-8.11c-9.91,2.7-17.06,8.22-22.09,13.96c-6.11,6.97-9.93,15.62-11.55,24.72     c-0.8,4.44-1.8,9.14-3.08,14.05c-2.39,9.19-5.26,17.33-8.16,24.34c1.99-0.18,4.52-0.47,7.47-0.97c1.33,3.51,2.4,5.51,4.01,11.17     c1.43,5.04,3.9,14.33,4.84,26.3c0.42,5.4,0.62,12.29,0,20.28c3.67-0.13,7.82-0.52,12.33-1.38c8.31-1.58,15.15-4.23,20.31-6.73     h32.64c5.16,2.5,12,5.15,20.32,6.73c4.5,0.86,8.66,1.25,12.33,1.38c-0.63-7.99-0.43-14.88,0-20.28     c0.94-11.97,3.4-21.26,4.84-26.3c1.94-6.83,3.09-8.32,4.87-13.57C319.59,68.621,325.72,50.591,318.49,33.971z" style="fill:#604533;"/></g><g><path d="M360.36,156.841c-2.08,2.11-5,3.2-7.94,3c-1.31-0.08-2.62-0.42-3.87-1.04l-8.33-4.14     c-0.97-0.48-1.83-1.1-2.57-1.82c-3.09-2.99-4.02-7.74-1.99-11.77l0.13-0.25c2.51-5.01,8.63-7.03,13.67-4.53l8.33,4.14     c5.03,2.5,7.07,8.58,4.55,13.59l-0.13,0.25C361.72,155.251,361.09,156.111,360.36,156.841z" style="fill:#FEC4B9;"/></g><g><path d="M277.68,321.951c1.01,6.96-1.63,15.31-8.16,20.28c-6.87,5.24-14.8,4.25-16.32,4.06     c-2.26-0.28-4.46-0.92-6.57-1.86c-4.84-2.17-9.16-5.97-12.52-10.93c-2.29-3.37-4.13-7.27-5.39-11.55l-22.48-39.73l-8.58-15.16     c-3.83-6.77-5.86-14.39-5.81-22.15c0.1-16.98,1.63-40.53,8.31-60.86c1.71-5.21,3.89-10.61,8.16-16.23     c4.89-6.44,10.85-10.93,16.55-14.07c2.09,4.72,5.7,14.77,3.5,26.98c-0.36,2.05-0.86,3.95-1.42,5.69     c-1.46,4.52-2.31,9.19-2.31,13.93v43.61c0,8.56,2.45,16.93,7.07,24.14l21.04,32.87l0.45,0.7c5.68,0.42,10.81,2.37,14.9,5.31     C273.31,310.711,276.83,316.071,277.68,321.951z" style="fill:#FFD7D2;"/></g><g><path d="M240.96,122.821v28.27c0,8.91,7,16.57,15.96,16.73h0.36c0.15,0,0.46,0,0.91-0.03     c8.73-0.56,15.41-7.98,15.41-16.68v-28.29H240.96z" style="fill:#FFD7D2;"/></g><g><path d="M294.04,73.781c2.81,3.5,4.2,7.93,3.63,12.36c-0.74,5.77-2.72,13.37-7.75,20.84     c-1.58,2.36-7.14,10.62-16.32,15.84c-4.56,2.59-10.01,4.44-16.32,4.44c-6.31,0-11.76-1.85-16.32-4.44     c-9.17-5.22-14.73-13.48-16.32-15.84c-7.8-11.59-8.25-23.49-8.16-28.39l-0.48-1.33c6.54-2.4,13.7-5.85,20.88-10.84     c20.53-14.25,29.44-32.82,32.64-40.56c2.84,10.15,7.7,23.05,16.32,36.51C288.54,66.571,291.31,70.371,294.04,73.781z" style="fill:#FFD7D2;"/></g><g><path d="M308.33,440.441h70.36c7.17,0,12.98-5.77,12.98-12.9v-68.95     C382.904,407.253,355.434,434.884,308.33,440.441z" style="fill:#1498B7;"/></g><g><path d="M273.6,122.821v17.17c-0.52,0.02-1.04,0.02-1.56,0.02c-10.91,0-21.37-1.9-31.08-5.39v-11.8     c4.56,2.59,10.01,4.44,16.32,4.44C263.59,127.261,269.04,125.411,273.6,122.821z" style="fill:#F7B6AD;"/></g></g><g><path d="M59.206,411.972c0.457,6.984,2.72,17.042,10.904,25.291c7.439,7.497,17.802,11.429,28.468,11.429    c6.664,0,13.447-1.535,19.706-4.694c1.972-0.996,2.764-3.401,1.768-5.374s-3.402-2.762-5.374-1.769    c-13.221,6.676-29.213,4.526-38.889-5.227c-6.441-6.492-8.232-14.558-8.601-20.18c-0.536-8.183,4.519-15.597,11.758-17.244    c2.74-0.624,5.248-0.344,6.881,0.766c1.928,1.312,3.485,4.414,3.785,7.546c0.257,2.679-0.405,5.029-1.815,6.447    c-2.458,2.472-6.89,2.005-7.753,1.89c-2.19-0.306-4.206,1.233-4.504,3.422c-0.298,2.189,1.234,4.206,3.422,4.504    c2.14,0.294,9.507,0.854,14.507-4.175c3.14-3.156,4.598-7.721,4.106-12.852c-0.535-5.588-3.313-10.722-7.25-13.398    c-3.464-2.354-8.258-3.066-13.154-1.95C65.958,388.956,58.403,399.709,59.206,411.972z" style="fill:#3A322B;"/><path d="M67.775,444.136c-1.527-1.597-4.06-1.653-5.655-0.124c-10.68,10.22-26.607,12.81-38.73,6.293    c-8.074-4.34-12.16-11.536-14.167-16.81c-2.917-7.665-0.266-16.218,6.167-19.894c2.435-1.392,4.914-1.854,6.808-1.264    c2.241,0.697,4.649,3.225,5.857,6.146c1.025,2.48,1.081,4.91,0.153,6.667c-1.62,3.07-5.989,3.914-6.848,4.052    c-2.182,0.35-3.666,2.401-3.316,4.583c0.35,2.181,2.398,3.668,4.583,3.315c2.132-0.342,9.347-1.945,12.656-8.216    c2.071-3.924,2.129-8.703,0.165-13.456c-2.149-5.201-6.316-9.313-10.875-10.729c-4.003-1.246-8.797-0.532-13.153,1.957    c-9.98,5.703-14.048,18.188-9.673,29.685c2.49,6.545,7.609,15.502,17.855,21.011c5.642,3.032,11.924,4.502,18.268,4.502    c10.679,0,21.53-4.166,29.781-12.063C69.248,448.264,69.303,445.732,67.775,444.136z" style="fill:#3A322B;"/><path d="M45.088,376.582c1.891,1.071,3.952,1.579,5.987,1.579c4.228,0,8.344-2.195,10.584-6.104    c1.61-2.809,2.025-6.074,1.17-9.194c-0.858-3.13-2.889-5.736-5.72-7.34c-5.821-3.299-13.253-1.266-16.572,4.524    c-1.61,2.81-2.025,6.074-1.17,9.194C40.226,372.372,42.257,374.979,45.088,376.582z M47.478,364.027    c0.766-1.337,2.175-2.087,3.625-2.087c0.701,0,1.412,0.176,2.064,0.545c0.965,0.547,1.656,1.432,1.947,2.493    c0.288,1.052,0.148,2.153-0.396,3.102c-1.137,1.983-3.689,2.674-5.688,1.542c-0.965-0.547-1.657-1.432-1.948-2.493    C46.795,366.076,46.935,364.975,47.478,364.027z" style="fill:#3A322B;"/><path d="M123.084,420.753c1.891,1.071,3.952,1.579,5.987,1.579c4.228,0,8.344-2.195,10.584-6.104    c1.61-2.809,2.025-6.074,1.17-9.194c-0.858-3.129-2.89-5.735-5.721-7.339c-5.82-3.298-13.253-1.268-16.572,4.524    c-1.61,2.809-2.025,6.074-1.169,9.194C118.221,416.544,120.253,419.15,123.084,420.753z M125.474,408.197    c0.766-1.336,2.174-2.086,3.624-2.086c0.701,0,1.412,0.176,2.064,0.545c0.965,0.547,1.657,1.432,1.948,2.493    c0.288,1.052,0.147,2.152-0.396,3.101c-1.137,1.983-3.689,2.674-5.688,1.542c-0.965-0.547-1.657-1.432-1.948-2.493    C124.79,410.247,124.931,409.146,125.474,408.197z" style="fill:#3A322B;"/><path d="M18.283,464.242c-5.818-3.296-13.253-1.268-16.572,4.524c-1.61,2.81-2.025,6.075-1.17,9.195    c0.858,3.129,2.889,5.734,5.72,7.338c1.891,1.071,3.952,1.58,5.988,1.58c4.228,0,8.344-2.196,10.583-6.104    c1.61-2.81,2.026-6.074,1.17-9.194C23.146,468.452,21.114,465.846,18.283,464.242z M15.893,476.797    C15.892,476.797,15.892,476.798,15.893,476.797c-1.136,1.982-3.689,2.674-5.688,1.542c-0.965-0.547-1.656-1.432-1.947-2.492    c-0.289-1.053-0.148-2.154,0.396-3.103c0.766-1.336,2.174-2.086,3.624-2.086c0.701,0,1.412,0.176,2.064,0.545    c0.965,0.547,1.657,1.432,1.947,2.492C16.576,474.747,16.436,475.849,15.893,476.797z" style="fill:#3A322B;"/><path d="M405.124,148.438c-3.625-0.915-7.391-0.361-10.602,1.556c-3.21,1.918-5.482,4.971-6.396,8.598    l-44.102,174.898h-31.696v-8.169c0-0.114-0.024-0.22-0.033-0.331c0.011-0.451,0.033-0.898,0.033-1.351v-81.652    c5.764,1.205,13.882,1.745,22.874-1.139l0.373-0.122c12.847-4.246,22.052-15.986,23.451-29.91l5.267-52.396    c0.563-0.72,1.068-1.501,1.494-2.347l0.129-0.257c1.695-3.371,1.972-7.199,0.779-10.777c-1.197-3.592-3.729-6.5-7.129-8.189    l-8.331-4.141c-6.99-3.473-15.524-0.643-19.021,6.312l-0.129,0.257c-1.695,3.371-1.972,7.197-0.779,10.775    c0.376,1.128,0.897,2.178,1.521,3.154l-15.476,27.004c-1.895-5.354-4.546-10.321-7.911-14.79    c-9.791-13.002-23.133-18.613-31.837-21v-6.98c5.044,2.004,10.256,3.531,15.566,4.542c4.246,0.808,8.597,1.295,12.934,1.448    c0.047,0.002,0.095,0.003,0.142,0.003c1.088,0,2.132-0.443,2.888-1.232c0.789-0.823,1.188-1.943,1.1-3.079    c-0.511-6.54-0.511-13.152,0-19.655c0.874-11.122,3.101-19.892,4.7-25.52c1.119-3.939,1.955-5.992,2.839-8.166    c0.608-1.495,1.238-3.041,1.976-5.211c3.838-11.278,10.262-30.156,2.404-48.192c-6.236-14.313-15.833-20.119-22.787-22.471    c-8.051-2.724-15.547-1.96-20.922-0.582c-5.784-3.917-22.255-13.133-42.611-7.602c-9.361,2.546-17.452,7.651-24.047,15.177    c-6.347,7.242-10.665,16.461-12.486,26.658c-0.823,4.605-1.836,9.23-3.01,13.747c-2.101,8.08-4.787,16.091-7.985,23.813    c-0.535,1.292-0.356,2.771,0.472,3.897c0.828,1.128,2.184,1.745,3.578,1.617c1.439-0.128,2.969-0.299,4.574-0.519    c0.836,2.056,1.642,4.095,2.705,7.833c1.599,5.628,3.827,14.397,4.7,25.52c0.511,6.503,0.511,13.115,0,19.655    c-0.089,1.136,0.312,2.256,1.1,3.079c0.756,0.789,1.8,1.232,2.888,1.232c0.047,0,0.094-0.001,0.142-0.003    c4.336-0.153,8.688-0.641,12.934-1.448c5.31-1.011,10.522-2.538,15.566-4.542v7.054c-4.97,1.455-9.609,3.351-13.851,5.668    c-0.115,0.057-0.227,0.118-0.334,0.184c-7.062,3.914-13.026,8.986-17.642,15.061c-4.749,6.25-7.101,12.3-8.776,17.395    c-5.499,16.733-8.363,37.624-8.514,62.091c-0.052,8.381,2.137,16.727,6.33,24.136l8.061,14.246v41.895l-4.167,54.365    c-16.933,14.934-33.405,30.203-48.972,45.409c-1.925,1.88-3.688,3.614-5.327,5.226c-9.429,9.272-14.623,14.381-22.937,20.021    c-15.167,10.287-32.826,17.034-52.487,20.053c-1.615,0.249-2.917,1.455-3.288,3.047c-0.371,1.592,0.264,3.249,1.604,4.186    c14.866,10.393,39.308,23.379,71.317,26.23c0.168,0.015,0.936,0.08,1.146,0.098c1.733,0.14,3.456,0.209,5.173,0.209    c18.619-0.001,36.101-8.147,48.327-21.724c2.306,1.204,4.88,1.856,7.533,1.856h28.735c11.109,0,20.147-8.995,20.147-20.052    v-84.667c2.724,0.409,5.481,0.641,8.257,0.641c0.337,0,0.675-0.003,1.012-0.01c2.446-0.044,4.85-0.272,7.211-0.64v84.675    c0,11.057,9.038,20.052,20.147,20.052h28.735c8.955,0,16.241-7.253,16.241-16.169c0-8.915-7.286-16.168-16.241-16.168    c-1.145,0-2.077-0.916-2.077-2.041v-5.32h66.362c9.362,0,16.979-7.582,16.979-16.901V362.4c6.994-1.08,12.371-7.099,12.371-14.36    c0-8.022-6.555-14.55-14.613-14.55h-20.527l42.376-168.053C417.164,157.951,412.61,150.325,405.124,148.438z M395.883,160.547    c0.392-1.555,1.366-2.863,2.742-3.686c1.376-0.82,2.989-1.06,4.543-0.666c3.208,0.809,5.16,4.077,4.351,7.285l-4.401,17.453    L391.482,178L395.883,160.547z M258.774,298.512l80.227-139.989l7.443,3.699l-41.429,72.29c-0.101,0.15-0.189,0.307-0.269,0.469    l-38.083,66.451C264.222,300.155,261.574,299.166,258.774,298.512z M333.06,233.13l-0.299,0.099    c-7.175,2.301-13.663,1.942-18.369,1.011l40.393-70.481c0.317-0.038,0.633-0.087,0.946-0.147l-4.664,46.402    C349.982,220.8,342.915,229.872,333.06,233.13z M339.231,142.872l0.129-0.257c1.526-3.033,5.257-4.265,8.314-2.744l8.331,4.141    c1.48,0.735,2.581,1.998,3.1,3.556c0.515,1.544,0.395,3.197-0.336,4.65l-0.129,0.257c-0.25,0.498-0.565,0.942-0.921,1.339    c-0.133,0.118-0.255,0.244-0.371,0.378c-1.162,1.087-2.704,1.682-4.288,1.673c-0.234-0.037-0.468-0.049-0.702-0.044    c-0.689-0.083-1.376-0.275-2.032-0.601l-8.331-4.141c-0.601-0.299-1.119-0.703-1.582-1.16c-0.053-0.051-0.104-0.103-0.161-0.151    c-0.601-0.639-1.074-1.391-1.358-2.245C338.38,145.978,338.5,144.325,339.231,142.872z M303.05,170.232    c3.33,4.423,5.851,9.423,7.493,14.861l1.185,4.929l-17.803,31.065v-20.739c0-4.921-0.841-10.02-2.501-15.156    c-0.546-1.69-0.982-3.431-1.295-5.172c-1.43-7.96-0.18-15.069,1.615-20.477C295.713,162.231,299.642,165.706,303.05,170.232z     M257.282,123.265c-10.873,0-21.286-6.575-29.323-18.514c-6.045-8.98-7.452-18.313-7.487-24.918    c6.068-2.464,12.396-5.751,18.691-10.124c14.613-10.149,23.853-22.457,29.614-33.028c3.523,9.802,8.112,19.133,13.699,27.846    c2.594,4.045,5.436,8.001,8.446,11.758c2.215,2.765,3.203,6.085,2.782,9.35c-0.906,7.034-3.294,13.466-7.1,19.119    C278.567,116.691,268.153,123.265,257.282,123.265z M244.961,129.057c3.98,1.455,8.109,2.208,12.321,2.208    c4.212,0,8.341-0.758,12.321-2.214v18.437c0,0.002,0,0.003,0,0.005v3.622c0,6.693-5.125,12.266-11.663,12.686    c-0.325,0.021-0.553,0.024-0.658,0.024l-0.291-0.002c-6.633-0.118-12.03-5.829-12.03-12.731V129.057z M204.03,59.319    c1.227-4.716,2.284-9.545,3.143-14.354c1.565-8.764,5.241-16.645,10.628-22.791c5.54-6.322,12.313-10.604,20.129-12.729    c19.703-5.355,35.588,6.113,37.335,7.438c1.027,0.779,2.369,1.019,3.601,0.635c4.293-1.331,10.889-2.414,17.937-0.032    c5.422,1.834,12.949,6.46,18.016,18.089c6.62,15.195,0.821,32.237-2.644,42.42c-0.663,1.947-1.221,3.319-1.813,4.772    c-0.927,2.277-1.885,4.633-3.125,8.993c-1.693,5.958-4.051,15.247-4.98,27.08c-0.424,5.398-0.517,10.867-0.279,16.313    c-2.458-0.228-4.904-0.572-7.313-1.03c-5.854-1.114-11.582-2.913-17.062-5.355v-3.715c5.771-3.718,11.07-9.048,15.639-15.835    c4.504-6.692,7.329-14.282,8.396-22.561c0.691-5.361-0.939-10.965-4.473-15.375c-2.835-3.539-5.512-7.265-7.955-11.074    c-6.981-10.886-12.309-22.804-15.835-35.422c-0.459-1.643-1.91-2.813-3.612-2.916c-1.702-0.098-3.283,0.887-3.936,2.463    c-4.539,10.961-13.642,26.59-31.228,38.806c-13.003,9.031-26.156,13.012-36.411,14.696    C200.45,71.765,202.408,65.561,204.03,59.319z M219.9,134.122c-2.409,0.458-4.855,0.803-7.313,1.03    c0.238-5.446,0.145-10.915-0.279-16.313c-0.93-11.833-3.288-21.122-4.98-27.08c-0.906-3.188-1.661-5.3-2.365-7.098    c2.436-0.543,4.97-1.198,7.593-2.007c0.409,7.478,2.437,17.16,8.767,26.564c4.567,6.785,9.869,12.096,15.639,15.814v3.734    C231.482,131.209,225.754,133.008,219.9,134.122z M228.641,200.348c0-4.085,0.711-8.356,2.113-12.695    c0.657-2.033,1.181-4.125,1.557-6.219c1.837-10.223,0.005-19.222-2.362-25.771c2.427-1.144,4.82-2.067,7.099-2.82    c0.87,10.433,9.411,18.795,19.807,18.979l0.427,0.004c0.186,0,0.587-0.004,1.166-0.04c10.205-0.656,18.293-8.887,19.078-19.054    c2.187,0.687,4.615,1.599,7.147,2.791c-2.394,6.561-4.27,15.611-2.419,25.913c0.376,2.094,0.9,4.186,1.557,6.217    c1.402,4.34,2.113,8.611,2.113,12.696v34.698l-33.361,58.212l-17.483-27.31c-4.213-6.582-6.44-14.184-6.44-21.983V200.348z     M195.845,244.94c0.143-23.301,2.949-43.925,8.114-59.642c1.542-4.688,3.522-9.758,7.546-15.053    c3.345-4.402,7.274-7.867,11.359-10.593c1.774,5.393,2.993,12.465,1.573,20.367c-0.313,1.74-0.748,3.48-1.295,5.173    c-1.66,5.136-2.501,10.234-2.501,15.155v43.617c0,9.332,2.664,18.425,7.703,26.296l21.49,33.57    c0.678,1.061,1.816,1.739,3.071,1.833c10.77,0.804,19.525,7.896,20.82,16.862c0.743,5.147-1.017,12.254-6.626,16.527    c-4.851,3.695-10.479,3.634-13.401,3.269c-9.337-1.166-17.636-9.604-21.14-21.498c-0.086-0.292-0.206-0.573-0.355-0.839    l-31.064-54.898C197.632,258.892,195.802,251.925,195.845,244.94z M194.265,393.63c2.079-1.867,4.166-3.73,6.261-5.588    l17.224,9.754c-0.773,2.605-1.537,5.208-2.33,7.814L194.265,393.63z M214.472,359.724l-4.202,7.331l-0.082-0.047    c-0.985-0.558-2.104-0.646-3.109-0.347l1.251-16.318C210.041,353.652,212.091,356.797,214.472,359.724z M223.952,383.997    c0.001,0,0.001,0.001,0.002,0.002c0.001,0.001,0.003,0.001,0.005,0.002l0.06,0.034l-3.512,6.129l-14.31-8.104l3.512-6.129    l0.063,0.036c0.001,0,0.001,0.001,0.002,0.002c0.001,0.001,0.003,0.001,0.004,0.002L223.952,383.997z M224.451,375.087    l-7.219-4.088l17.443-30.437c1.982,2.108,4.151,3.924,6.465,5.404L224.451,375.087z M225.019,323.534    c1.11,3.64,2.611,7.017,4.425,10.066l-10.651,18.585c-5.543-7.83-8.556-17.181-8.556-26.865v-27.91L225.019,323.534z     M139.769,495.826c-0.199-0.016-0.917-0.077-1.077-0.092c-24.921-2.22-45.003-10.949-59.172-19.454    c16.892-3.758,32.261-10.288,45.803-19.472c8.915-6.048,14.293-11.337,24.055-20.938c1.633-1.605,3.389-3.333,5.308-5.207    c10.723-10.474,21.884-20.978,33.325-31.382l8.831,5.001c-8.7,13.17-18.348,25.835-28.745,37.686    c-10.916,12.441-22.831,24.206-35.416,34.966c-1.679,1.436-1.877,3.96-0.441,5.64c0.792,0.925,1.914,1.4,3.042,1.4    c0.919,0,1.844-0.315,2.597-0.96c12.875-11.007,25.064-23.042,36.231-35.771c10.756-12.26,20.729-25.374,29.707-39.011    l9.173,5.195c-3.572,11.445-7.305,22.864-11.206,34.126c-1.145,3.305-2.296,6.584-3.455,9.834    C189.52,482.1,165.439,497.91,139.769,495.826z M241.042,464.09c0,6.646-5.449,12.052-12.147,12.052h-28.735    c-0.815,0-1.615-0.123-2.38-0.352c3.319-4.77,6.06-10.034,8.086-15.716c1.167-3.272,2.327-6.573,3.479-9.901    c4.253-12.28,8.315-24.743,12.176-37.226c0.05-0.133,0.09-0.266,0.125-0.401c1.798-5.82,3.563-11.642,5.259-17.455l6.055-10.565    c0.529-0.924,0.668-2.021,0.387-3.047c-0.282-1.026-0.96-1.898-1.887-2.423l-0.047-0.026l2.402-4.191    c2.341,1.097,4.758,2.015,7.227,2.771V464.09z M258.166,372.057c-7.051,0.128-14.005-1.327-20.353-4.194l10.613-18.518    c1.401,0.419,2.829,0.734,4.28,0.915c1.002,0.126,2.231,0.225,3.619,0.225c4.339,0,10.234-0.962,15.622-5.067    c7.206-5.489,11.011-14.923,9.696-24.033c-0.855-5.92-3.91-11.245-8.394-15.354l31.08-54.232v71.84    C304.329,349.873,283.62,371.594,258.166,372.057z M314.405,459.805c4.544,0,8.241,3.665,8.241,8.169s-3.697,8.168-8.241,8.168    H285.67c-6.698,0-12.147-5.406-12.147-12.052v-86.564c12.938-4.14,23.875-13.08,30.806-24.749v96.987    C304.329,455.301,308.849,459.805,314.405,459.805z M378.69,436.444h-66.362v-73.854h75.34v64.953    C387.669,432.45,383.641,436.444,378.69,436.444z M400.04,348.039c0,3.611-2.966,6.55-6.613,6.55h-81.099v-13.1h55.426    c0.005,0,0.01,0.001,0.016,0.001c0.004,0,0.008-0.001,0.012-0.001h25.646C397.074,341.489,400.04,344.428,400.04,348.039z     M352.275,333.489l37.252-147.732l11.636,2.934l-36.512,144.798H352.275z" style="fill:#3A322B;"/></g></g></svg>