<?xml version="1.0"?><svg enable-background="new 0 0 512 512" version="1.1" viewBox="0 0 512 512" xml:space="preserve" xmlns="http://www.w3.org/2000/svg" xmlns:xlink="http://www.w3.org/1999/xlink"><g id="Colors"><g><g><g><g><circle cx="256.5" cy="255.5" fill="#F2F2F9" r="240"/></g></g></g><g opacity="0.15"><g><g><path d="M90.984,429.5c0,0-120.652-161.739,28.865-309.35C267.064-25.186,428.06,92.424,428.06,92.424       S270.734-75.096,84.662,86.216C84.662,86.216-76.384,245.881,90.984,429.5z" fill="#3F456B"/></g></g></g><g opacity="0.7"><g><g><path d="M419.272,83.606c0,0,120.47,161.559-29.047,309.169C243.012,538.111,82.197,420.682,82.197,420.682       s157.324,167.52,343.397,6.208C425.595,426.89,586.641,267.225,419.272,83.606z" fill="#FFFFFF"/></g></g></g><g><g><g><path d="M256.5,500.5c-65.442,0-126.967-25.484-173.241-71.759C36.984,382.467,11.5,320.942,11.5,255.5       S36.984,128.533,83.259,82.259C129.533,35.984,191.058,10.5,256.5,10.5s126.967,25.484,173.241,71.759       C476.016,128.533,501.5,190.058,501.5,255.5s-25.484,126.967-71.759,173.241C383.467,475.016,321.942,500.5,256.5,500.5z        M256.5,20.5c-62.771,0-121.785,24.444-166.17,68.83C45.944,133.715,21.5,192.729,21.5,255.5s24.444,121.785,68.83,166.17       c44.385,44.385,103.398,68.83,166.17,68.83s121.785-24.444,166.17-68.83c44.386-44.386,68.83-103.399,68.83-166.17       s-24.444-121.785-68.83-166.17C378.285,44.944,319.271,20.5,256.5,20.5z" fill="#3F456B"/></g></g></g></g><g><g><g><circle cx="257.185" cy="254.923" fill="#FC8144" r="192"/></g></g></g><g opacity="0.1"><g><g><path d="M146.341,411.729c0,0,129.936,74.418,236.002-31.648s21.777-248.759,21.777-248.759      s106.916,141.278-11.171,259.365S146.341,411.729,146.341,411.729" fill="#3F456B"/></g></g></g><g opacity="0.3"><g><g><path d="M371.243,101.185c0,0-127.949-77.784-236.748,25.478s-28.262,248.105-28.262,248.105      S3.041,230.748,124.169,115.783S371.243,101.185,371.243,101.185" fill="#FFFFFF"/></g></g></g></g><g id="Lines"><g><g><g><path d="M257,452c-108.626,0-197-88.374-197-197S148.374,58,257,58s197,88.374,197,197S365.626,452,257,452z       M257,68C153.888,68,70,151.888,70,255s83.888,187,187,187s187-83.888,187-187S360.112,68,257,68z" fill="#3F456B"/></g></g></g><g><g><g opacity="0.15"><g><g><path d="M425,426c2.288-2.288,3.418-5.155,5.153-7.719L298.554,301.775        c18.742-26.279,14.927-59.304-11.494-86.245c-29.897-30.484-80.764-38.267-105.287-14.129        c-24.233,23.851-20.768,72.051,9.129,102.536c26.389,26.909,62.491,34.657,89.036,16.415l112.96,132.73        c0.03-0.027,0.074-0.054,0.101-0.082C402,442,412,434,425,426z" fill="#3F456B"/></g></g></g><g><g><g><path d="M298.554,276.775l184.844,163.644c0,0,24.784,20.027,0.65,43.78l-0.5,0.493        c-24.134,23.753-43.684-1.426-43.684-1.426L279.938,295.352c-26.545,18.242-62.647,10.494-89.036-16.415        c-29.897-30.485-33.363-78.685-9.129-102.536c24.524-24.137,75.391-16.355,105.287,14.129        C313.482,217.471,317.296,250.496,298.554,276.775z" fill="#EDEDF4"/></g></g></g><g opacity="0.7"><g><g><path d="M180.132,175.965c0,0-19.033,49.859,22.964,92.682c41.997,42.823,75.502,25.711,75.502,25.711        s-40.918,31.305-86.357-15.027S180.132,175.965,180.132,175.965z" fill="#FFFFFF"/></g></g></g><g><g><g><path d="M280.149,292.831c0,0,5.083-5.693,11.58,1.709c6.497,7.402,159.57,175.915,159.57,175.915        s10.52,10.339-0.01,18.634c0,0-3.128,2.637-11.71-6.113C430.997,474.225,280.149,292.831,280.149,292.831z" fill="#CDCDE0"/></g></g></g><g opacity="0.3"><g><g><path d="M256.753,222.732c15.811,22.044,13.015,51.824-6.244,66.516        c-19.258,14.692-50.852,5.507-66.663-16.538c-15.811-22.043-9.852-48.598,9.408-63.291        C212.512,194.728,240.942,200.687,256.753,222.732z" fill="#FFFFFF"/></g></g></g><g><g><g><path d="M183.128,175.84c0,0,42.256-20.51,81.12,16.389c46.625,44.266,34.482,82.658,7.817,105.455        l1.549,1.579c0,0,13.548-5.746,28.822-26.298c15.275-20.551,7.958-58.187-17.516-84.162        C259.445,162.829,221.287,149.297,183.128,175.84z" fill="#CDCDE0"/></g></g></g><g opacity="0.7"><g><g><path d="M298.753,276.453c0,0-10.345,3.754-2.929,10.614c7.415,6.86,168.607,158.322,168.607,158.322        s27.495,22.985,17.174,40.04c0,0,24.68-25.722,0.387-46.994C457.701,417.16,298.753,276.453,298.753,276.453z" fill="#FFFFFF"/></g></g></g><g><g><g><path d="M462.281,499.893c-0.633,0-1.267-0.021-1.901-0.063c-14.216-0.948-23.589-12.39-24.418-13.437        c-2.249-2.76-114.064-139.939-156.535-184.378c-12.126,8.352-27.622,11.087-44.171,7.697        c-17.09-3.501-34.109-13.188-47.924-27.273c-31.508-32.127-35.745-83.343-9.066-109.601        c10.281-10.119,25.43-15.67,42.718-15.67c0.239,0,0.478,0.001,0.717,0.003c25.043,0.221,50.812,11.383,68.93,29.858        c28.578,29.14,34.059,63.732,14.644,89.417c45.912,45.727,178.717,157.93,181.32,160.128        c1.001,0.823,12.282,10.417,12.98,24.682c0.455,9.292-3.589,18.209-12.02,26.506l-0.497,0.491        C479.202,495.985,470.877,499.893,462.281,499.893z M279.938,290.352c1.3,0,2.596,0.505,3.57,1.499        c40.369,41.162,159.04,186.792,160.233,188.258c0.024,0.03,0.049,0.06,0.072,0.091c0.06,0.075,7.229,9.024,17.302,9.656        c6.284,0.385,12.642-2.543,18.926-8.728l0.497-0.491c6.314-6.214,9.357-12.57,9.048-18.893        c-0.49-10.024-9.243-17.366-9.331-17.437c-0.027-0.022-0.055-0.045-0.082-0.068c-1.416-1.194-142.05-119.977-185.188-163.964        c-1.834-1.87-1.914-4.837-0.186-6.803c19.128-21.75,14.688-52.933-11.31-79.442c-16.057-16.373-39.768-26.666-61.879-26.861        c-14.869-0.13-27.813,4.411-36.33,12.794c-10.572,10.405-15.77,26.734-14.26,44.801c1.553,18.59,10.101,37.059,23.45,50.671        c26.075,26.586,61.435,33.5,82.259,16.081C277.662,290.737,278.802,290.352,279.938,290.352z" fill="#3F456B"/></g></g></g></g><g><g><g><g><ellipse cx="215" cy="209" fill="#FC8144" rx="48.299" ry="64.347" transform="matrix(0.7071 -0.7071 0.7071 0.7071 -84.8133 213.2426)"/></g></g></g><g opacity="0.1"><g><g><path d="M169,207.333c0,0,42,67.667,78,37.667s-28.751-80.667-28.751-80.667S299,189.093,267,251.047        C218,299,165,232.667,169,207.333z" fill="#3F456B"/></g></g></g><g><g><g><path d="M233.379,272.878c-2.292,0-4.628-0.141-7.002-0.427c-15.229-1.833-30.214-9.439-42.19-21.416        c-13.737-13.736-21.199-30.146-22.18-48.772c-0.146-2.757,1.973-5.111,4.73-5.256c2.743-0.161,5.11,1.973,5.256,4.73        c0.847,16.083,7.328,30.291,19.264,42.226c10.401,10.401,23.298,16.992,36.315,18.559c12.568,1.512,23.716-1.881,31.393-9.558        c16.185-16.185,12.147-46.559-9.001-67.708c-8.264-8.263-24.926-15.507-37.115-18.391c-2.688-0.636-4.351-3.33-3.714-6.017        c0.636-2.687,3.328-4.349,6.017-3.714c10.136,2.399,30.363,9.532,41.883,21.051c25.048,25.048,29.086,61.766,9.001,81.85        C257.64,268.432,246.225,272.878,233.379,272.878z" fill="#3F456B"/></g></g></g><g opacity="0.3"><g><g><ellipse cx="214.258" cy="207.592" fill="#FFFFFF" rx="25.5" ry="33" transform="matrix(0.7071 -0.7071 0.7071 0.7071 -84.0352 212.3056)"/></g></g></g></g></g><g><g><g><g><path d="M345.314,163.126c31.373-26.155,55.775-2.574,62.834,5.424c7.059,7.997,28.263,25.534,44.204,2.539       c15.94-22.993-4.751-43.821-32.044-39.812c-5.633,0.826-12.306,5.134-17.576,0.977c-7.994-6.312,4.968-14.701,9.445-17.682       c9.134-6.078,17.241-6.404,25.427-13.881c3.457-3.159,6.977-8.67,8.147-13.11c1.386-5.258,0.176-11.923-2.009-16.889       c-4.481-10.187-13.841-18.102-25.233-16.391c-14.292,2.148-20.809,9.004-26.601,21.438c-3.274,7.029-5.31,14.538-8.961,21.408       c-2.159,4.053-5.881,8.556-11.024,7.866c-5.929-0.795-3.015-14.954-2.948-18.823c0.477-27.582-22.824-45.445-43.583-26.686       c-20.761,18.758-0.223,37.894,8.612,43.87C342.841,109.352,361.669,136.719,345.314,163.126" fill="#58BA9E"/></g></g></g><g opacity="0.2"><g><g><path d="M320.439,81.871c0,0,5.093-20.116,23.032-14.422c17.939,5.694,22.178,20.695,22.178,20.695       s6.467-27.679-14.565-34.83C330.053,46.162,312.736,70.58,320.439,81.871z" fill="#FFFFFF"/></g></g></g><g opacity="0.2"><g><g><path d="M429.374,179.419c0,0,19.716-6.47,12.796-23.973c-6.919-17.502-22.178-20.695-22.178-20.695       s27.166-8.364,35.753,12.124C464.333,167.362,441.169,186.323,429.374,179.419z" fill="#FFFFFF"/></g></g></g><g opacity="0.3"><g><g><path d="M395.704,75.966c0,0,11.384-21.748,30.038-4.341c18.654,17.407,1.156,33.45,1.156,33.45       s34.322-21.218,10.701-43.261C413.978,39.772,395.671,68.184,395.704,75.966z" fill="#FFFFFF"/></g></g></g><g><g><g><path d="M433.649,187.503c-14.677,0.002-26.888-12.969-29.25-15.645c-22.778-25.803-44.791-14.14-55.884-4.892       c-1.885,1.57-4.629,1.543-6.48-0.065c-1.853-1.608-2.264-4.322-0.973-6.408c7.863-12.695,6.145-25.1,3.318-33.27       c-3.551-10.266-9.968-17.536-13.178-19.707c-3.104-2.1-18.645-13.361-19.734-28.898c-0.58-8.282,2.976-15.961,10.571-22.824       c9.917-8.963,21.561-11.397,31.943-6.677c12.437,5.653,20.283,20.24,19.99,37.16c-0.017,0.96-0.14,2.14-0.297,3.634       c-0.212,2.021-0.812,7.732-0.222,10.113c2.375-0.49,4.448-4.043,5.079-5.227c1.918-3.608,3.369-7.446,4.906-11.509       c1.198-3.169,2.438-6.445,3.936-9.66c6.563-14.091,12.841-21.689,28.937-24.11c12.82-1.925,26.276,6.135,32.006,19.162       c2.693,6.12,3.24,12.687,1.58,18.988c-1.103,4.187-4.222,12.42-8.922,16.715c-5.328,4.866-10.565,7.044-15.63,9.151       c-3.545,1.475-6.894,2.868-10.4,5.201l-0.271,0.181c-8.774,5.834-9.483,8.217-9.492,8.809c0.019-0.013,0.181,0.235,0.647,0.605       c1.556,1.228,3.753,0.742,8.05-0.57c1.838-0.561,3.737-1.141,5.702-1.43c16.734-2.457,32.204,3.453,39.404,15.06       c6.014,9.694,5.094,21.557-2.524,32.547c-5.885,8.488-13.076,13.039-21.373,13.524       C434.607,187.489,434.126,187.503,433.649,187.503z M374.171,146.122c18.806,0,32.655,13.375,37.726,19.118       c5.251,5.949,14.326,12.711,22.607,12.238c5.145-0.301,9.639-3.323,13.739-9.239c5.32-7.674,6.117-15.337,2.246-21.578       c-5.021-8.094-16.865-12.289-29.455-10.438c-1.219,0.179-2.684,0.626-4.234,1.1c-4.782,1.459-11.331,3.459-17.165-1.145       c-3.848-3.039-4.54-6.498-4.443-8.864c0.275-6.733,6.866-12.019,13.947-16.727l0.267-0.178       c4.313-2.871,8.451-4.591,12.101-6.109c4.662-1.939,8.688-3.614,12.726-7.301c2.365-2.161,4.906-7.736,5.997-11.878       c1.078-4.092,0.71-8.385-1.063-12.415c-4.472-10.167-14.134-14.389-21.366-13.3c-11.655,1.753-15.729,6.356-21.358,18.443       c-1.34,2.877-2.461,5.839-3.646,8.975c-1.58,4.176-3.213,8.495-5.432,12.669c-4.051,7.607-9.767,11.324-16.104,10.475       c-9.605-1.288-8.253-14.177-7.526-21.102c0.115-1.101,0.235-2.238,0.244-2.763c0.221-12.736-5.458-23.942-14.131-27.884       c-6.681-3.037-14.176-1.265-21.101,4.994c-5.271,4.763-7.659,9.573-7.3,14.704c0.371,5.291,4.617,14.047,15.361,21.314       c5.327,3.603,12.929,12.876,17.025,24.721c2.383,6.888,4.128,16.196,1.971,26.444       C362.31,147.352,368.468,146.122,374.171,146.122z" fill="#3F456B"/></g></g></g></g><g opacity="0.3"><g><g><circle cx="221" cy="105" fill="#FFFFFF" r="12"/></g></g></g><g opacity="0.3"><g><g><circle cx="264" cy="98" fill="#FFFFFF" r="8"/></g></g></g><g opacity="0.3"><g><g><circle cx="319" cy="145" fill="#FFFFFF" r="8"/></g></g></g><g opacity="0.3"><g><g><circle cx="125" cy="329" fill="#FFFFFF" r="8"/></g></g></g><g opacity="0.3"><g><g><circle cx="231" cy="408" fill="#FFFFFF" r="8"/></g></g></g><g opacity="0.3"><g><g><circle cx="197" cy="394" fill="#FFFFFF" r="14"/></g></g></g></g></svg>