<svg xmlns="http://www.w3.org/2000/svg" viewBox="0 0 96 96"><defs /><title /><g data-name="Black Current" id="Black_Current"><path d="M80.45,46.26a1,1,0,0,1-.9-.57,48.16,48.16,0,0,1-3.94-30.48A28.6,28.6,0,0,0,50,34.06a1,1,0,1,1-1.88-.68,30.6,30.6,0,0,1,28.73-20.2,1,1,0,0,1,1,1.22,46.22,46.22,0,0,0,3.53,30.42A1,1,0,0,1,80.45,46.26Z" fill="#302d3d" /><path d="M64.76,44.46a20,20,0,1,1-20-20A20,20,0,0,1,64.76,44.46Z" fill="#6d6aaa" /><path d="M62,34.37a20,20,0,1,0,1.72,16.36A20,20,0,0,0,62,34.37ZM57.33,33a4,4,0,0,1-.12,5.42,24,24,0,0,0-4.11,6.21A4.09,4.09,0,0,1,49.55,47a23.42,23.42,0,0,0-4.82.77,4,4,0,0,1-4.26-1.55A24.18,24.18,0,0,0,33,39.53a4.07,4.07,0,0,1-1.07-6.21A17,17,0,0,1,57.33,33Z" fill="#4f4291" /><path d="M44.75,65.47a21,21,0,1,1,21-21A21,21,0,0,1,44.75,65.47Zm0-40a19,19,0,1,0,19,19A19,19,0,0,0,44.75,25.45Z" fill="#302d3d" /><path d="M79.36,74.1A20,20,0,1,1,94.51,50.21,20,20,0,0,1,79.36,74.1Z" fill="#6d6aaa" /><path d="M94.51,50.21A20,20,0,1,0,79.36,74.1,20,20,0,0,0,94.51,50.21ZM89.35,63.69a16.86,16.86,0,0,1-6.9,6.17,5,5,0,0,1-7-3.64A25,25,0,0,0,64,49.71a4.64,4.64,0,0,1-.9-7.26A17,17,0,0,1,89.35,63.69Z" fill="#4f4291" /><path d="M74.94,75.59A21,21,0,1,1,95.49,50h0A21,21,0,0,1,74.94,75.59Zm0-40A19,19,0,1,0,93.53,50.42h0A19,19,0,0,0,75,35.56Z" fill="#302d3d" /><circle cx="21.01" cy="60.34" r="20.01" transform="matrix(0.16, -0.99, 0.99, 0.16, -41.91, 71.41)" fill="#6d6aaa" /><path d="M18.66,49.86a12.57,12.57,0,0,0,3.62,4.26,4.26,4.26,0,0,0,4.41.48A8.11,8.11,0,0,0,28,53.87a3.81,3.81,0,0,0-.4-6.49,13.7,13.7,0,0,0-6.4-1.49A2.79,2.79,0,0,0,18.66,49.86Z" fill="#959ccd" /><path d="M37.91,49.63a20,20,0,1,0-10.58,29.7A20,20,0,0,0,37.91,49.63ZM21,77.35a17,17,0,1,1,8.36-31.81,6.7,6.7,0,0,1,1.88,10,24.93,24.93,0,0,0-5.33,16.56A4.89,4.89,0,0,1,21,77.35Z" fill="#4f4291" /><path d="M21,81.35a21,21,0,1,1,21-21A21,21,0,0,1,21,81.35Zm0-40a19,19,0,1,0,19,19A19,19,0,0,0,21,41.33Z" fill="#302d3d" /><path d="M13.27,67.09a1,1,0,0,1-1-.88c-.13-1.13-.23-2.29-.29-3.47a1,1,0,1,1,2-.09c0,1.12.15,2.24.28,3.32A1,1,0,0,1,13.27,67.09Z" fill="#302d3d" /><path d="M21,81.35c-3.33,0-6.17-3.69-7.8-10.11a1,1,0,0,1,1.93-.49c1.33,5.22,3.63,8.6,5.87,8.6a1,1,0,1,1,0,2Z" fill="#302d3d" /><circle cx="50.91" cy="71" r="20.01" fill="#6d6aaa" /><path d="M63.48,67.79a11.89,11.89,0,0,0-6.58-8.34,4.3,4.3,0,0,0-6.07,3.95,8.92,8.92,0,0,0,8.91,8.92A3.8,3.8,0,0,0,63.48,67.79Z" fill="#959ccd" /><path d="M89,51.33A11.89,11.89,0,0,0,82.4,43a4.31,4.31,0,0,0-6.07,4,8.91,8.91,0,0,0,8.91,8.91A3.8,3.8,0,0,0,89,51.33Z" fill="#959ccd" /><path d="M50.91,51a20,20,0,1,0,20,20A20,20,0,0,0,50.91,51Zm0,37a17,17,0,1,1,17-17A17,17,0,0,1,50.91,88Z" fill="#4f4291" /><path d="M50.91,92a21,21,0,1,1,21-21A21,21,0,0,1,50.91,92Zm0-40a19,19,0,1,0,19,19A19,19,0,0,0,50.91,52Z" fill="#302d3d" /><path d="M50.91,92c-4.55,0-8.78-3.44-11.31-9.2a1,1,0,1,1,1.83-.8c2.2,5,5.75,8,9.48,8a1,1,0,1,1,0,2Z" fill="#302d3d" /><path d="M42,61.77c1.29.67,1.44.83,1.78.65L45,61.75a.56.56,0,0,1,.82.58c-.23,1.44-.33,1.63-.06,1.9l1,1a.56.56,0,0,1-.3,1c-1.44.22-1.65.18-1.82.52L44,68a.56.56,0,0,1-1,0c-.66-1.3-.68-1.51-1.06-1.56l-1.41-.19a.56.56,0,0,1-.31-1c1-1,1.23-1.12,1.16-1.49l-.25-1.4A.56.56,0,0,1,42,61.77Z" fill="#4f4291" /><path d="M11.81,47.78c1.3.67,1.44.82,1.78.64l1.25-.67a.56.56,0,0,1,.82.59c-.23,1.44-.34,1.62-.06,1.89l1,1a.56.56,0,0,1-.3,1c-1.44.22-1.66.18-1.82.53L13.88,54a.57.57,0,0,1-1,0c-.65-1.3-.68-1.52-1.06-1.57l-1.4-.19a.57.57,0,0,1-.32-1c1-1,1.23-1.11,1.16-1.49L11,48.38A.56.56,0,0,1,11.81,47.78Z" fill="#4f4291" /><path d="M39,30.74c1.3.67,1.44.83,1.78.64L42,30.71a.56.56,0,0,1,.82.59c-.23,1.44-.34,1.63-.06,1.89l1,1a.56.56,0,0,1-.3,1c-1.44.22-1.65.18-1.82.53L41,36.93a.55.55,0,0,1-1,0c-.66-1.3-.69-1.51-1.07-1.57l-1.4-.19a.56.56,0,0,1-.32-1c1-1,1.23-1.12,1.16-1.5l-.25-1.39A.56.56,0,0,1,39,30.74Z" fill="#4f4291" /><path d="M68.7,42.72c1.29.66,1.44.82,1.78.64l1.25-.67a.56.56,0,0,1,.82.59c-.24,1.43-.34,1.62-.06,1.89l1,1a.56.56,0,0,1-.31,1c-1.44.22-1.65.18-1.82.52l-.61,1.28a.57.57,0,0,1-1,0c-.65-1.3-.68-1.52-1.06-1.57l-1.4-.19a.57.57,0,0,1-.32-1c1-1,1.23-1.11,1.16-1.49l-.25-1.39A.56.56,0,0,1,68.7,42.72Z" fill="#4f4291" /><path d="M61.92,10.74A1,1,0,0,1,63,9c8,4.79,19.38,5.54,28.43,1.92a1,1,0,0,1,1.3.56,1,1,0,0,1-.55,1.3C82.5,16.66,70.42,15.86,61.92,10.74Z" fill="#302d3d" /><path d="M72.55,13.68,66.86,18.3a18.08,18.08,0,0,1-22.52.22l-6.21-4.84,6.21-4.84a18.08,18.08,0,0,1,22.52.22Z" fill="#4ec870" /><path d="M43.72,19.31l-6.2-4.84a1,1,0,0,1,0-1.58l6.2-4.84a19,19,0,0,1,23.77.24l5.69,4.61a1,1,0,0,1,0,1.56l-5.69,4.61A19,19,0,0,1,43.72,19.31Zm-4-5.63L45,17.73a17,17,0,0,0,21.28-.21L71,13.68,66.23,9.84A17,17,0,0,0,45,9.63Z" fill="#302d3d" /></g></svg>