<?xml version="1.0"?><!DOCTYPE svg  PUBLIC '-//W3C//DTD SVG 1.1//EN'  'http://www.w3.org/Graphics/SVG/1.1/DTD/svg11.dtd'><svg height="32px" style="enable-background:new 0 0 32 32;" version="1.1" viewBox="0 0 32 32" width="32px" xml:space="preserve" xmlns="http://www.w3.org/2000/svg" xmlns:xlink="http://www.w3.org/1999/xlink"><g id="guides"/><g id="star"/><g id="sled"/><g id="gift"/><g id="fire_place"/><g id="snow_flake"/><g id="snow_flake_2"/><g id="candy_2"/><g id="vine"/><g id="horn"/><g id="thermometer_2_"/><g id="tag"/><g id="santa_mail"/><g id="tea"/><g id="decorations"/><g id="sock"/><g id="lights"/><g id="christmas_tree"/><g id="bell"/><g id="wreath"/><g id="santa"/><g id="shopping_bag"/><g id="santa_hat"/><g id="sock_2"/><g id="candle"/><g id="candle_2"/><g id="candy"/><g id="decorations_2"/><g id="scarf"/><g id="mittens"/><g id="snow_man"/><g id="skates"/><g id="warm_hat"/><g id="gift_2"/><g id="candy_1_"/><g id="deer"/><g id="Layer_38"/><g id="santa_bag"/><g id="santa_mail_2"/><g id="gift_3"/><g id="champagne"/><g id="tea_2"><g><path d="M27,20h-2.684v-2H27c1.654,0,3-1.346,3-3s-1.346-3-3-3h-2v-2h2c2.757,0,5,2.243,5,5    S29.757,20,27,20z" style="fill:#FF9017;"/></g><g><rect height="5" style="fill:#DAEAEA;" width="2" x="7" y="2"/></g><g><rect height="5" style="fill:#DAEAEA;" width="2" x="17" y="2"/></g><g><rect height="7" style="fill:#DAEAEA;" width="2" x="12"/></g><g><path d="M13,28C5.832,28,0,22.168,0,15v-5h26v5C26,22.168,20.168,28,13,28z" style="fill:#FFC215;"/></g><g><path d="M24,32H3c-1.654,0-3-1.346-3-3v-3h27v3C27,30.654,25.654,32,24,32z" style="fill:#FF9017;"/></g></g></svg>