<?xml version="1.0"?><svg id="Ex_Filled" style="enable-background:new 0 0 64 64;" version="1.1" viewBox="0 0 64 64" xml:space="preserve" xmlns="http://www.w3.org/2000/svg" xmlns:xlink="http://www.w3.org/1999/xlink"><g><g><circle cx="31" cy="33" r="18" style="fill:#FDC567;"/></g><g><circle cx="31" cy="33" r="13" style="fill:#FEF0D9;"/></g><g><g><path d="M30.593,34.579c2.9-2.9,5.728-0.071,8.628-2.971c2.308-2.308,0.998-4.57,1.823-6.86     C38.66,21.849,35.046,20,31,20c-7.18,0-13,5.82-13,13c0,5.043,2.877,9.405,7.074,11.561c0.847-0.152,1.697-0.503,2.553-1.359     C30.524,40.305,27.695,37.476,30.593,34.579z" style="fill:#E65039;"/></g></g><g><path d="M31,52c-10.477,0-19-8.523-19-19s8.523-19,19-19s19,8.523,19,19S41.477,52,31,52z M31,16c-9.374,0-17,7.626-17,17    s7.626,17,17,17s17-7.626,17-17S40.374,16,31,16z"/></g><g><rect height="2" width="2" x="39" y="35"/></g><g><rect height="2" width="2" x="32" y="41"/></g><g><rect height="2" width="2" x="34" y="36"/></g><g><circle cx="31.5" cy="26.5" r="2.5" style="fill:#FDC567;"/></g><g><path d="M31.5,30c-1.93,0-3.5-1.57-3.5-3.5s1.57-3.5,3.5-3.5s3.5,1.57,3.5,3.5S33.43,30,31.5,30z M31.5,25    c-0.827,0-1.5,0.673-1.5,1.5s0.673,1.5,1.5,1.5s1.5-0.673,1.5-1.5S32.327,25,31.5,25z"/></g><g><path d="M24.5,31.866c-0.174,0-0.347-0.046-0.5-0.134c-0.229-0.133-0.397-0.352-0.466-0.607l-0.732-2.732l1.932-0.518l0.473,1.767    l1.766-0.474l0.518,1.932l-2.732,0.732C24.674,31.854,24.587,31.866,24.5,31.866z"/></g><g><path d="M24.268,38c-0.087,0-0.174-0.012-0.259-0.034l-2.732-0.732l0.518-1.932l1.766,0.474l0.473-1.767l1.932,0.518l-0.732,2.732    c-0.068,0.256-0.236,0.475-0.466,0.607C24.615,37.954,24.442,38,24.268,38z"/></g><g><path d="M5,26L3.135,54.911c-0.084,1.303,0.495,2.561,1.54,3.345l0.003,0.002    c1.376,1.032,3.268,1.032,4.644,0l0.003-0.002c1.045-0.784,1.624-2.042,1.54-3.345L9,26H5z" style="fill:#DFDAD1;"/></g><g><path d="M55.104,28l-1.865,26.911c-0.084,1.303,0.495,2.561,1.54,3.345l0.003,0.002    c1.376,1.032,3.268,1.032,4.644,0l0.003-0.002c1.045-0.784,1.624-2.042,1.54-3.345L59.104,28H55.104z" style="fill:#DFDAD1;"/></g><g><ellipse cx="7" cy="17" rx="6" ry="10" style="fill:#DFDAD1;"/></g><path d="M10.062,26.93C12.412,25.175,14,21.432,14,17c0-6.168-3.075-11-7-11s-7,4.832-7,11c0,4.432,1.588,8.175,3.938,9.93   L2.137,54.847c-0.106,1.646,0.619,3.22,1.942,4.212c0.859,0.645,1.89,0.967,2.92,0.967c1.032,0,2.064-0.323,2.926-0.97   c1.32-0.989,2.044-2.562,1.938-4.209L10.062,26.93z M2,17c0-4.879,2.29-9,5-9s5,4.121,5,9s-2.29,9-5,9S2,21.879,2,17z    M8.722,57.459c-1.015,0.758-2.43,0.761-3.448-0.003c-0.777-0.583-1.204-1.511-1.142-2.48l1.749-27.11C6.245,27.954,6.619,28,7,28   s0.755-0.046,1.118-0.134l1.749,27.11C9.93,55.945,9.503,56.873,8.722,57.459z"/><g><path d="M58.955,28H55c-2.378,0-4.231-2.062-3.977-4.426L51.62,18h10.714l0.597,5.574    C63.185,25.938,61.332,28,58.955,28z" style="fill:#DFDAD1;"/></g><path d="M63.926,23.468l-0.598-5.574c-0.028-0.266-0.159-0.498-0.351-0.659V5h-2v12h-3V5h-2v12h-3V5h-2v12.234   c-0.192,0.161-0.323,0.393-0.351,0.659l-0.597,5.574c-0.151,1.408,0.305,2.82,1.252,3.874c0.73,0.812,1.702,1.357,2.758,1.564   l-1.798,25.941c-0.106,1.646,0.618,3.22,1.941,4.212c0.859,0.645,1.89,0.967,2.92,0.967c1.032,0,2.064-0.323,2.926-0.97   c1.32-0.989,2.044-2.562,1.938-4.214L60.166,28.85c0.959-0.24,1.836-0.761,2.508-1.508C63.621,26.289,64.077,24.877,63.926,23.468z    M58.827,57.459c-1.015,0.758-2.431,0.761-3.448-0.003c-0.777-0.583-1.204-1.51-1.142-2.476L56.038,29h2.134l1.8,25.976   C60.034,55.945,59.607,56.873,58.827,57.459z M61.186,26.005C60.61,26.646,59.817,27,58.955,27H55   c-0.863,0-1.655-0.354-2.231-0.995c-0.577-0.641-0.843-1.467-0.751-2.324L52.519,19h8.917l0.502,4.681   C62.03,24.538,61.763,25.364,61.186,26.005z"/><path d="M41.88,24.199c-0.019-0.03-0.04-0.059-0.063-0.086c-2.289-2.782-5.508-4.548-9.024-4.998   c-0.005-0.001-0.009-0.001-0.014-0.002c-0.042-0.005-0.085-0.01-0.128-0.015c-0.02-0.002-0.04-0.005-0.06-0.007   c-0.033-0.004-0.067-0.007-0.1-0.011c-0.03-0.003-0.06-0.006-0.09-0.009c-0.031-0.003-0.062-0.006-0.092-0.009   c-0.031-0.003-0.062-0.006-0.093-0.008c-0.03-0.003-0.06-0.005-0.091-0.008c-0.033-0.003-0.066-0.005-0.1-0.008   c-0.027-0.002-0.055-0.004-0.083-0.006c-0.037-0.003-0.075-0.005-0.112-0.007c-0.025-0.001-0.05-0.003-0.075-0.004   c-0.036-0.002-0.071-0.004-0.107-0.005c-0.029-0.001-0.058-0.003-0.087-0.004c-0.034-0.001-0.068-0.002-0.101-0.004   c-0.028-0.001-0.056-0.002-0.083-0.003c-0.038-0.001-0.076-0.002-0.115-0.002c-0.025,0-0.05-0.001-0.076-0.001   C31.125,19,31.062,19,31,19c-7.72,0-14,6.28-14,14c0,0.073,0.001,0.147,0.002,0.22c0,0.022,0.001,0.043,0.001,0.065   c0.001,0.056,0.003,0.112,0.004,0.168c0.001,0.02,0.001,0.04,0.002,0.061c0.003,0.071,0.006,0.142,0.009,0.212   c0.001,0.019,0.002,0.038,0.003,0.057c0.003,0.054,0.006,0.108,0.01,0.161c0.002,0.027,0.004,0.054,0.006,0.081   c0.003,0.047,0.007,0.094,0.011,0.141c0.002,0.027,0.004,0.054,0.007,0.081c0.006,0.063,0.011,0.125,0.018,0.187   c0.004,0.044,0.009,0.087,0.014,0.131c0.002,0.022,0.005,0.043,0.007,0.065c0.005,0.048,0.011,0.095,0.017,0.142   c0.001,0.011,0.003,0.022,0.004,0.033c0.47,3.654,2.356,6.946,5.245,9.204C24.742,45.882,27.743,47,31,47   c2.682,0,5.289-0.761,7.539-2.2l-1.078-1.686C35.533,44.348,33.299,45,31,45c-1.168,0-2.297-0.168-3.365-0.481   c0.24-0.18,0.472-0.383,0.699-0.61c1.736-1.736,1.757-3.474,1.776-5.006c0.017-1.372,0.03-2.456,1.19-3.617   c1.162-1.162,2.247-1.176,3.619-1.193c1.533-0.019,3.271-0.04,5.009-1.778c1.631-1.631,1.754-3.263,1.782-4.724   C42.534,29.216,43,31.055,43,33c0,3.299-1.312,6.374-3.692,8.659l1.385,1.443C43.47,40.437,45,36.849,45,33   C45,29.668,43.83,26.605,41.88,24.199z M39.714,27.274c-0.02,1.375-0.035,2.461-1.2,3.626c-1.162,1.162-2.247,1.176-3.619,1.193   c-1.533,0.019-3.271,0.04-5.009,1.778c-1.737,1.736-1.758,3.474-1.776,5.007c-0.017,1.372-0.029,2.455-1.19,3.616   c-0.521,0.521-1.056,0.841-1.7,1.011c-0.703-0.387-1.357-0.838-1.956-1.341c-0.025-0.021-0.049-0.042-0.074-0.063   c-0.022-0.018-0.043-0.037-0.064-0.055c-2.161-1.883-3.643-4.526-4.026-7.508c-0.001-0.008-0.002-0.017-0.003-0.025   c-0.023-0.186-0.043-0.374-0.057-0.562c-0.002-0.02-0.003-0.039-0.005-0.059c-0.007-0.09-0.013-0.18-0.017-0.271   c0-0.002,0-0.003,0-0.005c-0.005-0.09-0.008-0.18-0.01-0.27c-0.001-0.024-0.001-0.047-0.002-0.071C19.001,33.183,19,33.092,19,33   c0-6.617,5.383-12,12-12c0.1,0,0.199,0.001,0.298,0.004c0.005,0,0.01,0,0.016,0c0.095,0.002,0.189,0.006,0.284,0.011   c0.009,0,0.018,0.001,0.028,0.001c0.092,0.005,0.183,0.011,0.274,0.017c0.012,0.001,0.024,0.002,0.035,0.003   c0.091,0.007,0.182,0.015,0.273,0.024c0.01,0.001,0.019,0.002,0.029,0.003c0.091,0.009,0.181,0.02,0.271,0.031   c0.011,0.001,0.023,0.003,0.034,0.004c0.092,0.012,0.184,0.025,0.275,0.039c0.005,0.001,0.01,0.002,0.016,0.002   c2.801,0.431,5.285,1.834,7.097,3.853C39.735,25.795,39.724,26.572,39.714,27.274z"/></g></svg>