<?xml version="1.0"?><!DOCTYPE svg  PUBLIC '-//W3C//DTD SVG 1.1//EN'  'http://www.w3.org/Graphics/SVG/1.1/DTD/svg11.dtd'><svg enable-background="new 0 0 33 33" height="33px" id="Layer_1" version="1.1" viewBox="0 0 33 33" width="33px" xml:space="preserve" xmlns="http://www.w3.org/2000/svg" xmlns:xlink="http://www.w3.org/1999/xlink"><g><path d="M21.245,0.5v1.91h4.935l-4.428,4.428c-1.334-1.056-3.016-1.69-4.843-1.69c-2.601,0-4.902,1.279-6.327,3.237   C10.1,9.047,9.716,9.782,9.459,10.578c-0.244,0.757-0.38,1.562-0.38,2.397c0,3.756,2.658,6.899,6.188,7.657   c0.102-0.09,0.205-0.178,0.302-0.275c0.441-0.441,0.772-0.947,1.045-1.475c-3.127-0.154-5.625-2.74-5.625-5.907   c0-0.977,0.242-1.897,0.663-2.71c0.345-0.667,0.813-1.258,1.375-1.747c1.04-0.906,2.396-1.461,3.881-1.461   c3.263,0,5.917,2.655,5.917,5.918c0,2.593-1.675,4.794-3.997,5.595c-0.248,0.773-0.621,1.516-1.115,2.195   c3.938-0.404,7.022-3.744,7.022-7.79c0-1.8-0.617-3.455-1.643-4.779l4.438-4.436v4.934h1.91V0.5H21.245z" fill="#27AAE1"/><path d="M16.921,10.635c-1.084-1.083-2.43-1.805-3.894-2.116c-0.561,0.489-1.029,1.08-1.375,1.747   c1.479,0.066,2.863,0.666,3.917,1.72c1.864,1.867,2.194,4.67,1.045,6.897c-0.273,0.527-0.604,1.033-1.045,1.475   c-0.097,0.098-0.201,0.186-0.302,0.275c-1.078,0.939-2.44,1.459-3.884,1.459c-1.58,0-3.067-0.617-4.186-1.734   c-2.307-2.307-2.307-6.063,0-8.371c0.647-0.646,1.42-1.12,2.261-1.408c0.256-0.796,0.641-1.531,1.122-2.193   c-1.787,0.181-3.446,0.962-4.734,2.25c-3.052,3.054-3.052,8.021,0,11.074c1.261,1.26,2.876,2.031,4.621,2.234v3.492H6.742v1.91   h3.727v0.477V32.5h1.911v-2.678v-0.477h3.727v-1.91h-3.727v-3.504c1.713-0.217,3.3-0.982,4.542-2.223   c0.295-0.295,0.553-0.615,0.792-0.943c0.494-0.68,0.867-1.422,1.115-2.195C19.695,15.866,19.063,12.779,16.921,10.635z" fill="#ED4FB4"/></g></svg>