<?xml version="1.0"?><svg enable-background="new 0 0 512 512" id="Flat" version="1.1" viewBox="0 0 512 512" xml:space="preserve" xmlns="http://www.w3.org/2000/svg" xmlns:xlink="http://www.w3.org/1999/xlink"><path d="M424.516,215.993c-2.24,3.44-4.16,9.36-5.84,17.12l-41.04-20.56c-2.8-5.12-5.36-9.68-7.68-13.6  c-5.6-9.44-14.72-16.32-25.44-18.96c-1.92-0.48-3.76-0.72-5.68-0.72c-7.68,0-15.12,3.84-19.52,10.48c-2,3.12-3.28,6.56-3.76,10.16  c-33.52-4-60.08-21.2-73.52-31.6c-6.16-4.8-9.52-8.16-9.52-8.16l-22.64-19.76c-29.52-25.68-74.08-23.36-98.96,5.2l-9.12,10.4  c-16.8,19.36-20.56,46-11.92,69.12c-3.76-2.4-7.6-4.72-11.44-7.04c-12.08-7.2-26.64-6.64-37.92,0.32v-50.4  c0-4.4-1.76-8.4-4.72-11.28c-2.88-2.96-6.88-4.72-11.28-4.72c-8.8,0-16,7.2-16,16v336h496v-288  C504.516,215.993,440.516,191.993,424.516,215.993z M40.516,353.993v-38.96c11.28,12.88,28.96,25.6,49.28,36.96  C62.196,351.833,40.516,353.993,40.516,353.993z" fill="#FFD5C2"/><path d="M297.156,234.153c11.28,14.88,28.72,44.48,19.44,75.52l-91.36-21.52c8-3.04,15.44-8.08,21.44-14.96  c7.44-8.48,11.76-18.72,12.96-29.2c2.08,2,5.28,4.32,9.92,5.52c9.6,2.32,19.52-2.4,24.72-10.8L297.156,234.153z" fill="#FFD5C2"/><g><path d="M260.516,244.713c-1.28,10.88-5.84,20.88-13.12,29.12c-5.92,6.8-13.44,12.08-21.84,15.28   c-0.08,0-0.24,0.08-0.32,0.08c-0.4,0-0.8-0.32-0.96-0.72c0.32-0.08,0.64-0.16,0.96-0.32c8-3.04,15.44-8.08,21.44-14.96   c7.44-8.48,11.76-18.72,12.96-29.2C259.876,244.233,260.196,244.553,260.516,244.713z" fill="#F4EADE"/></g><path d="M504.516,215.993v288h-136l23.04-64.56c8.4-23.52,13.92-47.92,16.32-72.72c0.96-0.88,1.6-2.08,1.92-3.28  c4.8-18.96,4.48-39.2,1.12-58.88v-0.08c1.52-26.72,3.92-53.68,7.76-71.36c1.68-7.76,3.6-13.68,5.84-17.12  C440.516,191.993,504.516,215.993,504.516,215.993z" fill="#EBC09E"/><path d="M377.636,212.553l41.04,20.56c-3.84,17.68-6.24,44.64-7.76,71.36  C405.076,269.113,389.796,235.353,377.636,212.553z" fill="#EDA992"/><path d="M410.916,304.553c3.36,19.68,3.68,39.92-1.12,58.88c-0.32,1.2-0.96,2.4-1.92,3.28  c-0.96,1.2-2.48,2.08-4.16,2.4c-14.88,3.2-62.32,10.72-115.2-9.12l-0.96-0.16c0.72-3.28,0.8-6.72,0.4-10.24  c-2.48-21.6-21.68-29.36-39.84-35.36c-19.28-6.4-37.84-14.56-55.92-23.84c4.24,1.12,8.56,1.6,12.88,1.6  c6.88,0,13.76-1.28,20.16-3.84l91.36,21.52l36.8,8.64c2.96,0.72,5.52-2.24,4.4-5.12l-40.72-101.76c-0.88-2.08-1.36-4.32-1.6-6.48  v-0.08c-0.16-1.68-0.16-3.28,0.08-4.96c0.48-3.6,1.76-7.04,3.76-10.16c4.4-6.64,11.84-10.48,19.52-10.48c1.92,0,3.76,0.24,5.68,0.72  c10.72,2.64,19.84,9.52,25.44,18.96c2.32,3.92,4.88,8.48,7.68,13.6c12.16,22.8,27.44,56.56,33.28,91.92V304.553z" fill="#FFD5C2"/><path d="M403.716,369.113c1.68-0.32,3.2-1.2,4.16-2.4c-2.4,24.8-7.92,49.2-16.32,72.72l-23.04,64.56h-328v-150  c0,0,21.68-2.16,49.28-2h0.08c61.36,34.32,147.44,56.8,158.64,40c18.8,0,35.92-14.08,39.04-32.16l0.96,0.16  C341.396,379.833,388.836,372.313,403.716,369.113z" fill="#F4EADE"/><path d="M357.796,313.193c1.12,2.88-1.44,5.84-4.4,5.12l-36.8-8.64c9.28-31.04-8.16-60.64-19.44-75.52l18.32-29.2  c0.24,2.16,0.72,4.4,1.6,6.48L357.796,313.193z" fill="#EDA992"/><path d="M315.556,199.913c-0.24,1.68-0.24,3.28-0.08,4.96v0.08l-18.32,29.2l-2.88,4.56  c-5.2,8.4-15.12,13.12-24.72,10.8c-4.64-1.2-7.84-3.52-9.92-5.52c0.4-2.32,0.56-4.64,0.56-6.96c0-15.44-6.4-30.72-18.8-41.68  l2.56,2.24c4.24,3.76,10.88,3.28,14.56-0.96c3.76-4.32,3.28-10.88-0.96-14.64l-15.6-13.6l0.08-0.08  C255.476,178.713,282.036,195.913,315.556,199.913z" fill="#7C4D4D"/><path d="M287.956,349.593c0.4,3.52,0.32,6.96-0.4,10.24c-3.12,18.08-20.24,32.16-39.04,32.16c16-24-56-56-120-64  c-46.56-5.84-67.68-20.08-75.76-27.44c-2.88-2.64-7.04-3.2-10.48-1.44c-2.56,1.28-4.32,3.6-4.96,6.16l-10.96-6.56  c-11.04-6.64-17.84-18.64-17.84-31.6c0-7.28,2.16-14.32,6.16-20.4l14.32-17.36c3.12-4.64,7.04-8.32,11.52-10.96  c11.28-6.96,25.84-7.52,37.92-0.32c3.84,2.32,7.68,4.64,11.44,7.04c23.44,15.04,45.68,32.24,69.52,46.8c2,1.2,3.92,2.4,5.92,3.52  c0.08,0.08,0.08,0.08,0.16,0.16c8.8,5.12,17.68,10.16,26.72,14.8c18.08,9.28,36.64,17.44,55.92,23.84  C266.276,320.233,285.476,327.993,287.956,349.593z" fill="#EBC09E"/><path d="M260.196,237.033c0,2.32-0.16,4.64-0.56,6.96c-1.2,10.48-5.52,20.72-12.96,29.2  c-6,6.88-13.44,11.92-21.44,14.96c-6.4,2.56-13.28,3.84-20.16,3.84c-4.32,0-8.64-0.48-12.88-1.6c-9.04-4.64-17.92-9.68-26.72-14.8  c-0.08-0.08-0.08-0.08-0.16-0.16l-32.88-28.64c0,0,7.76-29.84-3.28-48.64c0,0,49.28,6.4,75.84-34.56l23.36,20.4l13.04,11.36  C253.796,206.313,260.196,221.593,260.196,237.033z" fill="#FFD5C2"/><path d="M257.556,181.993c4.24,3.76,4.72,10.32,0.96,14.64c-3.68,4.24-10.32,4.72-14.56,0.96l-2.56-2.24  l-13.04-11.36c-4.32-3.68-4.72-10.32-1.04-14.56c2.08-2.32,4.96-3.52,7.84-3.52c2.4,0,4.8,0.8,6.8,2.48L257.556,181.993z" fill="#FFD5C2"/><path d="M128.516,327.993c64,8,136,40,120,64c-11.2,16.8-97.28-5.68-158.64-40h-0.08  c-20.32-11.36-38-24.08-49.28-36.96c-0.56-0.56-1.04-1.2-1.52-1.76c-1.92-2.32-2.4-5.28-1.68-8c0.64-2.56,2.4-4.88,4.96-6.16  c3.44-1.76,7.6-1.2,10.48,1.44C60.836,307.913,81.956,322.153,128.516,327.993z" fill="#FFD5C2"/><path d="M132.421,205.5c4.687,14.351,2.044,31.542,0.676,38.329c-0.382,1.893,0.293,3.795,1.749,5.063l30.47,26.541  c-2-1.12-3.92-2.32-5.92-3.52c-23.84-14.56-46.08-31.76-69.52-46.8c-8.64-23.12-4.88-49.76,11.92-69.12l9.12-10.4  c24.88-28.56,69.44-30.88,98.96-5.2l22.64,19.76c0,0,3.36,3.36,9.52,8.16l-0.08,0.08c-2-1.68-4.4-2.48-6.8-2.48  c-2.88,0-5.76,1.2-7.84,3.52c-3.68,4.24-3.28,10.88,1.04,14.56l-18.868-16.477c-2.401-2.097-5.991-1.58-7.926,0.954  c-20.066,26.284-50.026,29.929-64.292,30.043C133.648,198.542,131.296,202.056,132.421,205.5z" fill="#7C4D4D"/><path d="M40.516,353.993v150h-32v-236.88c0,12.96,6.8,24.96,17.84,31.6l10.96,6.56c-0.72,2.72-0.24,5.68,1.68,8  c0.48,0.56,0.96,1.2,1.52,1.76V353.993z" fill="#EDA992"/><path d="M40.516,167.993v50.4c-4.48,2.64-8.4,6.32-11.52,10.96l-14.32,17.36c-4,6.08-6.16,13.12-6.16,20.4v-99.12  c0-8.8,7.2-16,16-16c4.4,0,8.4,1.76,11.28,4.72C38.756,159.593,40.516,163.593,40.516,167.993z" fill="#EDA992"/><g><path d="M317.556,309.913c-0.08,0.48-0.48,0.72-0.96,0.72h-0.24l-91.04-21.44c-6.4,2.56-13.2,3.76-20.24,3.76   c-0.56,0-1.04-0.4-1.04-0.96h1.04c6.88,0,13.76-1.28,20.16-3.84l91.36,21.52L317.556,309.913z" fill="#F4EADE"/></g><g><path d="M161.652,248.774c-1.758,0-3.371-1.168-3.855-2.949c-0.578-2.125,0.668-4.312,2.785-4.902l0,0   c0.387-0.113,9.473-2.812,10.703-12.254c0.281-2.191,2.258-3.738,4.48-3.449c2.191,0.281,3.734,2.289,3.449,4.48   c-1.922,14.797-15.914,18.773-16.508,18.934C162.356,248.731,162,248.774,161.652,248.774z" fill="#7C4D4D"/></g><g><path d="M193.367,212.396c-1.758,0-3.371-1.172-3.855-2.949c-0.578-2.125,0.668-4.316,2.785-4.902l0,0   c0.387-0.113,9.477-2.809,10.703-12.254c0.281-2.191,2.242-3.703,4.48-3.453c2.188,0.285,3.734,2.293,3.453,4.484   c-1.922,14.801-15.918,18.773-16.512,18.934C194.07,212.353,193.715,212.396,193.367,212.396z" fill="#7C4D4D"/></g><g><path d="M211.766,265.021c-1.535,0-2.996-0.891-3.656-2.387c-0.891-2.016,0.023-4.375,2.035-5.273   c0.125-0.055,12.324-5.625,15.895-18.219c0.598-2.129,2.812-3.383,4.938-2.758c2.125,0.602,3.359,2.812,2.758,4.938   c-4.617,16.301-19.727,23.082-20.367,23.363C212.844,264.911,212.301,265.021,211.766,265.021z" fill="#EDA992"/></g></svg>