<svg xmlns="http://www.w3.org/2000/svg" id="Layer_1" style="enable-background:new 0 0 512 512;" version="1.1" viewBox="0 0 512 512" xml:space="preserve"><g><g><path d="M387.109,123.214V436.69h-86.291V123.214c0-23.828,19.317-43.145,43.145-43.145h0    C367.792,80.069,387.109,99.386,387.109,123.214z" fill="#BF6C0D" /></g><g><path d="M363.139,84.564c-5.778-2.872-12.286-4.495-19.176-4.495h0c-23.828,0-43.145,19.317-43.145,43.145V436.69    h38.352V123.214C339.17,106.276,348.935,91.626,363.139,84.564z" fill="#A56021" /></g><g><path d="M377.119,438.185v-12.541c0-24.008-15.453-43.471-34.516-43.471h0c-19.063,0-34.516,19.463-34.516,43.471    v12.541H377.119z" fill="#8C4C17" /></g><g><path d="M313.291,443.397c2.508,0,4.329-2.363,3.707-4.792c-0.769-3.001-1.183-6.181-1.183-9.472    c0-18.19,12.627-32.988,28.148-32.988c15.521,0,28.148,14.798,28.148,32.988c0,3.291-0.414,6.471-1.183,9.472    c-0.623,2.429,1.199,4.792,3.707,4.792h8.295c1.829,0,3.422-1.286,3.765-3.082c0.687-3.6,1.054-7.34,1.054-11.182    c0-28.341-19.604-51.315-43.786-51.315c-24.182,0-43.786,22.974-43.786,51.315c0,3.842,0.368,7.583,1.054,11.182    c0.343,1.796,1.936,3.082,3.765,3.082H313.291z" fill="#E58D23" /></g><g><path d="M374.563,195.921c-3.313,0-6-2.686-6-6v-27.234c0-3.314,2.687-6,6-6s6,2.686,6,6v27.234    C380.563,193.235,377.876,195.921,374.563,195.921z" fill="#E58D23" /></g><g><path d="M374.563,359.658c-3.313,0-6-2.687-6-6V215.917c0-3.314,2.687-6,6-6s6,2.686,6,6v137.741    C380.563,356.971,377.876,359.658,374.563,359.658z" fill="#E58D23" /></g><g><circle cx="363.139" cy="118.158" r="15" fill="#A56021" /></g><g><circle cx="207.764" cy="155.549" r="86.946" fill="#FFA730" /></g><g><path d="M207.764,233.843c-43.171,0-78.294-35.123-78.294-78.294s35.123-78.294,78.294-78.294    c43.172,0,78.295,35.123,78.295,78.294S250.936,233.843,207.764,233.843z" fill="#FFB74B" /></g><g><circle cx="208.708" cy="155.721" r="32.543" fill="#FFD551" /></g><g><path d="M280.132,161.721H137.283c-3.313,0-6-2.686-6-6s2.687-6,6-6h142.849c3.313,0,6,2.686,6,6    S283.446,161.721,280.132,161.721z" fill="#FFD551" /></g><g><path d="M259.212,212.226c-1.536,0-3.071-0.586-4.243-1.757l-101.01-101.01c-2.343-2.343-2.343-6.142,0-8.485    c2.343-2.343,6.143-2.343,8.485,0l101.01,101.01c2.343,2.343,2.343,6.142,0,8.485C262.284,211.64,260.748,212.226,259.212,212.226    z" fill="#FFD551" /></g><g><path d="M208.708,233.146c-3.313,0-6-2.686-6-6V84.296c0-3.314,2.687-6,6-6s6,2.686,6,6v142.849    C214.708,230.459,212.021,233.146,208.708,233.146z" fill="#FFD551" /></g><g><path d="M158.203,212.226c-1.536,0-3.071-0.586-4.243-1.757c-2.343-2.343-2.343-6.142,0-8.485l101.01-101.01    c2.343-2.343,6.143-2.343,8.485,0c2.343,2.343,2.343,6.142,0,8.485l-101.01,101.01    C161.274,211.64,159.738,212.226,158.203,212.226z" fill="#FFD551" /></g><g><path d="M472.818,180.331L251.157,401.992l-61.017-61.017l221.661-221.661c16.849-16.849,44.167-16.849,61.017,0l0,0    C489.667,136.163,489.667,163.481,472.818,180.331z" fill="#BF6C0D" /></g><g><path d="M483.198,136.052c-2.055-6.116-5.509-11.866-10.381-16.738l0,0c-16.849-16.849-44.167-16.849-61.016,0    L190.14,340.975l27.119,27.119L438.92,146.433C450.897,134.455,468.162,131.002,483.198,136.052z" fill="#A56021" /></g><g><path d="M243.036,395.986l8.868-8.868c16.976-16.976,19.811-41.666,6.332-55.145l0,0    c-13.48-13.48-38.169-10.645-55.145,6.332l-8.868,8.868L243.036,395.986z" fill="#8C4C17" /></g><g><path d="M194.217,354.538c1.773,1.773,4.732,1.391,6.009-0.767c1.578-2.666,3.534-5.207,5.862-7.534    c12.862-12.862,32.255-14.397,43.23-3.422c10.975,10.975,9.44,30.368-3.422,43.23c-2.327,2.327-4.868,4.283-7.534,5.862    c-2.158,1.277-2.541,4.236-0.767,6.009l5.865,5.865c1.293,1.293,3.329,1.511,4.842,0.483c3.031-2.06,5.936-4.445,8.652-7.162    c20.04-20.04,22.423-50.147,5.324-67.246s-47.206-14.716-67.246,5.324c-2.717,2.717-5.102,5.622-7.162,8.652    c-1.028,1.512-0.81,3.549,0.483,4.842L194.217,354.538z" fill="#E58D23" /></g><g><path d="M297.998,334.408c-1.536,0-3.071-0.586-4.243-1.757c-2.343-2.343-2.343-6.142,0-8.485l97.398-97.398    c2.343-2.343,6.142-2.343,8.485,0c2.343,2.343,2.343,6.142,0,8.485l-97.398,97.398    C301.069,333.822,299.534,334.408,297.998,334.408z" fill="#E58D23" /></g><g><circle cx="457.95" cy="159.026" r="15" fill="#A56021" /></g><g><path d="M162.205,267.448c15.405-17.283,22.74-35.424,16.519-42.514c-6.69-7.625-26.614,0.31-45.288,17.735    c-0.746-24.704-8.669-44.452-18.534-45.096c-9.761-0.638-17.99,17.658-19.358,41.853c-17.283-15.405-35.424-22.74-42.515-16.519    c-7.63,6.694,0.319,26.638,17.767,45.322c-24.299,0.902-43.598,8.751-44.235,18.499c-0.638,9.761,17.658,17.99,41.852,19.358    c-15.405,17.283-22.74,35.424-16.519,42.514c6.69,7.625,26.614-0.31,45.288-17.735c0.746,24.704,8.669,44.451,18.534,45.096    c9.761,0.638,17.99-17.658,19.358-41.853c17.283,15.405,35.424,22.74,42.515,16.519c7.63-6.694-0.319-26.638-17.767-45.322    c24.299-0.902,43.598-8.751,44.235-18.5C204.695,277.045,186.399,268.815,162.205,267.448z" fill="#8C4C17" /></g><g><path d="M116.192,366.058c-2.971-2.62-8.795-14.59-9.425-35.482l-0.639-21.171l-15.486,14.451    c-13.295,12.406-25.48,18.056-31.174,18.056c-0.079,0-0.153-0.001-0.221-0.003c-0.142-3.486,3.065-14.565,16.326-29.443    l13.22-14.831l-19.836-1.121c-20.006-1.132-30.154-6.746-32.489-9.308c2.585-2.911,14.284-8.638,34.686-9.396l20.982-0.779    l-14.331-15.346c-14.029-15.023-18.327-27.441-18.121-31.398c0.074-0.003,0.154-0.004,0.241-0.004    c5.276,0,16.676,5.101,29.241,16.301l14.831,13.22l1.121-19.836c1.132-20.012,6.749-30.159,9.31-32.491    c2.971,2.62,8.795,14.591,9.425,35.482l0.64,21.171l15.485-14.451c13.295-12.406,25.48-18.056,31.174-18.056    c0.079,0,0.153,0.001,0.221,0.003c0.142,3.486-3.065,14.565-16.326,29.443l-13.22,14.831l19.836,1.121    c20.006,1.131,30.154,6.746,32.489,9.308c-2.585,2.911-14.284,8.638-34.686,9.396l-20.982,0.779l14.331,15.346    c14.029,15.023,18.327,27.441,18.121,31.398c-0.074,0.003-0.239,0.004-0.24,0.004c-5.276,0-16.678-5.102-29.242-16.301    l-14.831-13.22l-1.121,19.836C124.371,353.579,118.753,363.726,116.192,366.058z" fill="#A56021" /></g><g><path d="M136.242,278.143c6.876-7.714,10.15-15.812,7.374-18.977c-2.986-3.404-11.88,0.138-20.215,7.916    c-0.333-11.027-3.87-19.842-8.273-20.129c-4.357-0.285-8.03,7.882-8.641,18.682c-7.714-6.876-15.812-10.151-18.977-7.374    c-3.406,2.988,0.143,11.89,7.931,20.23c-10.846,0.403-19.461,3.906-19.745,8.258c-0.285,4.357,7.882,8.03,18.682,8.641    c-6.876,7.714-10.15,15.812-7.374,18.977c2.986,3.404,11.88-0.138,20.215-7.916c0.333,11.027,3.87,19.842,8.273,20.129    c4.357,0.285,8.03-7.882,8.641-18.682c7.714,6.876,15.812,10.151,18.977,7.374c3.406-2.988-0.143-11.89-7.93-20.23    c10.846-0.403,19.461-3.906,19.745-8.258C155.208,282.427,147.042,278.754,136.242,278.143z" fill="#8C4C17" /></g></g></svg>