<?xml version="1.0"?><svg viewBox="0 0 64 64" xmlns="http://www.w3.org/2000/svg"><title/><g id="stairs"><path d="M48.32,2a1,1,0,0,0-.606.205L7.388,33.469l-4,3.1A1,1,0,0,0,3,37.36V61a1,1,0,0,0,1,1H8a1,1,0,0,0,1-1V39.82l7-5.429V47a1,1,0,0,0,1,1h4a1,1,0,0,0,1-1V29.74l8-6.208V39a1,1,0,0,0,1,1h4a1,1,0,0,0,1-1V18.88l7-5.429V31a1,1,0,0,0,1,1h4a1,1,0,0,0,1-1V8.791L50.021,8H64V2Z" style="fill:#f2cac1"/><path d="M12,62H1a1,1,0,0,1,0-2H12a1,1,0,0,1,0,2Z" style="fill:#dbaaa2"/><path d="M64,22H53a1,1,0,0,0-1,1v7H40a1,1,0,0,0-1,1v7H26a1,1,0,0,0-1,1v7H12a1,1,0,0,0-1,1V62H64Z" style="fill:#f9e0dc"/></g></svg>