<svg xmlns="http://www.w3.org/2000/svg" id="Layer_1" style="enable-background:new 0 0 512 512;" version="1.1" viewBox="0 0 512 512" xml:space="preserve"><g id="XMLID_1_"><g id="XMLID_3830_"><path d="M271,5.5C139.4,13.2,35,122.4,35,256s104.4,242.8,236,250.5c131.6-7.8,236-117,236-250.5    S402.6,13.2,271,5.5z M262.3,376.3c-0.6,4.4-2,8.7-4,12.7l-2.5,5c-4.6,9.1-5.6,19.6-2.8,29.4l6.3,22.6    c-19.2,10.6-43.2,7.2-58.7-8.3l-0.1-0.1c-5.5,1.1-11,1.2-16.3,0.4c-15.6-2.2-29.7-11.8-37.1-26.5l-0.1,0    c-21.8-2.7-39.2-19.6-42.7-41.3l0-0.1l-0.1,0c-19.9-9.3-31.3-30.7-27.9-52.4l0,0c-12-11.2-17.4-27.4-15.2-43    c0.7-5.3,2.4-10.6,4.9-15.5l0-0.1c-10.6-19.2-7.2-43.2,8.3-58.7l0.1-0.1c-1.1-5.5-1.2-11-0.4-16.3c2.2-15.6,11.8-29.7,26.5-37.1    l0-0.1c2.7-21.8,19.6-39.2,41.3-42.7l0.1,0l0-0.1c9.3-19.9,30.7-31.3,52.4-27.9l0,0c11.2-12,27.4-17.4,43-15.2    c5.3,0.7,10.6,2.4,15.5,4.9l0.1,0l-5.6,22.8c-2.4,9.9-1.1,20.4,3.8,29.4l2.7,4.9c6.5,11.8,6.7,26,0.7,38c-2,4-3.4,8.3-4,12.7    c-1.2,8.6,0.3,17.5,4.6,25.3c4.3,7.8,5.8,16.7,4.6,25.3c-0.6,4.4-1.9,8.7-4,12.7c-2,4-3.3,8.3-3.9,12.7    c-1.2,8.6,0.7,17.5,4.7,25.3l0,0c6.4,11.8,6.5,26,0.7,38l0,0c-5.7,12-5.9,26.2,0.6,38C261.9,358.9,263.5,367.7,262.3,376.3z" id="XMLID_196_" fill="#9CD3FC" /><path d="M256,66c-1.1,0-2.2,0-3.3,0l-5.6,22.7c-2.4,9.9-1.1,20.4,3.8,29.4l2.7,4.9    c6.5,11.8,6.7,26,0.7,38c-2,4-3.4,8.3-4,12.7c-1.2,8.6,0.3,17.5,4.6,25.3c4.3,7.8,5.8,16.7,4.6,25.3c-0.6,4.4-1.9,8.7-4,12.7    c-2,4-3.3,8.3-3.9,12.7c-1.2,8.6,0.7,17.5,4.7,25.3l0,0c6.4,11.8,6.5,26,0.7,38l0,0c-5.7,12-5.9,26.2,0.6,38    c4.3,7.8,5.8,16.7,4.6,25.3c-0.6,4.4-2,8.7-4,12.7l-2.5,5c-4.6,9.1-5.6,19.6-2.8,29.4l6.3,22.5C362.7,444.2,446,359.9,446,256    C446,151.1,360.9,66,256,66z" id="XMLID_270_" fill="#E36415" /><path d="M257.1,313L257.1,313c5.7-12.1,5.7-26.2-0.7-38l0,0c-4-7.8-5.9-16.7-4.7-25.3    c0.6-4.4,1.9-8.7,3.9-12.7c2-4,3.4-8.3,4-12.7c1.2-8.6-0.3-17.5-4.6-25.3c-4.3-7.8-5.8-16.7-4.6-25.3c0.6-4.4,1.9-8.7,4-12.7    c6-12,5.8-26.2-0.7-38l-2.7-4.9c-4.9-9-6.3-19.5-3.8-29.4l5.6-22.8l-0.1,0c-2.4-1.2-4.9-2.2-7.4-3c-7.9,2.5-15.2,7-21.1,13.3l0,0    c-21.7-3.4-43.1,8-52.4,27.9l0,0.1l-0.1,0c-21.7,3.5-38.5,20.8-41.3,42.7l0,0.1c-14.6,7.5-24.3,21.5-26.5,37.1    c-0.7,5.3-0.6,10.8,0.4,16.3l-0.1,0.1c-15.5,15.6-18.9,39.5-8.3,58.7l0,0.1c-2.5,5-4.2,10.2-4.9,15.5c-2.2,15.6,3.2,31.8,15.2,43    l0,0c-3.4,21.7,8,43.1,27.9,52.4l0.1,0l0,0.1c3.5,21.7,20.8,38.5,42.7,41.3l0.1,0c7.5,14.6,21.5,24.3,37.1,26.5    c5.3,0.7,10.8,0.6,16.3-0.4l0.1,0.1c5.7,5.7,12.6,9.7,19.9,12.1c3-1,6-2.2,8.9-3.8l-6.3-22.6c-2.8-9.8-1.8-20.3,2.8-29.4l2.5-5    c2-4,3.4-8.3,4-12.7c1.2-8.6-0.3-17.5-4.6-25.3C251.2,339.3,251.3,325.1,257.1,313z" id="XMLID_75_" fill="#FFE3A9" /><circle cx="315" cy="267" id="XMLID_2089_" r="30" fill="#FFCB5D" /><circle cx="315" cy="147" id="XMLID_2088_" r="30" fill="#FFCB5D" /><circle cx="375" cy="327" id="XMLID_2087_" r="30" fill="#FFCB5D" /><path d="M385.6,207.4c-11.7-11.7-30.7-11.7-42.4,0l42.4,42.4C397.3,238.1,397.3,219.1,385.6,207.4z" id="XMLID_2082_" fill="#C3DD74" /><path d="M298.4,386.6c11.7,11.7,30.7,11.7,42.4,0l-42.4-42.4C286.7,355.9,286.7,374.9,298.4,386.6z" id="XMLID_2081_" fill="#C3DD74" /></g><g id="XMLID_3226_"><g id="XMLID_567_"><path d="M256,512c-68.4,0-132.7-26.6-181-75C26.6,388.7,0,324.4,0,256S26.6,123.3,75,75     C123.3,26.6,187.6,0,256,0s132.7,26.6,181,75c48.4,48.4,75,112.6,75,181s-26.6,132.7-75,181C388.7,485.4,324.4,512,256,512z      M256,10C120.4,10,10,120.4,10,256s110.4,246,246,246s246-110.4,246-246S391.6,10,256,10z" id="XMLID_2495_" fill="#4D241A" /></g><g id="XMLID_1708_"><path d="M256,451v-10c102,0,185-83,185-185c0-95.3-71.4-174.4-166.1-184l1-9.9     c47.8,4.9,92,27.2,124.4,62.9C433,160.8,451,207.4,451,256C451,363.5,363.5,451,256,451z" id="XMLID_2494_" fill="#4D241A" /></g><g id="XMLID_577_"><path d="M235.5,457.1c-13.3,0-26.5-4.8-36.7-14.1c-5.1,0.7-10.3,0.8-15.3,0     c-16.7-2.3-31.3-12.3-39.7-26.8c-21.9-3.8-39.5-20.8-44-42.5c-19.6-10.3-31.2-31.9-28.8-54c-11.7-12-17.2-28.8-14.9-45.5     c0.7-5.1,2.1-10,4.3-14.7c-9.8-19.9-6.4-44.2,8.5-60.6c-0.7-5.1-0.8-10.3,0-15.3c2.3-16.7,12.3-31.3,26.8-39.7     c3.8-21.9,20.8-39.5,42.5-44c10.3-19.6,31.9-31.1,54-28.8c12-11.7,28.8-17.2,45.5-14.9c5.7,0.8,11.1,2.5,16.3,5     c0.6,0.2,1.2,0.4,1.7,0.8c1.6,1.2,2.3,3.2,1.8,5.2L252,89.9c-2.2,8.7-1,17.9,3.4,25.8l2.7,4.9c7.3,13.2,7.5,29.2,0.7,42.7     c-1.8,3.5-2.9,7.2-3.5,11.1c-1.1,7.6,0.4,15.5,4.1,22.2c4.7,8.6,6.6,18.7,5.2,28.4c-0.7,5-2.2,9.7-4.5,14.2     c-1.7,3.4-2.9,7.2-3.5,11.2c-1,7.2,0.5,15.1,4.2,22.3c0,0,0,0.1,0,0.1c6.9,12.8,7.2,28.6,0.8,42.2c0,0,0,0.1-0.1,0.1     c-5.2,10.9-5,23.4,0.5,33.4c4.8,8.7,6.6,18.5,5.2,28.4c-0.7,4.9-2.2,9.7-4.5,14.2l-2.5,5c-4,8-4.9,17.2-2.5,25.8l6.3,22.6     c0.6,2.2-0.4,4.6-2.4,5.7C253.5,454.9,244.5,457.1,235.5,457.1z M200.4,432.7c1.3,0,2.6,0.5,3.5,1.4l0.1,0.1     c13,12.9,32.8,16.5,49.3,9.2l-5.2-18.6c-3.1-11-2-22.8,3.2-33l2.5-5c1.8-3.5,3-7.3,3.5-11.1c1.1-7.7-0.3-15.4-4-22.2     c-7-12.8-7.3-28.6-0.8-42.4c0,0,0-0.1,0.1-0.1c5.1-10.8,4.9-23.3-0.6-33.5c-0.1-0.1-0.1-0.2-0.2-0.3c-4.5-9-6.3-19-5.1-28.1     c0.7-5,2.2-9.8,4.4-14.3c1.8-3.5,2.9-7.3,3.5-11.1c1.1-7.7-0.3-15.4-4.1-22.2c-4.7-8.6-6.6-18.7-5.2-28.4c0.7-5,2.2-9.8,4.5-14.3     c5.3-10.5,5.1-23-0.6-33.3l-2.7-4.9c-5.5-10.1-7.1-21.8-4.3-33l4.6-18.7c-3.4-1.4-6.9-2.3-10.4-2.8c-14.3-2-28.8,3.1-38.7,13.7     c-1.2,1.3-3,1.8-4.7,1.5c-19.3-2.9-38.6,7.4-46.9,25.1c0,0,0,0.1-0.1,0.1c-0.7,1.4-2.1,2.5-3.6,2.7c0,0-0.1,0-0.1,0     c-19.4,3.1-34.6,18.8-37.1,38.3c-0.2,1.7-1.2,3.2-2.7,4c-12.9,6.6-21.8,19.1-23.8,33.4c-0.7,4.8-0.6,9.8,0.4,14.6     c0.3,1.6-0.2,3.3-1.3,4.5l-0.1,0.1c-13.9,13.9-16.9,35.6-7.4,52.8l0,0.1c0.8,1.5,0.8,3.2,0.1,4.7c-2.2,4.4-3.7,9.1-4.4,14     c-2,14.3,3.1,28.8,13.7,38.7c1.3,1.2,1.8,3,1.5,4.7c-2.9,19.3,7.4,38.6,25.1,46.9c0,0,0.1,0,0.1,0.1c1.4,0.7,2.5,2.1,2.7,3.6     c0,0,0,0.1,0,0.1c3.1,19.4,18.8,34.6,38.3,37.1c1.7,0.2,3.2,1.2,4,2.7c6.6,12.9,19.1,21.8,33.4,23.8c4.8,0.7,9.8,0.6,14.6-0.4     C199.8,432.8,200.1,432.7,200.4,432.7z" id="XMLID_2491_" fill="#4D241A" /></g><g id="XMLID_602_"><g id="XMLID_601_"><rect height="10" id="XMLID_2490_" width="10" x="131" y="312" fill="#4D241A" /></g><g id="XMLID_600_"><rect height="10" id="XMLID_2489_" width="10" x="121" y="323" fill="#4D241A" /></g><g id="XMLID_599_"><rect height="10" id="XMLID_2488_" width="10" x="141" y="323" fill="#4D241A" /></g></g><g id="XMLID_604_"><g id="XMLID_607_"><rect height="10" id="XMLID_2487_" width="10" x="201" y="142" fill="#4D241A" /></g><g id="XMLID_606_"><rect height="10" id="XMLID_2483_" width="10" x="211" y="131" fill="#4D241A" /></g><g id="XMLID_605_"><rect height="10" id="XMLID_2481_" width="10" x="191" y="131" fill="#4D241A" /></g></g><g id="XMLID_46_"><path d="M315,302c-19.3,0-35-15.7-35-35s15.7-35,35-35s35,15.7,35,35c0,9.9-4.3,19.5-11.7,26.1     l-6.7-7.5c5.3-4.7,8.3-11.5,8.3-18.6c0-13.8-11.2-25-25-25s-25,11.2-25,25s11.2,25,25,25V302z" id="XMLID_2480_" fill="#4D241A" /></g><g id="XMLID_636_"><path d="M315,182c-19.3,0-35-15.7-35-35s15.7-35,35-35s35,15.7,35,35S334.3,182,315,182z M315,122     c-13.8,0-25,11.2-25,25s11.2,25,25,25s25-11.2,25-25S328.8,122,315,122z" id="XMLID_2476_" fill="#4D241A" /></g><g id="XMLID_635_"><path d="M375,362c-19.3,0-35-15.7-35-35s15.7-35,35-35s35,15.7,35,35S394.3,362,375,362z M375,302     c-13.8,0-25,11.2-25,25s11.2,25,25,25s25-11.2,25-25S388.8,302,375,302z" id="XMLID_2473_" fill="#4D241A" /></g><g id="XMLID_637_"><path d="M385.6,254.8c-1.3,0-2.6-0.5-3.5-1.5l-42.4-42.4c-2-2-2-5.1,0-7.1     c6.6-6.6,15.4-10.3,24.7-10.3c9.3,0,18.1,3.6,24.7,10.3c6.6,6.6,10.3,15.4,10.3,24.7c0,9.3-3.6,18.1-10.3,24.7     C388.2,254.3,386.9,254.8,385.6,254.8z M350.6,207.7l34.7,34.7c2.7-4.1,4.1-8.8,4.1-13.8c0-6.7-2.6-13-7.3-17.7     c-4.7-4.7-11-7.3-17.7-7.3C359.4,203.6,354.7,205.1,350.6,207.7z" id="XMLID_2465_" fill="#4D241A" /></g><g id="XMLID_638_"><path d="M319.6,400.4c-9.3,0-18.1-3.6-24.7-10.3c-6.6-6.6-10.3-15.4-10.3-24.7     c0-9.3,3.6-18.1,10.3-24.7c2-2,5.1-2,7.1,0l42.4,42.4c2,2,2,5.1,0,7.1C337.7,396.8,329,400.4,319.6,400.4z M298.7,351.6     c-2.7,4.1-4.1,8.8-4.1,13.8c0,6.7,2.6,13,7.3,17.7c4.7,4.7,11,7.3,17.7,7.3c5,0,9.7-1.4,13.8-4.1L298.7,351.6z" id="XMLID_2457_" fill="#4D241A" /></g></g></g></svg>