<?xml version="1.0"?><svg enable-background="new 0 0 512 512" id="Flat" version="1.1" viewBox="0 0 512 512" xml:space="preserve" xmlns="http://www.w3.org/2000/svg" xmlns:xlink="http://www.w3.org/1999/xlink"><path d="M389.076,377.033c-4.56-16.88-12.8-32.48-20.96-47.92c-2.96-5.44-6.48-11.44-12.48-12.96  c-6.72-1.76-13.44,3.04-17.92,8.32c-3.12,3.52-7.2,8.88-10.64,14.4c-1.68,2.64-3.2,5.28-4.4,7.76c-1.52,3.2-4.56,5.36-8.08,5.44  c-11.2,0.4-25.84,2.24-42.08,7.92c-13.44,4.72-24.08,10.72-32,16c1.6-8.88,3.12-23.04,0-40c-2.32-12.48-6.4-22.64-10.48-30.4  c8.48-26.24-6.32-50.56-15.84-61.92l3.6-2c8-4.56,11.12-15.68,6.72-24.56l-28.48-58c-1.84-3.68-5.04-6.24-8.64-6.88l-18.08-21.76  c3.68-3.6,5.68-8.72,6.96-13.92c1.12-4.64,1.76-9.52,1.84-14.4c1.12-0.08,2.16-0.4,3.12-1.04c7.04-4.56,12.24-9.44,16-14.32  c6.08-7.76,8.56-15.84,9.04-23.44c10.64,1.12,25.12,6.24,34.24,24.64c25.76,51.6,72,48,72,48s-32-32-48-72  c-11.52-28.88-43.92-24.4-61.04-19.6c-4-12.08-10.96-20.4-10.96-20.4c-32-32-72,0-72,0l-24.72-6.16c-4.24-1.04-8.72,0.96-10.64,4.88  c-4,4.48-0.4,9.44,4.48,13.6c4.64,4,16.32,13.04,29.68,23.52c-0.48,4.8-0.32,9.76-0.64,14.56c-0.48,7.6-2.24,15.2-5.2,22.16  c-0.8,2-1.6,4.48-0.16,6c1.12,1.2,2.88,0.96,4.4,1.44c3.84,1.12,5.04,6,6.4,9.92c4.08,12.24,15.68,21.12,28,22  c-0.16,2-0.4,3.92-0.72,5.92c-2.32,14.88-12.8,26.72-18.56,40.48c-3.52,8.32-7.28,19.28-2.72,28c5.52,10.48,20.32,21.12,30.4,33.36  l-16,7.76h-8l-9.52,3.6c-6.88,2.56-11.28,9.84-11.28,17.6c0,1.52,0.16,2.96,0.48,4.48c2.32,10.56,12.08,16.56,21.2,13.12l3.44-1.28  c2.4-0.88,4.64-2.48,6.4-4.48l3.36-3.84c1.28-1.36,2.72-2.56,4.32-3.44l15.04-8.48l-48.88,98.16c-0.4,0.72-0.64,1.52-0.72,2.32  l-14.08,92.88c-1.6-0.64-2.56-1.12-2.56-1.12c-3.92,0.88-7.12,4-10.4,6.56c-10.48,8.08-24,11.04-36.48,8.24  c-4-0.96-7.84,2.48-8.24,7.04c-0.56,5.68,1.52,12.08,5.36,15.6c6,5.44,14.48,6.16,22.24,5.28c7.68-0.88,15.36-3.2,23.12-2.8  c7.6,0.4,15.04,3.28,22.64,2.32c10.08-1.36,18.96-10.48,21.04-21.68c1.2-6.56-0.08-14.08-4.8-18.24l13.36-73.52  c0.64-3.76,2.56-7.12,5.36-9.52l33.2-28.48l22.56,52.56c6.32,14.72,24.08,20.72,38,12.72l85.84-49.04  c-0.16,0.72-0.08,1.44,0.16,2.16c0.8,2.16,3.36,2.8,5.52,3.68c8.08,3.28,12,12.16,16.32,19.68c4.32,7.6,11.6,15.36,20.24,13.92  c5.92-1.12,10.32-6.64,11.68-12.48C391.796,389.033,390.676,382.873,389.076,377.033z" fill="#EDA992"/><path d="M389.076,377.033c1.6,5.84,2.72,12,1.36,17.92c-1.36,5.84-5.76,11.36-11.68,12.48  c-8.64,1.44-15.92-6.32-20.24-13.92c-4.32-7.52-8.24-16.4-16.32-19.68c-2.16-0.88-4.72-1.52-5.52-3.68  c-0.24-0.72-0.32-1.44-0.16-2.16c0.16-1.44,0.88-2.8,1.52-4.08c4.4-9.36-1.44-21.68-10.96-25.04c3.44-5.52,7.52-10.88,10.64-14.4  c4.48-5.28,11.2-10.08,17.92-8.32c6,1.52,9.52,7.52,12.48,12.96C376.276,344.553,384.516,360.153,389.076,377.033z" fill="#F4EADE"/><path d="M327.076,338.873c9.52,3.36,15.36,15.68,10.96,25.04c-0.64,1.28-1.36,2.64-1.52,4.08l-85.84,49.04  c-13.92,8-31.68,2-38-12.72l-22.56-52.56l18.4-15.76c11.68-10,18.32-20.32,21.52-30.4c4.08,7.76,8.16,17.92,10.48,30.4  c3.12,16.96,1.6,31.12,0,40c7.92-5.28,18.56-11.28,32-16c16.24-5.68,30.88-7.52,42.08-7.92c3.52-0.08,6.56-2.24,8.08-5.44  C323.876,344.153,325.396,341.513,327.076,338.873z" fill="#AA9F9F"/><path d="M312.516,135.993c0,0-46.24,3.6-72-48c-9.12-18.4-23.6-23.52-34.24-24.64c0.4-6.8-0.88-13.28-2.8-18.96  c17.12-4.8,49.52-9.28,61.04,19.6C280.516,103.993,312.516,135.993,312.516,135.993z" fill="#7C4D4D"/><path d="M214.196,243.673c9.52,11.36,24.32,35.68,15.84,61.92c-3.2,10.08-9.84,20.4-21.52,30.4l-18.4,15.76  l-33.2,28.48c-2.8,2.4-4.72,5.76-5.36,9.52l-13.36,73.52c-12.16,5.2-26.24,0.96-31.92-1.2l14.08-92.88c0.08-0.8,0.32-1.6,0.72-2.32  l48.88-98.16L214.196,243.673z" fill="#AA9F9F"/><g><path d="M230.676,306.793c-3.6,10.72-10.88,20.8-21.52,29.92l-18.4,15.76c-0.08,0.08-0.16,0.16-0.24,0.16l-0.4-0.88   l18.4-15.76c11.68-10,18.32-20.32,21.52-30.4C230.276,305.993,230.436,306.393,230.676,306.793z" fill="#F4EADE"/></g><path d="M224.516,217.113c4.4,8.88,1.28,20-6.72,24.56l-3.6,2l-44.24,25.04l-15.04,8.48  c-1.6,0.88-3.04,2.08-4.32,3.44l-3.36,3.84c-1.76,2-4,3.6-6.4,4.48l-3.44,1.28c-9.12,3.44-18.88-2.56-21.2-13.12  c-0.32-1.52-0.48-2.96-0.48-4.48c0-7.76,4.4-15.04,11.28-17.6l9.52-3.6h8l16-7.76l30.32-14.72c4.88-2.32,6.4-9.28,3.12-13.92  l-15.12-21.36c-6.48-9.12-8.32-21.2-5.12-32.24c1.68-5.6,6.32-9.44,11.6-9.44c0.72,0,1.36,0.08,2.08,0.24  c3.6,0.64,6.8,3.2,8.64,6.88L224.516,217.113z" fill="#FFD5C2"/><path d="M203.476,44.393c1.92,5.68,3.2,12.16,2.8,18.96c-0.48,7.6-2.96,15.68-9.04,23.44l-76.72-62.8c0,0,40-32,72,0  C192.516,23.993,199.476,32.313,203.476,44.393z" fill="#EDA992"/><path d="M120.516,23.993l76.72,62.8c-3.76,4.88-8.96,9.76-16,14.32c-0.96,0.64-2,0.96-3.12,1.04  c-2.08,0.4-4.16-0.24-5.92-1.52c-11.92-9.28-34.16-26.4-52.88-40.8c-13.36-10.48-25.04-19.52-29.68-23.52  c-4.88-4.16-8.48-9.12-4.48-13.6c1.92-3.92,6.4-5.92,10.64-4.88L120.516,23.993z" fill="#F4EADE"/><path d="M193.956,215.033c3.28,4.64,1.76,11.6-3.12,13.92l-30.32,14.72c-10.08-12.24-24.88-22.88-30.4-33.36  c-4.56-8.72-0.8-19.68,2.72-28c5.76-13.76,16.24-25.6,18.56-40.48c0.32-2,0.56-3.92,0.72-5.92c0.96,0.08,2,0.16,3.04,0.08  c5.04-0.24,10.16-1.76,13.92-5.28c0.08-0.08,0.16-0.16,0.24-0.24l18.08,21.76c-0.72-0.16-1.36-0.24-2.08-0.24  c-5.28,0-9.92,3.84-11.6,9.44c-3.2,11.04-1.36,23.12,5.12,32.24L193.956,215.033z" fill="#EDA992"/><path d="M172.196,100.633c1.76,1.28,3.84,1.92,5.92,1.52c-0.08,4.88-0.72,9.76-1.84,14.4  c-1.28,5.2-3.28,10.32-6.96,13.92c-0.08,0.08-0.16,0.16-0.24,0.24c-3.76,3.52-8.88,5.04-13.92,5.28c-1.04,0.08-2.08,0-3.04-0.08  c-12.32-0.88-23.92-9.76-28-22c-1.36-3.92-2.56-8.8-6.4-9.92c-1.52-0.48-3.28-0.24-4.4-1.44c-1.44-1.52-0.64-4,0.16-6  c2.96-6.96,4.72-14.56,5.2-22.16c0.32-4.8,0.16-9.76,0.64-14.56C138.036,74.233,160.276,91.353,172.196,100.633z" fill="#FFD5C2"/><path d="M138.196,463.273c4.72,4.16,6,11.68,4.8,18.24c-2.08,11.2-10.96,20.32-21.04,21.68  c-7.6,0.96-15.04-1.92-22.64-2.32c-7.76-0.4-15.44,1.92-23.12,2.8c-7.76,0.88-16.24,0.16-22.24-5.28c-3.84-3.52-5.92-9.92-5.36-15.6  c0.4-4.56,4.24-8,8.24-7.04c12.48,2.8,26-0.16,36.48-8.24c3.28-2.56,6.48-5.68,10.4-6.56c0,0,0.96,0.48,2.56,1.12  C111.956,464.233,126.036,468.473,138.196,463.273z" fill="#F4EADE"/><g><path d="M134.988,79.993c-0.292,0-0.588,0.084-0.847,0.257c-3.697,2.466-7.436,0.025-7.472,0   c-0.698-0.463-1.647-0.279-2.119,0.424c-0.469,0.703-0.278,1.65,0.424,2.119c0.221,0.146,5.497,3.578,10.862,0   c0.701-0.469,0.892-1.416,0.424-2.119C135.964,80.232,135.48,79.993,134.988,79.993z" fill="#7C4D4D"/></g><g><path d="M143.186,117.25c-0.269,0.116-0.507,0.309-0.677,0.571c-2.421,3.727-6.82,2.964-6.863,2.954   c-0.824-0.149-1.623,0.395-1.779,1.227c-0.152,0.831,0.398,1.625,1.227,1.779c0.261,0.047,6.464,1.113,9.977-4.295   c0.459-0.708,0.26-1.653-0.449-2.114C144.176,117.083,143.638,117.055,143.186,117.25z" fill="#EDA992"/></g></svg>