<?xml version="1.0" encoding="UTF-8"?>
<svg xmlns="http://www.w3.org/2000/svg" xmlns:xlink="http://www.w3.org/1999/xlink" version="1.1" width="512" height="512" x="0" y="0" viewBox="0 0 60 60" style="enable-background:new 0 0 512 512" xml:space="preserve" class="">
  <g>
    <path d="M36.715 60a4.476 4.476 0 0 1-4.47-4.47V44.112a.587.587 0 0 0-.186-.428l-3.403-3.167-2.114 4.49a2.611 2.611 0 0 1-.267.445l-7.941 10.625a4.504 4.504 0 0 1-2.978 2.032 4.563 4.563 0 0 1-4.715-6.934l7.33-10.466a.57.57 0 0 0 .083-.176l4.807-16.988a.576.576 0 0 0-.132-.555.636.636 0 0 0-.109-.094l-3.47 7.78a3.937 3.937 0 1 1-7.218-3.143l4.586-10.21a4.128 4.128 0 0 1 1.687-1.742 1.149 1.149 0 0 1 .127-.058l9.483-3.573a2.57 2.57 0 0 1 1.958.054l5.87 2.6a2.592 2.592 0 0 1 1.237 1.155l1.663 3.142a.596.596 0 0 0 .247.245l9.084 4.78a4.1 4.1 0 1 1-3.802 7.264c-.005-.003-5.617-2.99-8.535-4.55a.585.585 0 0 0-.836.353l-1.126 3.844a.587.587 0 0 0 .09.509l6.935 9.5a3.03 3.03 0 0 1 .586 1.796v12.886A4.476 4.476 0 0 1 36.716 60zm-8.38-22.147a.999.999 0 0 1 .681.267l4.405 4.1a2.595 2.595 0 0 1 .824 1.893V55.53a2.47 2.47 0 1 0 4.941 0V42.643a1.044 1.044 0 0 0-.202-.618l-6.935-9.499a2.6 2.6 0 0 1-.393-2.25l1.126-3.844a2.584 2.584 0 0 1 3.698-1.554 6774.58 6774.58 0 0 0 8.527 4.545 2.099 2.099 0 0 0 2.889-1.01 2.104 2.104 0 0 0-.949-2.714l-.004-.002-9.086-4.781a2.58 2.58 0 0 1-1.08-1.077l-1.665-3.144a.581.581 0 0 0-.279-.26l-5.87-2.601a.582.582 0 0 0-.442-.012l-9.412 3.546a2.09 2.09 0 0 0-.794.832L13.76 28.346a1.937 1.937 0 1 0 3.558 1.53l3.769-8.454a1 1 0 0 1 .727-.575 2.586 2.586 0 0 1 2.972 3.244l-4.807 16.988a2.575 2.575 0 0 1-.37.777l-7.307 10.432a2.566 2.566 0 0 0 .65 3.397 2.563 2.563 0 0 0 3.726-.724l7.994-10.703a.57.57 0 0 0 .06-.1l2.698-5.731a.998.998 0 0 1 .715-.556.959.959 0 0 1 .19-.018zm6.667-25.689a6.082 6.082 0 1 1 6.082-6.082 6.09 6.09 0 0 1-6.082 6.082zm0-10.164a4.082 4.082 0 1 0 4.082 4.082A4.086 4.086 0 0 0 35.002 2z" fill="#f4a4a3" opacity="1" data-original="#000000" class=""/>
  </g>
</svg>
