<?xml version="1.0" encoding="iso-8859-1"?>
<!-- Generator: Adobe Illustrator 19.0.0, SVG Export Plug-In . SVG Version: 6.00 Build 0)  -->
<svg version="1.1" id="Capa_1" xmlns="http://www.w3.org/2000/svg" xmlns:xlink="http://www.w3.org/1999/xlink" x="0px" y="0px"
	 viewBox="0 0 512 512" style="enable-background:new 0 0 512 512;" xml:space="preserve">
<g>
	<path style="fill:#FFA426;" d="M440.656,115.787c-2.587-2.587-4.328-5.981-4.855-9.741c-1.063-7.589-4.495-14.472-9.928-19.905
		c-5.431-5.431-12.321-8.868-19.923-9.938c-6.434-0.904-11.802-5.369-13.864-11.531c-2.061-6.161-0.46-12.958,4.134-17.552
		l37.44-37.44c12.898-12.898,33.889-12.894,46.792,0.009l21.874,21.874c12.898,12.898,12.898,33.886,0.001,46.784l-37.44,37.44
		c-4.595,4.595-11.396,6.195-17.557,4.132C444.768,119.058,442.497,117.628,440.656,115.787z"/>
	<path style="fill:#FFA426;" d="M5.02,337.334c-2.201-2.201-3.805-5.003-4.555-8.153c-1.527-6.427,0.776-13.159,5.919-17.305
		c0.238-0.194,27.836-22.961,62.432-74.926c29.248-43.93,63.202-77.023,103.801-101.172c38.438-22.862,83.375-38.47,141.415-49.118
		c8.869-1.627,17.481,3.896,19.701,12.639c2.219,8.741-2.719,17.705-11.291,20.504c-48.426,15.811-88.254,39.103-118.379,69.228
		c-30.405,30.405-53.837,70.661-69.645,119.648c-0.834,2.584-2.271,4.934-4.191,6.854c-41.913,41.913-113.658,27.09-116.691,26.438
		C10.246,341.264,7.309,339.623,5.02,337.334z"/>
</g>
<path style="fill:#FE6A16;" d="M174.664,506.962c-2.282-2.282-3.917-5.205-4.622-8.486c-0.651-3.034-15.475-74.778,26.438-116.691
	c1.92-1.92,4.27-3.356,6.854-4.191c48.987-15.807,89.241-39.239,119.647-69.646c30.127-30.126,53.418-69.955,69.229-118.378
	c2.8-8.572,11.764-13.508,20.504-11.291c8.741,2.217,14.266,10.829,12.639,19.701c-10.648,58.04-26.256,102.976-49.118,141.415
	c-24.148,40.6-57.242,74.553-101.172,103.802l-9.496-14.263l9.496,14.263c-51.965,34.597-74.732,62.194-74.956,62.469
	c-4.163,5.108-10.899,7.395-17.306,5.853C179.659,510.762,176.862,509.158,174.664,506.962z"/>
<path style="fill:#FFDA68;" d="M85.593,426.42c-3.29-3.29-5.101-7.776-5.016-12.428c0.04-2.17,1.197-53.85,21.231-115.845
	c17.491-54.199,43.742-99.067,78.024-133.349c33.974-33.974,78.376-60.072,131.975-77.573c7.001-2.288,14.141-4.423,21.283-6.363
	l18.955-18.955c13.079-13.079,30.484-20.295,49.01-20.318c3.237,0.001,6.485,0.228,9.673,0.677
	c15.025,2.114,28.643,8.906,39.378,19.641c10.74,10.74,17.53,24.359,19.635,39.384c3.051,21.758-4.106,43.148-19.635,58.677
	l-18.955,18.955c-1.94,7.142-4.076,14.283-6.366,21.288c-17.497,53.592-43.598,97.994-77.571,131.968
	c-34.284,34.284-79.15,60.535-133.355,78.028c-61.988,20.031-113.668,21.188-115.838,21.229
	C93.369,431.52,88.883,429.71,85.593,426.42z"/>
<path style="fill:#FE6A16;" d="M502.326,31.561l-10.938-10.938l-65.516,65.516l0,0c5.432,5.432,8.866,12.316,9.928,19.905
	c0.527,3.76,2.269,7.155,4.855,9.74c1.841,1.841,4.112,3.273,6.673,4.13c6.163,2.064,12.963,0.463,17.557-4.132l37.44-37.44
	C515.225,65.447,515.225,44.46,502.326,31.561z"/>
<path style="fill:#FFA426;" d="M431.151,178.923l18.955-18.955c15.529-15.529,22.686-36.919,19.635-58.677
	c-2.106-15.024-8.895-28.643-19.635-39.384l0,0L85.593,426.419v0.001c3.29,3.29,7.776,5.1,12.428,5.016
	c2.17-0.04,53.85-1.197,115.838-21.228c54.205-17.492,99.071-43.744,133.355-78.027c33.975-33.975,60.074-78.377,77.571-131.968
	C427.075,193.207,429.211,186.065,431.151,178.923z"/>
<g>
</g>
<g>
</g>
<g>
</g>
<g>
</g>
<g>
</g>
<g>
</g>
<g>
</g>
<g>
</g>
<g>
</g>
<g>
</g>
<g>
</g>
<g>
</g>
<g>
</g>
<g>
</g>
<g>
</g>
</svg>
