<svg id="Layer_2" enable-background="new 0 0 60 60" height="512" viewBox="0 0 60 60" width="512" xmlns="http://www.w3.org/2000/svg"><g><g><g><g><path d="m51.339 32.247c-3.314 13.255-14.986 21.753-14.986 21.753s-6.301-12.991-2.987-26.246 14.987-21.754 14.987-21.754 6.299 12.992 2.986 26.247z" fill="#c68567"/></g></g><g><g><path d="m36.353 55c-.081 0-.163-.01-.243-.03-.287-.072-.528-.268-.657-.534-.264-.544-6.421-13.472-3.058-26.925 3.363-13.452 14.88-21.964 15.369-22.32.239-.174.543-.234.831-.162.287.072.528.268.657.534.264.543 6.418 13.473 3.056 26.926-3.362 13.453-14.878 21.964-15.367 22.32-.172.125-.379.191-.588.191zm11.601-47.405c-2.841 2.366-10.993 9.901-13.618 20.402s1.022 20.985 2.416 24.409c2.841-2.365 10.992-9.9 13.617-20.401 2.624-10.501-1.021-20.986-2.415-24.41zm3.385 24.652h.01z"/></g></g></g><g><g><g><path d="m46.079 30.932c-3.314 13.255-9.726 23.068-9.726 23.068s-1.04-11.676 2.274-24.931c3.313-13.255 9.726-23.069 9.726-23.069s1.039 11.677-2.274 24.932z" fill="#c68567"/></g></g><g><g><path d="m36.352 55c-.081 0-.162-.01-.243-.03-.413-.104-.716-.457-.753-.881-.043-.484-1.017-11.996 2.3-25.263 3.316-13.265 9.594-22.966 9.86-23.373.233-.356.668-.525 1.08-.423.413.104.716.457.753.881.043.484 1.016 11.998-2.3 25.264-3.317 13.266-9.594 22.966-9.859 23.372-.188.287-.505.453-.838.453zm11.141-45.563c-2.112 3.826-5.708 11.121-7.896 19.875s-2.448 16.882-2.385 21.252c2.112-3.826 5.708-11.121 7.897-19.875 2.187-8.753 2.448-16.882 2.384-21.252zm-1.414 21.495h.01z"/></g></g></g><g><g><g><path d="m8.662 32.247c3.313 13.255 14.986 21.753 14.986 21.753s6.3-12.991 2.987-26.246c-3.314-13.255-14.987-21.754-14.987-21.754s-6.3 12.992-2.986 26.247z" fill="#c68567"/></g></g><g><g><path d="m23.647 55c-.209 0-.416-.066-.588-.191-.489-.356-12.005-8.867-15.368-22.319-3.363-13.453 2.793-26.382 3.057-26.926.129-.266.37-.462.657-.534.286-.072.592-.013.831.162.489.356 12.006 8.868 15.369 22.32 3.362 13.453-2.794 26.381-3.058 26.925-.129.266-.37.462-.657.534-.08.019-.162.029-.243.029zm-11.601-47.406c-1.393 3.423-5.04 13.909-2.415 24.411 2.625 10.501 10.776 18.036 13.617 20.401 1.394-3.424 5.04-13.908 2.416-24.409-2.629-10.519-10.777-18.042-13.618-20.403z"/></g></g></g><g><g><g><path d="m13.922 30.932c3.313 13.255 9.726 23.068 9.726 23.068s1.04-11.676-2.274-24.931-9.726-23.069-9.726-23.069-1.04 11.677 2.274 24.932z" fill="#c68567"/></g></g><g><g><path d="m23.648 55c-.332 0-.649-.166-.837-.453-.266-.406-6.543-10.106-9.859-23.372s-2.343-24.78-2.3-25.264c.038-.424.34-.778.753-.881.414-.103.847.067 1.08.423.266.406 6.542 10.107 9.859 23.373 3.316 13.267 2.343 24.779 2.3 25.263-.038.424-.34.778-.753.881-.081.02-.163.03-.243.03zm-11.141-45.565c-.063 4.37.196 12.5 2.385 21.255 2.188 8.754 5.784 16.049 7.897 19.875.063-4.37-.196-12.498-2.385-21.252-2.192-8.766-5.785-16.056-7.897-19.878z"/></g></g></g></g></svg>