<svg clip-rule="evenodd" fill-rule="evenodd" height="512" stroke-linejoin="round" stroke-miterlimit="2" viewBox="0 0 32 32" width="512" xmlns="http://www.w3.org/2000/svg"><g transform="translate(-178 -94)"><path d="m183.426 110.902c-.008-.017-.028-.062-.037-.107-.124-.623-.569-3.587-.547-3.844.239-2.793 2.052-3.639 3.196-4.273 1.241-.688 5.909-2.563 7.199-3.028.903-.326 2.454-.961 4.213-1.243 1.75-.281 3.709-.215 5.44.859 1.063.661 1.771 1.885 2.324 3.336.264.692.749 2.179.724 3.618-.017.944-.252 1.868-.922 2.528-.003.001-.005.002-.008.002-.144.033-.881.171-1.997.369-3.973.707-12.741 2.191-16.649 2.505-.68.055-1.212.074-1.544.047-.134-.01-.234-.028-.296-.055-.406-.182-.78-.415-1.096-.714z" fill="#c46f17"/><path d="m202.034 98.216c.391.151.776.34 1.152.573 1.157.719 1.951 2.034 2.553 3.613.279.732.786 2.305.76 3.828-.019 1.099-.317 2.167-1.102 2.931-.012.012-.086.096-.264.137-.145.033-.893.173-2.024.374-3.985.71-12.781 2.196-16.702 2.512-.719.058-1.282.075-1.634.047-.219-.018-.38-.058-.48-.103-.478-.214-.915-.491-1.283-.846-.017-.017-.123-.134-.172-.378-.128-.648-.578-3.733-.555-4.001.023-.271.059-.526.107-.765 1.333.836 3.255.918 4.589.912 1.258-.007 6.768-.423 8.158-.729 2.218-.489 5.325-1.538 6.305-2.351.785-.651 1.094-1.605 1.133-2.601.046-1.175-.285-2.402-.541-3.153z" fill="#a45d13"/><path d="m182.765 106.444c.36-.034.733.129 1.039.495.325.388.587 1.035.657 1.79.07.754-.068 1.438-.316 1.88-.234.416-.57.644-.93.678-.36.033-.733-.129-1.039-.495-.325-.388-.587-1.035-.657-1.79-.071-.755.068-1.439.316-1.88.233-.416.57-.645.93-.678z" fill="#ffda26"/><path d="m182.838 107.229c.131-.013.249.082.361.215.245.293.424.788.477 1.357.053.57-.032 1.089-.218 1.422-.086.152-.184.267-.316.279s-.25-.082-.362-.216c-.245-.293-.424-.788-.477-1.357s.032-1.089.219-1.422c.086-.152.184-.266.316-.278z" fill="#efc700"/><path d="m182.657 120.178c-.006-.015-.014-.04-.018-.061-.133-.669-.615-3.85-.591-4.127.253-2.958 2.181-3.849 3.392-4.52 1.342-.744 6.386-2.769 7.78-3.272.973-.351 2.643-1.036 4.539-1.34 1.866-.3 3.955-.233 5.799.912 1.13.701 1.876 2.005 2.463 3.547.291.761.833 2.425.771 4.006-.04 1.017-.33 2.002-1.131 2.666-1.15.955-4.808 2.156-7.41 2.729-1.675.369-8.312.867-9.827.875-1.712.008-4.302-.052-5.767-1.415z" fill="#c46f17"/><path d="m201.021 106.113c.992.154 1.978.483 2.908 1.06 1.247.774 2.101 2.192 2.749 3.893.311.815.883 2.594.817 4.284-.048 1.218-.426 2.385-1.385 3.18-1.198.995-4.997 2.278-7.708 2.875-1.7.374-8.436.883-9.974.891-1.882.009-4.72-.127-6.305-1.655-.017-.017-.124-.137-.174-.387-.106-.537-.417-2.617-.546-3.692.046.166.12.248.132.261 1.351 1.303 3.77 1.418 5.374 1.41 1.31-.006 7.052-.44 8.5-.759 2.31-.509 5.548-1.602 6.569-2.45.817-.678 1.139-1.672 1.18-2.71.057-1.44-.431-2.957-.696-3.651-.38-.998-.843-1.881-1.441-2.55z" fill="#a45d13"/><path d="m181.832 115.471c.378-.035.769.138 1.09.522.348.415.628 1.108.703 1.916.075.807-.073 1.54-.338 2.013-.245.436-.597.678-.975.713-.377.035-.768-.137-1.089-.522-.348-.415-.628-1.108-.703-1.916-.075-.807.072-1.54.337-2.012.245-.437.598-.679.975-.714z" fill="#ffda26"/><path d="m181.905 116.256c.15-.014.285.09.413.242.268.321.464.861.522 1.484.058.622-.036 1.19-.24 1.554-.097.173-.211.3-.361.314-.149.014-.285-.09-.412-.242-.268-.32-.464-.861-.522-1.484-.058-.622.035-1.19.24-1.554.097-.173.211-.3.36-.314z" fill="#efc700"/><path d="m182.128 120.636c-.318-.027-.636-.201-.905-.523-.348-.415-.628-1.108-.703-1.916-.075-.807.072-1.54.337-2.012.144-.256.323-.444.523-.564.253-2.018 1.222-3.132 2.227-3.865-.212-.139-.411-.296-.593-.471-.295-.032-.589-.195-.838-.493-.325-.388-.587-1.035-.657-1.79-.071-.755.068-1.439.316-1.88.132-.235.297-.411.48-.525.362-2.827 2.237-3.737 3.45-4.41 1.256-.696 5.977-2.595 7.281-3.065.925-.334 2.514-.98 4.315-1.27 1.875-.301 3.971-.213 5.825.937 1.157.719 1.951 2.034 2.553 3.613.038.101.081.218.126.348.004.01.007.02.011.031.281.819.646 2.152.623 3.449-.017.986-.259 1.947-.875 2.686.408.632.753 1.36 1.054 2.15.042.109.088.235.137.376.003.011.007.022.011.032.314.917.726 2.429.669 3.876-.048 1.218-.426 2.385-1.385 3.18-1.198.995-4.997 2.278-7.708 2.875-1.7.374-8.436.883-9.974.891-1.319.006-3.108-.058-4.606-.624-.066-.012-.131-.037-.188-.075-.566-.234-1.084-.544-1.511-.956zm.269-5.062c.186.087.364.226.525.419.348.415.628 1.108.703 1.916.075.807-.073 1.54-.338 2.013-.052.093-.11.178-.171.254.215.162.45.301.7.418 1.896-1.612 3.21-1.33 4.956-1.553 1.629-.208 3.217-.558 4.417-.088.257.101.384.391.283.648-.1.257-.391.384-.648.283-.5-.196-1.083-.202-1.709-.148-.702.06-1.454.2-2.216.297-1.404.179-2.509-.053-3.954.952 1.19.295 2.483.316 3.478.311.717-.004 2.589-.118 4.533-.276 1.31-1.195 2.577-2.014 4.304-2.479.266-.071.541.087.612.353.072.267-.086.541-.352.613-1.089.293-1.974.746-2.811 1.36 1.505-.142 2.846-.3 3.478-.439 2.556-.563 6.155-1.73 7.284-2.667.734-.609.988-1.518 1.024-2.45.042-1.057-.197-2.152-.441-2.972-.988.539-2.487 1.463-2.988 2.069-.414.503-.79 1.173-1.197 1.811-.454.713-.948 1.385-1.538 1.812-.223.163-.536.113-.698-.111-.162-.223-.113-.536.111-.698.497-.361.899-.94 1.282-1.54.429-.674.831-1.378 1.269-1.909.579-.703 2.36-1.813 3.432-2.393-.559-1.456-1.256-2.694-2.325-3.358-1.78-1.104-3.796-1.16-5.596-.871-1.873.301-3.524.979-4.486 1.326-1.386.5-6.402 2.513-7.736 3.252-.267.148-.572.307-.885.498 1.667.595 3.059.323 4.357-.117 1.07-.363 2.081-.833 3.118-1.092.268-.066.539.097.606.365.067.267-.096.539-.364.606-1.011.251-1.996.714-3.039 1.068-1.647.559-3.427.862-5.618-.132-.626.58-1.166 1.397-1.362 2.649zm1.611-4.757c.173.127.359.238.556.334.187-.106.367-.203.535-.296 1.36-.754 6.47-2.809 7.882-3.318.278-.101.611-.227.989-.364-.407-.158-.781-.332-1.26-.353-1.047-.046-1.803.337-2.617.573-.959.277-1.982.401-3.471-.279-.251-.115-.362-.412-.247-.663.114-.251.411-.361.662-.247 1.447.661 2.351.377 3.273.072.737-.245 1.486-.497 2.444-.455.547.024.988.193 1.45.372.549.212 1.14.432 2.131.242.421-.105.861-.199 1.313-.271 1.015-.164 2.09-.221 3.162-.081.269-.434.535-.852.817-1.193.531-.645 2.154-1.66 3.15-2.202-.381-.987-.832-1.863-1.441-2.495-1 .231-2.016.261-3.003.375-.964.111-1.899.304-2.743.937-.22.166-.534.121-.7-.099-.166-.221-.121-.535.1-.7.995-.748 2.091-1 3.229-1.131.65-.075 1.314-.109 1.977-.195-1.515-.762-3.177-.781-4.676-.54-1.727.277-3.248.902-4.134 1.222-1.279.461-5.905 2.318-7.136 3-.226.125-.482.258-.746.416 1.495.51 2.749.262 3.92-.135.988-.335 1.923-.77 2.881-1.009.268-.066.54.097.606.365.067.267-.096.539-.364.606-.932.232-1.84.659-2.802.985-1.523.517-3.168.798-5.19-.113-.56.526-1.042 1.261-1.223 2.378.167.083.327.21.472.384.325.388.587 1.035.657 1.79.07.754-.068 1.438-.316 1.88-.043.076-.088.145-.137.208zm20.99-2.73c.362-.537.489-1.202.501-1.874.016-.915-.185-1.849-.396-2.566-.908.499-2.252 1.329-2.704 1.879-.185.224-.362.485-.537.761.706.186 1.401.472 2.067.886.394.244.748.553 1.069.914zm-10.768-3.33c-.275.027-.52-.175-.546-.449-.027-.275.175-.52.45-.546 1.724-.167 2.942-.835 4.349-1.779.229-.153.54-.092.693.137.154.229.093.54-.136.694-1.553 1.042-2.906 1.759-4.81 1.943zm-12.305 11.71c-.05.004-.083.048-.121.094-.058.073-.107.165-.149.271-.132.335-.185.786-.139 1.273.045.487.18.92.371 1.225.061.096.126.178.197.239.045.038.086.075.136.07.049-.004.083-.048.12-.094.059-.073.108-.165.15-.271.132-.335.184-.786.139-1.273s-.18-.92-.371-1.225c-.061-.096-.126-.178-.197-.238-.045-.039-.087-.076-.136-.071zm.932-9.028c-.036.004-.057.04-.084.074-.053.064-.096.146-.133.24-.12.304-.167.714-.126 1.156.041.443.164.838.337 1.114.054.086.112.158.175.212.032.028.06.06.096.056.037-.003.058-.039.085-.073.052-.064.095-.146.132-.24.12-.304.168-.714.126-1.157-.041-.443-.163-.837-.337-1.114-.053-.085-.111-.158-.174-.211-.033-.028-.06-.06-.097-.057zm11.388 6.122c-.275.027-.52-.175-.546-.449-.027-.275.175-.52.45-.546 1.876-.181 3.2-.907 4.73-1.934.229-.154.54-.092.694.137s.093.54-.137.694c-1.676 1.125-3.136 1.9-5.191 2.098zm4.395.5c.152-.23.463-.293.693-.141.23.153.293.464.14.694-.369.556-1.154.88-2.195 1.012-1.305.166-3.043.078-4.623.169-.914.053-1.627.326-2.331.549-1.212.382-2.399.642-4.3-.226-.251-.115-.361-.412-.247-.663.115-.251.412-.362.663-.247 1.584.724 2.573.501 3.583.182.777-.245 1.566-.535 2.575-.593 1.556-.09 3.269 0 4.554-.163.384-.048.726-.119 1.005-.232.21-.084.381-.187.483-.341zm-5.055-1.655c-.203.187-.519.175-.707-.027-.187-.203-.175-.519.027-.707 1.253-1.16 2.448-1.95 4.094-2.393.266-.072.541.086.613.353.071.266-.087.541-.353.613-1.48.398-2.548 1.118-3.674 2.161z" fill="#272a3b"/></g></svg>