<svg id="Слой_1" height="512" viewBox="0 0 512 512" width="512" xmlns="http://www.w3.org/2000/svg" data-name="Слой 1"><path d="m200.24 437.26s-19.41.82-28.16 2.19-14.76 6.29-18.59 7.66-13.4 0-12 12.85 1.37 21.87 17.5 29.53 30.35-.27 41.28-4.65 18.86-1.09 35-5.74 20.23-15.31 44.56-17.22 51.95-6.1 55 3.1 2.19 16 17.22 21.23 29.25-6 38.55-9.57 25.7.82 28.71-20 5.47-24.88 13.67-36.36-6.29-23.51 5.19-30.89 26-15.86 36.64-44.29 13.31-38.28 19.87-58.23 4.37-26.52 0-38.28-4.65-23.24-1.09-39.1 3.27-24.68-6.56-29.35c-17.68-8.38-2.88-25-3.74-38.46-.68-10.66-8.07-19.27-18.68-18.41-13.62 1.11-15.86 3.83-31.71 1.64s-27.07 5.19-33.36 23-10.66 19.69-4.37 37.46 4.1 20.32-.82 27.7-19 17.42-9.07 33.9c11.3 18.8 18.25 27.48 14.15 43.47-2.26 8.8 3.67 23.24 9.68 29 0 0-12.85-4.92-20.78 4.1s-31.76 7.93-40.78.14c-6.08-5.25-14.76-14.15-6.15-32.4 10.42-22.08 9-28.16 9.3-49.76s1.37-32.81 7.93-47 8.37-16.26 5.37-35.95 4.65-27.61 7.93-43.47.82-27.34-10.39-30.62-20.78-9.84-28.71-21.6-27.83-11.48-34.71 4.38-12.85 19.41-20.23 21.6-7.37 7.68-9.57 14.49c-5.13 15.88-21.74 16.09-16 35.77 5.2 17.83 10 34.72-2.05 40.19s-11.89 15.79-5.74 25.84a61.93 61.93 0 0 1 7.79 18.66s-15.38-7-25.63 2.46-17.84 5.54-22.56-.41-15.79-8-21.53 1.85-7.79 36.09-20.3 37.73-5.74-8.2-10.66-25.22-8.61-24.54-3.9-38.89 12.92-13.28 18.86-21.69 2.67-11.69 2.46-27.27 6.36-28.3 16.4-42.65 4.72-24.2 3.28-37.93-3.81-49.92-29.74-64.13-49.49 7.93-59.33 17.5-20.27 6.84-29.84 29.52-25.7 13.67-23.24 49.49 9.3 41 11.21 60.42 1.64 25.52-4.1 26.06-12 1.37-15 10.66 6 20 12.58 25.15a38.41 38.41 0 0 1 13.67 22.42c2.19 9.84 5.74 19.14 18.32 29.53s26.79 23.51 31.3 35.82 5.74 23 18.86 32 9 18.45 2.46 15.58-24.2-2.87-34-17.63-8.61-23.38-25-41.83-28.8-23.35-44.38-10.67-27.07 37.72-12.71 57.82 29.12 21.74 32 41-5.8 31.18 22.54 36.1 45.52 4.51 65.62.41 53.31 2.05 60.28 10.25z" fill="#ffc838"/><path d="m423.76 373.1c-31.27 6.79-79.76-4.1-106.94 55.09s26.5 88.9 64.25 79 59.69-46.69 84.45-82.16-2.06-60.54-41.76-51.93z" fill="#ffe850"/><path d="m381.07 507.16c22.5-5.93 39.39-21.38 54.6-40.41-.07 0-59.89 41.51-94.72 4.28s24.52-89 24.53-89c-18.28 5.94-35.85 18.26-48.66 46.21-27.13 59.17 26.5 88.86 64.25 78.92z" fill="#ffc838"/><path d="m379.59 310.85c-28.35 14.86-78 17.23-88.45 81.54s49.19 78.66 82.93 59 45.13-60.89 59.57-101.66-18.08-57.73-54.05-38.88z" fill="#ffe850"/><path d="m374.07 451.43c20.12-11.7 32.29-31.09 41.89-53.48-.05.06-46.7 55.94-90.18 29.31s0-92.36 0-92.36c-16 10.58-29.7 27.13-34.62 57.48-10.43 64.32 49.17 78.67 82.91 59.05z" fill="#ffc838"/><path d="m266.8 378c-8 0-13.81-3.63-15.78-10-2.64-8.54 2.52-19.24 11.75-24.37 13.92-7.74 22.34-21.25 22.43-21.38 4.62-7.33 3.6-13.64 2.58-16.74-1.2-3.66-3.63-6.59-6.34-7.65-8-3.16-15.81-13.27-13.89-28 1.5-11.54.49-19.77-3.61-29.34-3.67-8.57-13-14.06-13.12-14.12a3 3 0 0 1 3-5.13c.45.26 11.15 6.56 15.59 16.91 4.51 10.51 5.68 19.91 4 32.45-1.51 11.59 4.21 19.4 10.17 21.74 4.38 1.72 8 6 9.8 11.32 2.29 7 1.13 14.89-3.18 21.73-.36.58-9.31 14.95-24.58 23.43-7.56 4.2-10.54 12.32-9 17.43 1.33 4.29 5.65 6.33 12.17 5.73a3 3 0 0 1 .54 5.9c-.81.09-1.68.09-2.53.09z"/><path d="m238.46 457.63a8.88 8.88 0 0 1 -2.14-.26 11.5 11.5 0 0 1 -8-8.21 3 3 0 0 1 5.8-1.22 5.7 5.7 0 0 0 3.65 3.68c.46.12 1.87.47 3.68-1.69a4.4 4.4 0 0 0 1.29-3.34 6.24 6.24 0 0 0 -2.39-3.62 3 3 0 0 1 3.44-4.83c.43.3 4.24 3.11 4.83 7.66a10.11 10.11 0 0 1 -2.63 7.94c-2.63 3.11-5.41 3.89-7.53 3.89z"/><path d="m97.87 74a2.94 2.94 0 0 1 -1.16-.24c-.49-.21-4.79-2.16-6.32-6.49a10.11 10.11 0 0 1 .91-8.31c2.66-5 6.56-5.65 8.7-5.57a11.5 11.5 0 0 1 9.55 6.36 3 3 0 1 1 -5.42 2.4 5.7 5.7 0 0 0 -4.34-2.84c-.47 0-1.93-.07-3.25 2.42a4.4 4.4 0 0 0 -.54 3.52 6.23 6.23 0 0 0 3.09 3 3 3 0 0 1 -1.22 5.75z"/><path d="m235.12 258.18a3 3 0 0 1 -2.52-1.4 11.81 11.81 0 0 1 .19-12.43c2.28-3.41 6.14-4.95 10.58-4.22 3.59.59 6 2.11 7.28 4.51a8.68 8.68 0 0 1 -.07 7.35 3 3 0 0 1 -5.34-2.58 2.8 2.8 0 0 0 .13-2.06c-.33-.61-1.41-1.11-3-1.36-2.14-.35-3.71.21-4.68 1.66a5.86 5.86 0 0 0 -.09 6 3 3 0 0 1 -2.52 4.53z"/><path d="m343.7 123.31a9.49 9.49 0 0 1 -6.9-3.39 3 3 0 0 1 4.4-4c1.1 1.21 2.31 1.61 2.95 1.36s1.58-1.72 1.59-4.85c0-1.13-.17-2.62-1-3.28-1.07-.82-3.11-.53-3.75-.36a3 3 0 0 1 -1.58-5.71c.53-.15 5.31-1.38 8.91 1.35 1.55 1.18 3.39 3.52 3.38 8 0 7.23-3.39 9.6-5.39 10.37a7.14 7.14 0 0 1 -2.61.51z"/><path d="m264.07 160.4a22.6 22.6 0 0 1 -8.55-1.66 3 3 0 0 1 2.42-5.42c.33.15 7.57 3.21 14-1.26 7.6-5.26 26.05-13 47-8.46a3 3 0 0 1 -1.25 5.8c-19-4.09-36 3.14-42.39 7.54a19.5 19.5 0 0 1 -11.23 3.46z"/><path d="m340.29 155.21a3 3 0 0 1 -1-.17l-8.61-3.04a3 3 0 1 1 2-5.58l8.61 3.08a3 3 0 0 1 -1 5.76z"/><path d="m278.16 209.86a3 3 0 0 1 -1.59-5.47c18.51-11.74 38.63-6.57 52-3.15 2.28.59 4.43 1.14 6.3 1.54 11.69 2.48 18.39.14 18.46.12a3 3 0 0 1 2.07 5.56c-.33.12-8.22 3-21.76.13-2-.42-4.2-1-6.55-1.59-13.07-3.36-31-8-47.3 2.41a3 3 0 0 1 -1.63.45z"/><path d="m279.11 109.6a68.61 68.61 0 0 1 -12.25-1 3 3 0 0 1 1.15-5.82c.15 0 14.8 2.82 27.8-1.54a3 3 0 0 1 1.89 5.62 59.18 59.18 0 0 1 -18.59 2.74z"/><path d="m293.36 261.15a55.68 55.68 0 0 1 -24-5.17 3 3 0 0 1 2.75-5.26 52 52 0 0 0 26.53 4.28 3 3 0 0 1 .59 5.9c-2.03.16-3.99.25-5.87.25z"/><path d="m312.33 258.74a3 3 0 0 1 -.69-5.85l10.12-2.42a3 3 0 0 1 1.38 5.77l-10.14 2.41a3 3 0 0 1 -.67.09z"/><path d="m186.84 83.63c-5.23 0-15.69-1.39-26.66-10.77a115.5 115.5 0 0 1 -10.18-9.86c-1-1.07-2-2.09-2.89-3a3 3 0 0 1 4.2-4.19c1 1 2 2.06 3 3.17a110.44 110.44 0 0 0 9.69 9.37c13 11.12 24.73 9.28 25.22 9.2a3 3 0 0 1 1 5.84 20.82 20.82 0 0 1 -3.38.24z"/><path d="m141.18 53.91a3 3 0 0 1 -1.44-.37l-5.54-3.08a3 3 0 0 1 2.88-5.18l5.54 3.08a3 3 0 0 1 -1.44 5.56z"/><path d="m117.4 124.72h-.2c-13.35-.91-22-5.25-32.85-10.76-2.89-1.46-5.88-3-9.23-4.56-14.82-7-27.37-2.5-27.49-2.45a3 3 0 1 1 -2.07-5.56c.61-.23 15-5.45 32.11 2.65 3.41 1.62 6.43 3.15 9.36 4.62 10.7 5.4 18.43 9.31 30.58 10.13a3 3 0 0 1 -.2 5.92z"/><path d="m146.93 127.18a3 3 0 0 1 -1.48-.4 12.78 12.78 0 0 0 -10.76-1.21 3 3 0 0 1 -2.34-5.45 18.72 18.72 0 0 1 16.06 1.52 3 3 0 0 1 -1.48 5.53z"/><path d="m165.36 184.19a3 3 0 0 1 -2.79-2c-.22-.61-5.44-14.05-28-14.3a93.39 93.39 0 0 0 -20.4 1.86c-7.92 1.46-13.64 2.51-28-2a3 3 0 1 1 1.77-5.66c13 4.07 17.83 3.17 25.18 1.82a100.71 100.71 0 0 1 21.54-2c26.92.29 33.25 17.52 33.51 18.25a3 3 0 0 1 -2.8 3.94z"/><path d="m64.3 249.48a3 3 0 0 1 -2.65-4.28 29.51 29.51 0 0 1 13.47-12.11 3 3 0 1 1 2.52 5.37 24 24 0 0 0 -10.64 9.4 3 3 0 0 1 -2.7 1.62z"/><path d="m87.15 234.09h-.41l.63-5.9a.8.8 0 0 0 -.22 0s3.78-.18 14.16-6.85c12.36-7.94 23.09-6.58 28.39-5.07a3 3 0 1 1 -1.63 5.7c-4.33-1.24-13.16-2.32-23.56 4.36-10.86 6.94-15.7 7.76-17.36 7.76z"/><path d="m101.93 298.6a3 3 0 0 1 -.95-5.78c.13 0 13.24-4.58 18.75-14.48a3 3 0 1 1 5.18 2.88c-6.63 11.94-21.41 17-22 17.22a3 3 0 0 1 -.98.16z"/><path d="m39.48 326.77a3 3 0 0 1 -.71-5.85c4.31-1.06 15-4.44 21.29-13 6.44-8.75 12.39-9 13.05-9v5.93h.1s-3.78.34-8.38 6.59c-7.43 10.08-19.71 14-24.64 15.2a3 3 0 0 1 -.71.13z"/><path d="m47.94 382.32h-.3a3 3 0 0 1 -2.64-3.26c0-.27.73-6.67 6.61-13.46a3 3 0 0 1 4.48 3.88c-4.59 5.29-5.19 10.12-5.19 10.17a3 3 0 0 1 -2.96 2.67z"/><path d="m63.26 360.46a3 3 0 0 1 -2.36-4.76 37.65 37.65 0 0 1 15.9-11.24 3 3 0 0 1 2.05 5.54 31.75 31.75 0 0 0 -13.22 9.26 3 3 0 0 1 -2.37 1.2z"/><path d="m105.1 398.4a3 3 0 0 1 -2.3-4.84c4.52-5.54 4.59-9.14 4.67-13.69a29.11 29.11 0 0 1 1.69-10.65c3.82-10 9.08-13.95 9.3-14.11a3 3 0 0 1 3.53 4.76c-.12.09-4.18 3.32-7.3 11.47a23.52 23.52 0 0 0 -1.3 8.64c-.09 4.78-.19 10.19-6 17.33a3 3 0 0 1 -2.29 1.09z"/><path d="m95.53 417.26h-.17a3 3 0 0 1 -2.8-3.13 15.78 15.78 0 0 1 4.14-9.86 3 3 0 0 1 4.21 4.18 10.22 10.22 0 0 0 -2.43 6 3 3 0 0 1 -2.95 2.81z"/><path d="m480.62 158.81a3 3 0 0 1 -2.5-1.37c-.24-.36-5.19-7.57-19.11-7.57a3 3 0 1 1 0-5.93c17.43 0 23.85 9.9 24.11 10.33a3 3 0 0 1 -2.51 4.54z"/><path d="m445.75 187.06a3 3 0 0 1 -1.67-.52c-8.78-6-14.69-6.54-26.93-5-13.57 1.73-25.68-4-26.19-4.26a3 3 0 0 1 2.57-5.34c.11.05 11.09 5.23 22.87 3.72 13-1.66 20.59-1.2 31 6a3 3 0 0 1 -1.68 5.41z"/><path d="m468.1 195.71c-5.28 0-11.64-3.09-12.45-3.5a3 3 0 1 1 2.65-5.3c3 1.5 8.38 3.35 10.85 2.77a3 3 0 1 1 1.36 5.77 10.52 10.52 0 0 1 -2.41.26z"/><path d="m433.37 238.63a48.71 48.71 0 0 1 -17.37-3.36 3 3 0 1 1 2.05-5.56c8.74 3.22 19.74 5.9 39.71-3.2 15.42-7 34.29 4.62 35.08 5.12a3 3 0 0 1 -3.15 5c-.27-.17-17-10.42-29.48-4.75-10.88 4.99-19.55 6.75-26.84 6.75z"/><path d="m399.14 275.79a3 3 0 0 1 -1.32-5.62c.55-.27 13.73-6.67 27.62-1.64a3 3 0 1 1 -2 5.58c-11.53-4.17-22.85 1.33-23 1.38a3 3 0 0 1 -1.3.3z"/><path d="m464.07 282.92a87.76 87.76 0 0 1 -29.52-5 3 3 0 0 1 2.17-5.52 83.94 83.94 0 0 0 35.51 4.19 3 3 0 1 1 .64 5.9 81.84 81.84 0 0 1 -8.8.43z"/><path d="m258.25 318.42a100.54 100.54 0 0 1 -12.7-.92 73.94 73.94 0 0 0 -24.84.47 3 3 0 0 1 -1-5.84 79.93 79.93 0 0 1 26.55-.52 83.35 83.35 0 0 0 19.88.49c17.62-1.67 20.4-10.57 20.51-11a3 3 0 0 1 3.63-2.06 2.94 2.94 0 0 1 2.1 3.57c-.14.54-3.63 13.26-25.69 15.34-3.17.35-5.94.47-8.44.47z"/><path d="m187.39 326.77a3 3 0 0 1 -1.63-5.44 39.23 39.23 0 0 1 19.67-6.23 3 3 0 0 1 0 5.93 33.75 33.75 0 0 0 -16.43 5.25 3 3 0 0 1 -1.61.49z"/><path d="m260.36 351.9a3 3 0 0 1 -2.43-1.26c-.24-.23-2.35-1.94-9.49-1.74a3 3 0 1 1 -.16-5.93c11-.3 14 3.35 14.65 4.48a3 3 0 0 1 -2.57 4.44z"/><path d="m180.55 374.36a3 3 0 0 1 -.34-5.91c.18 0 18.38-2.25 29.54-12.15 12.68-11.24 26.18-11.81 26.75-11.83a2.93 2.93 0 0 1 3.06 2.87 3 3 0 0 1 -2.86 3.06 40.83 40.83 0 0 0 -23 10.34c-12.58 11.15-32 13.51-32.79 13.6z"/><path d="m172.93 495.62a35 35 0 0 1 -15.24-3.46c-16.73-7.94-17.76-18.06-19-29.76l-.22-2.13c-1.4-13.2 7.52-14.75 11.81-15.49a15.78 15.78 0 0 0 2.17-.47 31.51 31.51 0 0 0 3.87-1.94c3.7-2 8.76-4.83 15.26-5.84 4.89-.76 12.87-1.35 19.15-1.73-12.09-4.89-34.91-8-50.22-4.88-21.62 4.42-39.7 4.31-66.72-.39-22.89-4-24.13-12.68-24.26-26.56a84.75 84.75 0 0 0 -.72-12c-1.56-10.46-6.9-15.13-14.31-21.59-5.25-4.58-11.19-9.78-17.16-18.13-15-20.95-4.34-47.5 13.25-61.85 19.67-16 34.87-4.2 48.38 11 10.42 11.6 14.03 19.6 17.45 27.28a93.52 93.52 0 0 0 7.86 14.84c6.72 10.14 17.72 12.68 25.64 14.48a43.58 43.58 0 0 1 7.13 2c.33.15 1.46.57 1.82-.07.69-1.23-.16-5.55-7.14-10.35-11.57-8-14.59-17.21-17.79-27-.68-2.09-1.39-4.24-2.18-6.42-4.44-12.13-19.48-25.53-30.41-34.55-12.61-10.42-16.85-20-19.32-31.18a35.46 35.46 0 0 0 -12.63-20.64c-8.35-6.61-16.91-18-13.56-28.39 3.69-11.38 12-12.18 17.58-12.7 1-.09 1.23-.39 1.36-.55 1.87-2.27 1.06-12.25.07-22.27a98 98 0 0 0 -4-19.09c-2.67-9.3-5.69-19.83-7.17-41.42-1.68-23.67 4.88-29.46 11.82-35.59 4-3.57 8.22-7.26 11.59-15.25 6.84-16.21 14.19-20.27 21.3-24.2a39.63 39.63 0 0 0 9.17-6.33c9.43-9.16 34.47-33.5 62.82-18 26.11 14.34 29.62 49.39 31.12 64.36l.21 2.09c.31 2.93.8 5.72 1.28 8.42 1.77 9.94 3.44 19.34-5.08 31.53-9.67 13.81-16.07 26-15.88 40.92.06 4.62.41 8.19.69 11.06.68 7 1.09 11.21-3.69 18a30.45 30.45 0 0 1 -8.2 7.59c-4.11 2.89-7.66 5.38-10.26 13.31-3.79 11.53-1.86 17.93 2 30.69.61 2 1.25 4.15 1.92 6.46a66.17 66.17 0 0 1 2.34 16.23c.14 2.93.27 6 1.06 6.63.19.16 1 .64 4 .25 6.53-.86 10.07-12.7 12.92-22.22 1.62-5.43 3.16-10.55 5.21-14.06 2.9-5 7.35-7.91 12.54-8.27a16.65 16.65 0 0 1 13.9 6.01c2.42 3.06 5 4.72 7.79 4.93 3.13.24 6.65-1.39 10.43-4.86 7.55-6.95 17.25-6.23 23.27-4.81a64.79 64.79 0 0 0 -5.95-12.57c-4.19-6.84-5.53-13.36-3.85-18.85 1.48-4.84 5.14-8.62 10.89-11.23 9.14-4.15 6.1-17.22.43-36.67-4-13.61 1.82-19.44 7.41-25.08 3.35-3.37 6.81-6.86 8.61-12.43.38-1.18.7-2.34 1-3.46 1.44-5.26 2.92-10.7 10.54-13 6.34-1.88 11.72-4.54 18.36-19.93a23.18 23.18 0 0 1 19.22-14.31 22.28 22.28 0 0 1 20.68 9.44c7.15 10.62 15.76 17.1 27.09 20.42 8.4 2.46 17.37 10.36 12.46 34.07a102.23 102.23 0 0 1 -4.2 14.07c-3 8.49-5.62 15.83-3.71 28.35 2.93 19.12 1.24 22.72-4.33 34.64l-1.37 2.95c-6.18 13.4-7.38 23.66-7.65 45.83 0 2.6 0 5-.05 7.18-.06 16.33-.09 23.79-9.53 43.8-8.12 17.21.68 24.81 5.41 28.89l.1.08a3 3 0 0 1 -3.81 4.54l-.24-.2c-5.09-4.4-16.87-14.65-6.85-35.87 8.88-18.82 8.9-25.4 9-41.29 0-2.22 0-4.61.05-7.23.27-22.07 1.47-33.65 8.2-48.24l1.38-3c5.37-11.5 6.49-13.9 3.84-31.24-2.13-14 .83-22.37 4-31.23a97.44 97.44 0 0 0 4-13.29c3.21-15.48.41-24.62-8.32-27.18-12.55-3.67-22.47-11.13-30.34-22.79a16.35 16.35 0 0 0 -15.21-6.85 17.11 17.11 0 0 0 -14.33 10.75c-6.91 16-13.34 20.66-22.12 23.26-4.28 1.27-5 3.49-6.5 8.84-.32 1.19-.66 2.41-1.08 3.72-2.24 6.93-6.38 11.1-10 14.79-5.37 5.41-8.92 9-5.93 19.24 5.32 18.26 10.83 37.13-3.67 43.73-4.13 1.88-6.71 4.42-7.67 7.56-1.48 4.82.94 10.29 3.23 14a64.57 64.57 0 0 1 8.17 19.66 3 3 0 0 1 -4.14 3.25c-.13-.06-13.75-6-22.4 1.95-5 4.64-10.06 6.79-14.91 6.41-4.39-.35-8.53-2.82-12-7.16a10.6 10.6 0 0 0 -8.81-3.85c-3.22.23-5.93 2.08-7.84 5.35-1.69 2.9-3.13 7.7-4.65 12.77-3.51 11.74-7.49 25-17.83 26.4-4 .53-6.68 0-8.61-1.58-2.78-2.33-3-6.11-3.18-10.9a60.23 60.23 0 0 0 -2.14-14.77c-.66-2.29-1.3-4.41-1.9-6.39-4-13.06-6.33-21-2-34.25 3.22-9.8 8.14-13.26 12.49-16.31a25.28 25.28 0 0 0 6.77-6.16c3.5-4.95 3.26-7.4 2.63-14-.29-3-.65-6.68-.71-11.55-.21-16.45 6.62-29.65 16.95-44.39 7.12-10.17 5.79-17.64 4.1-27.09-.5-2.8-1-5.7-1.34-8.84l-.19-2.02c-1.53-15.27-4.7-47-28.06-59.74-24.54-13.43-47.28 8.74-55.85 17.02a45 45 0 0 1 -10.43 7.24c-6.51 3.6-12.66 7-18.7 21.32-3.89 9.24-8.8 13.57-13.13 17.39-6.57 5.77-11.31 9.98-9.88 30.77 1.44 21 4.37 31.17 7 40.19a104.12 104.12 0 0 1 4.24 20.15c1.55 15.7 1.69 22.87-1.4 26.62a7.6 7.6 0 0 1 -5.39 2.64c-6 .57-10.18 1.48-12.49 8.63-2.59 8 6.45 17.84 11.6 21.91a41.25 41.25 0 0 1 14.73 24.1c2.27 10.27 6 18.52 17.31 27.89 12.43 10.26 27.32 23.76 32.2 37.08.83 2.27 1.56 4.48 2.25 6.62 3.12 9.57 5.59 17.12 15.51 23.95 9.51 6.54 11.36 13.81 9 18.11-1.77 3.19-5.63 4.27-9.38 2.62a40.65 40.65 0 0 0 -6.09-1.7c-8.43-2-21.16-4.92-29.22-17a99.74 99.74 0 0 1 -8.42-15.69c-3.43-7.62-6.66-14.82-16.43-25.81-16.4-18.46-26.92-21.17-40.19-10.31-15.5 12.65-25 35.8-12.17 53.81 5.56 7.79 11.23 12.74 16.23 17.11 7.72 6.75 14.39 12.57 16.27 25.19a89.56 89.56 0 0 1 .79 12.83c.11 12 .17 17.44 19.35 20.77 26.55 4.62 43.43 4.73 64.52.43 20.91-4.27 55.12 1.82 63.13 11.24a3 3 0 0 1 -2.13 4.88c-.19 0-19.34.83-27.82 2.16-5.47.85-9.82 3.25-13.31 5.18a34.7 34.7 0 0 1 -4.74 2.33 19.31 19.31 0 0 1 -3.15.72c-4.33.75-7.75 1.35-6.93 9l.22 2.16c1.18 11.54 1.89 18.5 15.6 25 13 6.19 24.65 1.28 34.89-3.05 1.38-.58 2.72-1.15 4-1.67 5.93-2.37 11.07-2.67 16.52-3a78.22 78.22 0 0 0 18.77-2.86c5.87-1.69 10.06-4.24 14.49-6.94 7.4-4.51 15.05-9.16 30.66-10.39 3.61-.28 7.36-.62 11-1 6.33-.57 12.87-1.17 18.75-1.46a3 3 0 1 1 .3 5.92c-5.76.29-12.25.88-18.51 1.45-3.64.33-7.4.67-11 1-14.19 1.12-20.92 5.21-28 9.54-4.57 2.78-9.3 5.66-15.93 7.57a83.34 83.34 0 0 1 -20.18 3.08c-5.16.3-9.62.55-14.65 2.57-1.26.5-2.56 1.05-3.91 1.62-6.76 2.88-15.16 6.43-24.51 6.43z"/><path d="m457.22 377.61a3 3 0 0 1 -2.15-5c6.93-7.27 12.41-16.61 16.93-28.53 8-21.39 11.5-32.24 15.53-44.81 1.32-4.11 2.69-8.4 4.31-13.31 6.35-19.33 4.11-25.36 0-36.31-4.53-12.15-4.89-24.35-1.21-40.78s2.53-22.48-4.94-26c-14.15-6.71-10.64-18.56-7.82-28.09 1.3-4.41 2.66-9 2.41-12.86a18 18 0 0 0 -5.72-12.54 13 13 0 0 0 -9.77-3.11c-4.35.35-7.55.88-10.37 1.35-6.08 1-10.88 1.8-22 .28-14.57-2-24.44 4.86-30.16 21-1.34 3.8-2.58 6.84-3.68 9.52-4 9.71-5.29 13-.69 26 6.37 18 4.48 21.92-.79 29.79l-.36.55a56.28 56.28 0 0 1 -3.77 4.79c-5.7 6.75-12.16 14.41-5.22 25.94 1.19 2 2.33 3.84 3.41 5.62 9.38 15.34 15 24.6 11.06 40.12-.76 3-.42 7.14 1 11.73a3 3 0 0 1 -5.68 1.7c-1.19-4-2.33-9.77-1-14.91 3.36-13.1-1.23-20.6-10.38-35.56-1.09-1.79-2.24-3.66-3.44-5.66-9.12-15.16-.16-25.79 5.77-32.82a52.25 52.25 0 0 0 3.37-4.26l.37-.56c4.3-6.43 5.75-8.59.12-24.51-5.35-15.11-3.3-20.14.79-30.17 1.07-2.62 2.28-5.6 3.58-9.26 6.71-19 19-27.34 36.56-24.91 10.2 1.4 14.4.71 20.2-.25 2.94-.49 6.27-1 10.86-1.41a18.8 18.8 0 0 1 14.12 4.53 24 24 0 0 1 7.76 16.64c.32 4.95-1.19 10-2.64 14.92-3.12 10.54-4.44 16.72 4.68 21 13 6.14 11.26 19 8.18 32.68-3.45 15.43-3.17 26.27 1 37.41 4.75 12.79 6.74 19.84 0 40.23-1.61 4.89-3 9.17-4.29 13.27-4.05 12.64-7.55 23.56-15.62 45.08-4.77 12.69-10.7 22.67-18.13 30.52a3 3 0 0 1 -2.18.95z"/><path d="m366.13 512c-15.74 0-31.75-5.64-43-15.73-13.08-11.74-18.74-28.4-15.95-46.92a3 3 0 0 1 5.86.88c-3.19 21.13 5.88 34.3 14 41.63 13.63 12.23 35 17.23 53.22 12.43 33-8.69 53.69-38.75 75.59-70.58q3.57-5.19 7.19-10.4c9.69-13.88 11.66-26.72 5.54-36.15-7-10.79-23.26-15.2-42.43-11.51a3 3 0 1 1 -1.12-5.82c21.59-4.16 40.18 1.25 48.53 14.11 7.41 11.42 5.36 27-5.65 42.78q-3.62 5.18-7.17 10.37c-22.54 32.76-43.83 63.71-79 73a61.7 61.7 0 0 1 -15.61 1.91z"/><path d="m377.94 489.52c-13.74 0-27.68-4.21-39.16-16.48a44.66 44.66 0 0 1 -8.64-13.04 3 3 0 1 1 5.46-2.31 38.76 38.76 0 0 0 7.51 11.31c32.47 34.71 88.5-3 90.87-4.67a3 3 0 1 1 3.35 4.89c-1.73 1.17-30.11 20.3-59.39 20.3z"/><path d="m366.13 512c-15.74 0-31.75-5.64-43-15.73-13.08-11.74-18.74-28.4-15.95-46.92a3 3 0 0 1 5.86.88c-3.19 21.13 5.88 34.3 14 41.63 13.63 12.23 35 17.23 53.22 12.43 18.88-5 35.23-17.11 53-39.37l.22-.25a3 3 0 0 1 4.34 4c-18.53 23.33-35.82 36.04-56 41.33a61.7 61.7 0 0 1 -15.69 2z"/><path d="m342.9 462.61c-12.22 0-24.24-3.34-33.89-10-17.77-12.22-25.16-33.78-20.8-60.71 8.49-52.46 42.68-65.19 70.15-75.42 7.22-2.69 14-5.23 19.85-8.27 20.19-10.59 40.14-10.74 52.06-.41 10.39 9 12.64 24.66 6.17 42.95q-2.11 6-4.15 11.9c-13 37.58-25.32 73.07-56.72 91.33a65.34 65.34 0 0 1 -32.67 8.63zm38.1-149.13c-6.14 3.22-13.13 5.82-20.53 8.58-27.47 10.19-58.47 21.75-66.4 70.81-5.09 31.45 7.14 47.2 18.3 54.88 16.5 11.34 41.82 11.82 60.21 1.13 29.5-17.15 41.45-51.64 54.1-88.14q2.06-6 4.17-11.94c5.7-16.09 4.12-29.05-4.46-36.49-9.88-8.56-27.71-8.1-45.42 1.18z"/><path d="m342.9 462.61c-12.22 0-24.24-3.34-33.89-10-17.77-12.22-25.16-33.78-20.8-60.71s16.11-46.42 35.91-59.48a1.47 1.47 0 0 1 .29-.2 3 3 0 0 1 3.77 4.33c-.89 1.37-23.93 37.17-17.74 65 2.18 9.83 7.86 17.61 16.87 23.13 40.79 25 85.9-28.15 86.35-28.68a3 3 0 0 1 5 3.07c-11.78 27.46-25.08 44.38-43.13 54.87a65.34 65.34 0 0 1 -32.63 8.67zm-27.14-115.83c-11.52 11.44-18.51 26.41-21.7 46.09-5.09 31.45 7.14 47.2 18.3 54.88 16.5 11.34 41.82 11.82 60.21 1.13 13.24-7.7 23.82-19.25 33.19-36.54a129.64 129.64 0 0 1 -17 12.81c-23.39 14.56-45.69 16.17-64.49 4.66-14.52-8.89-21.49-22.71-20.7-41.05.49-11.41 4-24.21 10.32-38.06.31-.75 1-2.18 1.87-3.92z"/></svg>