<svg id="Layer_1" enable-background="new 0 0 512 512" height="512" viewBox="0 0 512 512" width="512" xmlns="http://www.w3.org/2000/svg"><g><path d="m502.208 357.455c-.032 1.207-.312 2.404-.843 3.517l-69.837 147.909c-.899 1.904-2.816 3.119-4.922 3.119h-111.454l33.244-206.126c.271-1.696 1.021-3.226 2.114-4.464 1.156-1.311 2.707-2.289 4.477-2.737l102.774-26.16c4.227-1.072 8.6 1.061 10.349 5.057l33.421 76.19c.49 1.187.719 2.446.677 3.695z" fill="#ffe177"/><path d="m502.208 357.455-87.958 13.392-63.74-69.437c1.156-1.311 2.707-2.289 4.477-2.737l102.774-26.16c4.227-1.072 8.6 1.061 10.349 5.057l33.421 76.19c.49 1.187.719 2.446.677 3.695z" fill="#fff0ad"/><path d="m469.79 362.391 32.419-4.936c.041-1.249-.188-2.508-.677-3.694l-33.421-76.19c-1.749-3.996-6.122-6.129-10.349-5.057l-23.256 5.92z" fill="#ffe177"/><path d="m502.208 357.455c-.032 1.207-.312 2.404-.843 3.517l-69.837 147.909c-.899 1.904-2.816 3.119-4.922 3.119h-62.113l49.757-141.153z" fill="#ffd15b"/><path d="m469.79 362.391-70.64 149.609h27.456c2.106 0 4.023-1.215 4.922-3.119l69.837-147.909c.531-1.113.812-2.31.844-3.517z" fill="#ffc344"/><path d="m219.659 502.696 15.339-266.783c.218-3.798-1.767-7.383-5.103-9.212l-122.02-66.926c-4.235-2.323-9.529-1.24-12.512 2.559l-83.471 106.324c-2.028 2.583-2.637 6.006-1.624 9.13l74.687 230.448c.727 2.245 2.818 3.765 5.178 3.765h119.673c5.23-.001 9.553-4.082 9.853-9.305z" fill="#ffe177"/><path d="m219.124 512 15.869-276.002c.221-3.85-1.791-7.484-5.172-9.338l-121.847-66.831c-4.292-2.354-9.657-1.257-12.68 2.594l-83.359 106.18c-2.055 2.617-2.672 6.085-1.646 9.25l74.637 230.292c.745 2.298 2.886 3.855 5.302 3.855z" fill="#ffe177"/><path d="m233.867 230.797-116.382 86.18-107.563-43.662c.229-1.634.874-3.195 1.884-4.547l83.491-106.346.021-.021c3.019-3.829 8.371-4.922 12.65-2.57l121.859 66.836c1.76.967 3.156 2.413 4.04 4.13z" fill="#fff0ad"/><path d="m208.14 249.848 25.727-19.051c-.885-1.717-2.28-3.163-4.039-4.131l-121.859-66.836c-4.279-2.352-9.631-1.259-12.65 2.57l-.021.021-12.896 16.426z" fill="#ffe177"/><path d="m234.992 236-15.326 266.583-.541 9.417h-71.841l-29.798-195.023 116.382-86.18c.822 1.571 1.228 3.361 1.124 5.203z" fill="#ffc344"/><path d="m452.607 140.351-133.926 371.649h-102.836l-53.756-395.478c-.406-2.976.01-5.942 1.114-8.606 1.176-2.862 3.155-5.38 5.779-7.211l144.837-97.854.135-.083c6.684-4.433 15.586-3.455 21.146 2.32l113.841 118.104c2.28 2.373 3.759 5.297 4.352 8.387.553 2.883.345 5.911-.686 8.772z" fill="#ffe177"/><path d="m453.294 131.579-166.337 55.722-123.753-79.385c1.176-2.862 3.155-5.38 5.779-7.211l144.836-97.854.135-.083c6.684-4.433 15.586-3.455 21.146 2.32l113.841 118.104c2.281 2.373 3.76 5.297 4.353 8.387z" fill="#fff0ad"/><path d="m420.959 142.411 32.335-10.832c-.593-3.09-2.072-6.014-4.352-8.387l-113.841-118.104c-5.56-5.775-14.462-6.753-21.146-2.32l-.136.083-12.608 8.519z" fill="#ffe177"/><path d="m452.607 140.351-133.926 371.649h-54.141l22.416-324.698 166.337-55.722c.553 2.882.345 5.91-.686 8.771z" fill="#ffd15b"/><path d="m453.294 131.579-32.335 10.832-133.183 369.589h30.905l133.926-371.649c1.031-2.861 1.239-5.89.687-8.772z" fill="#ffc344"/></g></svg>