<svg id="Layer_1" viewBox="0 0 1000 1000" xmlns="http://www.w3.org/2000/svg" data-name="Layer 1"><path d="m438.33 128.82a53.67 53.67 0 0 1 -17.1 39.1 13.55 13.55 0 0 1 -18.48-19.83 26.11 26.11 0 0 0 8.45-19.25c0-14.73-12.34-26.71-27.5-26.71s-27.51 12-27.51 26.71a26.72 26.72 0 0 0 15.66 24.09l.15.07a13.55 13.55 0 1 1 -11.25 24.66 54.14 54.14 0 0 1 -13.92-9.15 53.59 53.59 0 0 1 -17.7-37.6c0-.69 0-1.38 0-2.06-.03-29.71 24.47-53.85 54.59-53.85s54.61 24.14 54.61 53.82z" fill="#231f20"/><path d="m370.27 182.17c-.11.21-.23.43-.36.64l-.39.61a14.54 14.54 0 0 1 -.9 1.17c-.13.15-.25.3-.4.45a14.17 14.17 0 0 1 -2.36 2c-.32.21-.64.42-1 .6-.17.1-.35.18-.52.27s-.35.17-.53.25a13.59 13.59 0 0 1 -5.43 1.17 14.14 14.14 0 0 1 2.39 1l.73.43a1 1 0 0 1 .24.15c.17.11.33.21.5.34a8.23 8.23 0 0 1 .75.57c.27.22.53.46.78.7s.45.45.67.69.4.46.59.7.36.49.53.73a8.35 8.35 0 0 1 .47.74c.11.19.22.37.31.55l.07.15a2.44 2.44 0 0 1 .14.28c.1.21.2.43.29.64s.2.48.28.73a.83.83 0 0 1 .06.21 3 3 0 0 1 .14.42.08.08 0 0 1 0 .07 5 5 0 0 1 .14.52c.05.17.09.34.13.52a26.07 26.07 0 0 1 -.48-5 25.61 25.61 0 0 1 3.16-12.3zm61.24-27.35a53.8 53.8 0 0 0 -13.88-9.14 13.58 13.58 0 0 0 -14.86 2.39 28.15 28.15 0 0 1 -30.77 4.93l-.17-.07a13.55 13.55 0 0 0 -14.72 2.49 53.49 53.49 0 0 0 -10.3 13.09c-.16.28-.31.57-.47.86a53.31 53.31 0 0 0 -6.33 25.16c0 1.59.07 3.17.21 4.75.11 1.22.26 2.43.46 3.63q.15 1 .36 2a52.86 52.86 0 0 0 7.37 18.26c.74 1.16 1.52 2.3 2.35 3.4a54.64 54.64 0 0 0 21.14 16.85l.39.18a13.18 13.18 0 0 0 3.7 1h.16.15a13.41 13.41 0 0 0 1.43.08 14.14 14.14 0 0 0 2.77-.28 13.51 13.51 0 0 0 7.63 3.44 51 51 0 0 0 6.5.4 54.93 54.93 0 0 0 24.39-5.67 53.35 53.35 0 0 0 12.45-87.83zm-36.84 66.39c-.56 0-1.12 0-1.66 0s-1.1-.09-1.62-.16a14.06 14.06 0 0 0 -1.72-.11 14 14 0 0 0 -2.76.28 13.61 13.61 0 0 0 -3.89-2.47c-.43-.2-.85-.41-1.26-.62a26.79 26.79 0 0 1 -14.05-18.31 2.38 2.38 0 0 0 -.05-.26 26.07 26.07 0 0 1 -.48-5 25.61 25.61 0 0 1 3.11-12.34l.12-.22c.15-.28.31-.55.47-.83a55.67 55.67 0 0 0 41.89-6.72 26.51 26.51 0 0 1 9.42 20.11c-.02 14.68-12.36 26.65-27.52 26.65zm-24.4-39c-.11.21-.23.43-.36.64l-.39.61a14.54 14.54 0 0 1 -.9 1.17c-.13.15-.25.3-.4.45a14.17 14.17 0 0 1 -2.36 2c-.32.21-.64.42-1 .6-.17.1-.35.18-.52.27s-.35.17-.53.25a13.59 13.59 0 0 1 -5.43 1.17 14.14 14.14 0 0 1 2.39 1l.73.43a1 1 0 0 1 .24.15c.17.11.33.21.5.34a8.23 8.23 0 0 1 .75.57c.27.22.53.46.78.7s.45.45.67.69.4.46.59.7.36.49.53.73a8.35 8.35 0 0 1 .47.74c.11.19.22.37.31.55l.07.15a2.44 2.44 0 0 1 .14.28c.1.21.2.43.29.64s.2.48.28.73a.83.83 0 0 1 .06.21 3 3 0 0 1 .14.42.08.08 0 0 1 0 .07 3.34 3.34 0 0 1 .14.52c.05.17.09.34.13.52a26.07 26.07 0 0 1 -.48-5 25.61 25.61 0 0 1 3.16-12.34zm0 0c-.11.21-.23.43-.36.64l-.39.61a14.54 14.54 0 0 1 -.9 1.17c-.13.15-.25.3-.4.45a14.17 14.17 0 0 1 -2.36 2c-.32.21-.64.42-1 .6-.17.1-.35.18-.52.27s-.35.17-.53.25a13.59 13.59 0 0 1 -5.43 1.17 14.14 14.14 0 0 1 2.39 1l.73.43a1 1 0 0 1 .24.15c.17.11.33.21.5.34a8.23 8.23 0 0 1 .75.57c.27.22.53.46.78.7s.45.45.67.69.4.46.59.7.36.49.53.73a8.35 8.35 0 0 1 .47.74c.11.19.22.37.31.55l.07.15a2.44 2.44 0 0 1 .14.28c.1.21.2.43.29.64s.2.48.28.73a.83.83 0 0 1 .06.21 3 3 0 0 1 .14.42.08.08 0 0 1 0 .07 5 5 0 0 1 .14.52c.05.17.09.34.13.52a26.07 26.07 0 0 1 -.48-5 25.61 25.61 0 0 1 3.16-12.34z" fill="#231f20"/><path d="m422.17 194.51c0 14.73-12.34 26.7-27.5 26.7-.56 0-1.12 0-1.66 0a54.11 54.11 0 0 0 -11.26-3.08 26.79 26.79 0 0 1 -14.05-18.31 2.38 2.38 0 0 0 -.05-.26 26.07 26.07 0 0 1 -.48-5 25.61 25.61 0 0 1 3.11-12.34l.12-.22c.15-.28.31-.55.47-.83a55.67 55.67 0 0 0 41.89-6.72 26.51 26.51 0 0 1 9.41 20.06z" fill="#f2bd77"/><path d="m411.22 128.82a26.11 26.11 0 0 1 -8.45 19.25 28.15 28.15 0 0 1 -30.77 4.93l-.17-.07a26.72 26.72 0 0 1 -15.66-24.09c0-14.73 12.34-26.71 27.51-26.71s27.54 11.96 27.54 26.69z" fill="#f2bd77"/><path d="m336.23 229.25c-.19-.18-.38-.33-.58-.49-.52-.43-1.07-.85-1.63-1.23a13.55 13.55 0 0 1 -1.87-20.69 3.51 3.51 0 0 1 .34-.33 5.86 5.86 0 0 1 .66-.57.41.41 0 0 1 .1-.09l.58-.45a28.16 28.16 0 0 1 -31.82-.13 11 11 0 0 1 1 .73l.43.37.24.23.19.19c.15.14.28.29.42.43a3.22 3.22 0 0 1 .24.28c.16.18.32.37.47.57 0 0 .05.05.06.08a6.13 6.13 0 0 1 .38.51 13.55 13.55 0 0 1 -3.44 18.87c-.27.19-.54.38-.81.59s-.77.59-1.13.9l-.92.8c-.11.1-.21.18-.29.27a5.14 5.14 0 0 0 -.41.4c-.14.12-.27.26-.4.39-.3.31-.6.62-.88.94l-.05.06c-.26.3-.52.6-.76.91l-.11.13a55.45 55.45 0 0 0 43.53 0 26.26 26.26 0 0 0 -3.54-3.67zm0 0c-.19-.18-.38-.33-.58-.49-.52-.43-1.07-.85-1.63-1.23a13.55 13.55 0 0 1 -1.87-20.69 3.51 3.51 0 0 1 .34-.33 5.86 5.86 0 0 1 .66-.57.41.41 0 0 1 .1-.09l.58-.45a28.16 28.16 0 0 1 -31.82-.13 11 11 0 0 1 1 .73l.43.37.24.23.19.19c.15.14.28.29.42.43a3.22 3.22 0 0 1 .24.28c.16.18.32.37.47.57 0 0 .05.05.06.08a6.13 6.13 0 0 1 .38.51 13.55 13.55 0 0 1 -3.44 18.87c-.27.19-.54.38-.81.59s-.77.59-1.13.9l-.92.8c-.11.1-.21.18-.29.27a5.14 5.14 0 0 0 -.41.4c-.14.12-.27.26-.4.39-.3.31-.6.62-.88.94l-.05.06c-.26.3-.52.6-.76.91l-.11.13a55.45 55.45 0 0 0 43.53 0 26.26 26.26 0 0 0 -3.54-3.67zm35.38-56.11a52.94 52.94 0 0 0 -9.12-20.81 54.87 54.87 0 0 0 -33.34-21.44 54.6 54.6 0 0 0 -11.15-1.14c-30.1 0-54.61 24.14-54.61 53.81a54 54 0 0 0 32.86 49.36 55.45 55.45 0 0 0 43.53 0c1.06-.46 2.12-.94 3.14-1.47a55 55 0 0 0 6.55-3.91c.44-.31.89-.63 1.32-.95a54.27 54.27 0 0 0 8.26-7.54c.77-.87 1.51-1.75 2.21-2.66a52.46 52.46 0 0 0 5-7.69 13.47 13.47 0 0 0 1.38-8.93 2.38 2.38 0 0 0 -.05-.26c0-.18-.08-.35-.13-.52a3.34 3.34 0 0 0 -.14-.52.08.08 0 0 0 0-.07 3 3 0 0 0 -.14-.42.83.83 0 0 0 -.06-.21c-.08-.25-.18-.49-.28-.73s-.19-.43-.29-.64a2.44 2.44 0 0 0 -.14-.28l-.07-.15c-.09-.18-.2-.36-.31-.55-.14-.25-.31-.49-.47-.74s-.35-.5-.53-.73-.38-.47-.59-.7-.44-.47-.67-.69-.51-.47-.78-.7a8.23 8.23 0 0 0 -.75-.57c-.17-.13-.33-.23-.5-.34a1 1 0 0 0 -.24-.15l-.73-.43a14.14 14.14 0 0 0 -2.39-1 13.59 13.59 0 0 0 5.43-1.17l.53-.25c.17-.09.35-.17.52-.27.34-.18.66-.39 1-.6a14.17 14.17 0 0 0 2.36-2c.15-.15.27-.3.4-.45a14.54 14.54 0 0 0 .9-1.17l.39-.61c.13-.21.25-.43.36-.64l.12-.22a13.43 13.43 0 0 0 1.34-4.19 13.58 13.58 0 0 0 -.12-4.66zm-69.61 32.13-.16-.12a26.49 26.49 0 0 1 -11.34-21.59c0-14.72 12.34-26.71 27.5-26.71a27.49 27.49 0 0 1 25.92 17.73 24.29 24.29 0 0 1 1.09 3.86 13.53 13.53 0 0 0 9.26 10.29 13.58 13.58 0 0 0 -11.85 7.15 25.18 25.18 0 0 1 -2.17 3.38 26.88 26.88 0 0 1 -6 5.86l-.39.28a28.16 28.16 0 0 1 -31.82-.13zm34.22 24c-.19-.18-.38-.33-.58-.49-.52-.43-1.07-.85-1.63-1.23a13.55 13.55 0 0 1 -1.87-20.69 3.51 3.51 0 0 1 .34-.33 5.86 5.86 0 0 1 .66-.57.41.41 0 0 1 .1-.09l.58-.45a28.16 28.16 0 0 1 -31.82-.13 11 11 0 0 1 1 .73l.43.37.24.23.19.19c.15.14.28.29.42.43a3.22 3.22 0 0 1 .24.28c.16.18.32.37.47.57 0 0 .05.05.06.08a6.13 6.13 0 0 1 .38.51 13.55 13.55 0 0 1 -3.43 18.85c-.27.19-.54.38-.81.59s-.77.59-1.13.9l-.92.8c-.11.1-.21.18-.29.27a5.14 5.14 0 0 0 -.41.4c-.14.12-.27.26-.4.39-.3.31-.6.62-.88.94l-.05.06c-.26.3-.52.6-.76.91l-.11.13a55.45 55.45 0 0 0 43.53 0 26.26 26.26 0 0 0 -3.54-3.67zm0 0c-.19-.18-.38-.33-.58-.49-.52-.43-1.07-.85-1.63-1.23a13.55 13.55 0 0 1 -1.87-20.69 3.51 3.51 0 0 1 .34-.33 5.86 5.86 0 0 1 .66-.57.41.41 0 0 1 .1-.09l.58-.45a28.16 28.16 0 0 1 -31.82-.13 11 11 0 0 1 1 .73l.43.37.24.23.19.19c.15.14.28.29.42.43a3.22 3.22 0 0 1 .24.28c.16.18.32.37.47.57 0 0 .05.05.06.08a6.13 6.13 0 0 1 .38.51 13.55 13.55 0 0 1 -3.43 18.85c-.27.19-.54.38-.81.59s-.77.59-1.13.9l-.92.8c-.11.1-.21.18-.29.27a5.14 5.14 0 0 0 -.41.4c-.14.12-.27.26-.4.39-.3.31-.6.62-.88.94l-.05.06c-.26.3-.52.6-.76.91l-.11.13a55.45 55.45 0 0 0 43.53 0 26.26 26.26 0 0 0 -3.54-3.67z" fill="#231f20"/><path d="m340.05 194.51c0 1.59.07 3.17.21 4.75a26.88 26.88 0 0 1 -6 5.86l-.39.28a28.16 28.16 0 0 1 -31.82-.13l-.16-.12a26.49 26.49 0 0 1 -11.34-21.59c0-14.72 12.34-26.71 27.5-26.71a27.49 27.49 0 0 1 25.92 17.73 53.25 53.25 0 0 0 -3.92 19.93z" fill="#f2bd77"/><path d="m372.41 244.46c0-.28-.05-.56-.08-.84a53.15 53.15 0 0 0 -9.67-25.37c-.44-.63-.91-1.25-1.39-1.86a54.07 54.07 0 0 0 -11.77-11.11 13.44 13.44 0 0 0 -8.78-2.39 13.64 13.64 0 0 0 -6.5 2.23l-.39.28-.58.45a.41.41 0 0 0 -.1.09 5.86 5.86 0 0 0 -.66.57 3.51 3.51 0 0 0 -.34.33 13.55 13.55 0 0 0 1.85 20.69c.56.38 1.11.8 1.63 1.23.2.16.39.31.58.49a26.23 26.23 0 0 1 9.3 20 26.74 26.74 0 0 1 -15.82 24.16l-.32.16-.26.11a28.2 28.2 0 0 1 -30.11-5.15 26.14 26.14 0 0 1 -2.71-35.61l.11-.13c.24-.31.5-.61.76-.91l.05-.06c.28-.32.57-.63.88-.94.13-.13.26-.27.4-.39a5.14 5.14 0 0 1 .41-.4c.08-.09.18-.17.29-.27.3-.27.6-.54.92-.8s.74-.61 1.13-.9.54-.4.81-.59a13.55 13.55 0 0 0 3.38-18.87 6.13 6.13 0 0 0 -.38-.51s0-.05-.06-.08c-.15-.2-.31-.39-.47-.57a3.22 3.22 0 0 0 -.24-.28c-.14-.14-.27-.29-.42-.43l-.19-.19-.24-.23-.43-.37a11 11 0 0 0 -1-.73l-.16-.12a13.55 13.55 0 0 0 -15.31.13 54 54 0 0 0 -11.77 11.13 53.38 53.38 0 0 0 5.74 72 54.34 54.34 0 0 0 8.48 6.47 55.11 55.11 0 0 0 29 8.22 56.25 56.25 0 0 0 12.86-1.49l1.36-.35a52 52 0 0 0 6-2h.09c.57-.23 1.14-.46 1.71-.71l.21-.1.73-.33.43-.21h.08a53.08 53.08 0 0 0 11.89-7.58c.51-.42 1-.86 1.51-1.32a53.57 53.57 0 0 0 17.77-39.68 47.91 47.91 0 0 0 -.21-4.87z" fill="#231f20"/><path d="m345.53 249.26a26.74 26.74 0 0 1 -15.82 24.16l-.32.16-.26.11a28.2 28.2 0 0 1 -30.13-5.16 26.14 26.14 0 0 1 -2.71-35.61 55.45 55.45 0 0 0 43.53 0 26.16 26.16 0 0 1 5.74 16.34z" fill="#f2bd77"/><g fill="#231f20"><path d="m427.38 271.16a53.75 53.75 0 0 1 -22.55 43.5 54.49 54.49 0 0 1 -24.49 9.78c-1.44.21-2.92.35-4.42.43-1.05.07-2.09.1-3.15.1a54.84 54.84 0 0 1 -18-3 3.81 3.81 0 0 1 -.44-.15c-1.25-.44-2.49-.93-3.71-1.46a54.71 54.71 0 0 1 -13.62-8.56 13.57 13.57 0 0 1 -4.72-9.24c0-.35 0-.71 0-1.07a2 2 0 0 1 0-.25 13.54 13.54 0 0 1 21.13-11 12.71 12.71 0 0 1 1.42 1.09q1 .87 2.13 1.62a27.34 27.34 0 0 0 4.35 2.44h.09l.24.1h.09a27.69 27.69 0 0 0 11.09 2.28 29.58 29.58 0 0 0 3.8-.25h.05c13.5-1.86 23.66-13.22 23.66-26.44a26.74 26.74 0 0 0 -15.89-24.08l-.27-.12a27.87 27.87 0 0 0 -7.83-2.17h-.15-.16-.27a29.47 29.47 0 0 0 -3-.16h-.36a27.74 27.74 0 0 0 -10.85 2.3 13.55 13.55 0 0 1 -17.82-7 13.59 13.59 0 0 1 7-17.83 55.18 55.18 0 0 1 8.29-2.84c1.19-.31 2.39-.57 3.6-.8a55.66 55.66 0 0 1 10.11-.91 54.47 54.47 0 0 1 6.41.38c.25 0 .49.06.74.1.61.07 1.22.16 1.82.26a54.11 54.11 0 0 1 11.3 2.96c.6.24 1.2.48 1.8.74l.35.16a54.31 54.31 0 0 1 23.9 20.58 53.1 53.1 0 0 1 8.33 28.51z"/><path d="m354.35 321.82a13.39 13.39 0 0 1 -1.76.81l-.27.1a14.19 14.19 0 0 1 -2.79.66 12.69 12.69 0 0 1 -1.74.1 13.55 13.55 0 0 1 -13.42-11.84 26.26 26.26 0 0 0 -1.23-5.24l-.12-.32a25.58 25.58 0 0 0 -1.37-3.13q-.37-.7-.78-1.38a26.79 26.79 0 0 0 -4.77-5.91 13.56 13.56 0 0 1 18.48-19.84 54.35 54.35 0 0 1 10.29 13.11q1.13 2 2 4c.24.49.46 1 .66 1.5s.49 1.18.71 1.77c.14.36.28.72.41 1.1a54.25 54.25 0 0 1 2.57 10.89 13.56 13.56 0 0 1 -6.87 13.62z"/><path d="m295.37 290.78a27.72 27.72 0 0 0 -6.38 4.07 26.46 26.46 0 0 0 -9.43 20.15 26.13 26.13 0 0 0 4 13.89 26.33 26.33 0 0 0 4.94 5.84 13.54 13.54 0 0 1 -2.79 22.19h-.08l-.09.05a13.57 13.57 0 0 1 -15-2 53.23 53.23 0 0 1 -.35-79.71 54.35 54.35 0 0 1 13.88-9.15 13.56 13.56 0 0 1 11.27 24.66z"/><path d="m416.43 347.8a53.16 53.16 0 0 1 -16.33 38.41 54.68 54.68 0 0 1 -13.43 9.51 13.52 13.52 0 0 1 -18.2-6 13.55 13.55 0 0 1 6-18.2 27.73 27.73 0 0 0 6.32-4.36 26.31 26.31 0 0 0 8.54-19.36 26.61 26.61 0 0 0 -13.41-22.93 25.85 25.85 0 0 0 -2.83-1.43 13.55 13.55 0 0 1 3.48-25.83h.05a13.54 13.54 0 0 1 7.3 1 54.21 54.21 0 0 1 20.91 16.07 53.24 53.24 0 0 1 11.6 33.12z"/></g><path d="m400.28 271.16c0 13.22-10.16 24.58-23.66 26.44h-.05a29.58 29.58 0 0 1 -3.8.25 27.69 27.69 0 0 1 -11.09-2.28h-.09l-.24-.1h-.09a27.34 27.34 0 0 1 -4.35-2.44q-.92-2.06-2-4a53.57 53.57 0 0 0 17.77-39.68 47.91 47.91 0 0 0 -.23-4.8h.36a29.47 29.47 0 0 1 3 .16h.27.16.15a27.87 27.87 0 0 1 7.83 2.17l.27.12a26.74 26.74 0 0 1 15.79 24.16z" fill="#f2bd77"/><path d="m366.28 316.86a13.44 13.44 0 0 1 -8.4 4.51 28.52 28.52 0 0 0 -3.09.6c-.73.19-1.47.41-2.2.66l-.27.1a27.17 27.17 0 0 0 -17.09 18.27 25.9 25.9 0 0 0 -.91 6.23 13.56 13.56 0 0 1 -13.55 13.27h-.29a13.57 13.57 0 0 1 -6.91-2.07l-.14-.09a13.53 13.53 0 0 1 -6.21-11.69 52.59 52.59 0 0 1 3.78-18.34 54.49 54.49 0 0 1 20.65-25.31l.61-.4a54.18 54.18 0 0 1 5.94-3.28h.09c1-.49 2-.94 3.08-1.35h.08c.59-.23 1.19-.46 1.79-.67a54.92 54.92 0 0 1 11-2.66 12.53 12.53 0 0 1 3.29 0 13.43 13.43 0 0 1 3.69.94h.09l.24.1h.09a13.7 13.7 0 0 1 6.63 6.51 13.89 13.89 0 0 1 1.2 4.05 13.51 13.51 0 0 1 -3.19 10.62z" fill="#231f20"/><path d="m331.65 303a54.49 54.49 0 0 0 -20.65 25.31 55 55 0 0 0 -27.36.54 26.13 26.13 0 0 1 -4-13.89 26.46 26.46 0 0 1 9.36-20.11 55.11 55.11 0 0 0 29 8.22 56.25 56.25 0 0 0 12.86-1.49q.42.68.79 1.42z" fill="#f2bd77"/><path d="m340.75 389.09a13.58 13.58 0 0 1 -15.15-11.76 25.31 25.31 0 0 0 -2.72-8.66 26.55 26.55 0 0 0 -6-7.75 27.07 27.07 0 0 0 -3.27-2.49l-.14-.09a28.3 28.3 0 0 0 -27.68-1.46h-.08l-.09.05a26.54 26.54 0 0 0 -14.76 23.67c0 14.61 12.15 26.52 27.17 26.69h.83a28.38 28.38 0 0 0 9-1.61 13.5 13.5 0 0 1 2.93-.68 13.54 13.54 0 0 1 14.3 9 14.2 14.2 0 0 1 .68 2.81s0 0 0 0a13.54 13.54 0 0 1 -8.66 14.34 1.83 1.83 0 0 1 -.28.1 54.71 54.71 0 0 1 -14.15 3c-1.45.12-2.9.18-4.37.18a55.26 55.26 0 0 1 -9.69-.85c-25.51-4.52-44.93-26.55-44.93-53a53.12 53.12 0 0 1 16.31-38.33 54.77 54.77 0 0 1 13.42-9.52 53.84 53.84 0 0 1 10.14-3.88 55 55 0 0 1 27.36-.54 54.18 54.18 0 0 1 17.12 7.23 55.52 55.52 0 0 1 6.75 5.1l.4.36a53.71 53.71 0 0 1 13.45 18.87 52.71 52.71 0 0 1 3.86 14.13 13.55 13.55 0 0 1 -11.75 15.09z" fill="#231f20"/><path d="m400.1 386.21a54.77 54.77 0 0 0 -47-26.52q-2.21 0-4.38.18a54.72 54.72 0 0 0 -25.8 8.8 53.77 53.77 0 0 0 -24 38c0 .23-.06.45-.08.67a53 53 0 0 0 3.88 26.94 53.82 53.82 0 0 0 10 15.41 54.88 54.88 0 0 0 40.39 17.62c30.12 0 54.61-24.14 54.61-53.81a52.75 52.75 0 0 0 -7.62-27.29zm-47 54c-14 0-25.61-10.2-27.29-23.36a22.59 22.59 0 0 1 -.22-3.3c0-14.73 12.34-26.7 27.51-26.7s27.5 12 27.5 26.7-12.37 26.65-27.54 26.65z" fill="#231f20"/><path d="m380.56 413.5c0 14.72-12.33 26.7-27.5 26.7-14 0-25.61-10.2-27.29-23.36a22.59 22.59 0 0 1 -.22-3.3c0-14.73 12.34-26.7 27.51-26.7s27.5 11.93 27.5 26.66z" fill="#f2bd77"/><path d="m389.33 347.8a26.31 26.31 0 0 1 -8.54 19.36 54.8 54.8 0 0 0 -27.73-7.47q-2.21 0-4.38.18a53.71 53.71 0 0 0 -13.45-18.87 27.17 27.17 0 0 1 17.09-18.27l.27-.1c.73-.25 1.47-.47 2.2-.66a54.84 54.84 0 0 0 18 3c1.06 0 2.1 0 3.15-.1a26.61 26.61 0 0 1 13.39 22.93z" fill="#f2bd77"/><path d="m675.74 412.12c-.12.69-.23 1.37-.37 2.05a53.06 53.06 0 0 1 -23.17 34.3 54.61 54.61 0 0 1 -30 9c-1.34 0-2.68-.05-4-.14a59.34 59.34 0 0 1 -6.82-.92 55.51 55.51 0 0 1 -19-7.59 54.5 54.5 0 0 1 -15.73-15.25 53.18 53.18 0 0 1 3.35-64.78 53.73 53.73 0 0 1 12.62-10.86 13.55 13.55 0 0 1 14.31 23 26.19 26.19 0 0 0 -7.93 37.29 27.55 27.55 0 0 0 13.53 10.42l.25.08a27.07 27.07 0 0 0 3.86 1 27.7 27.7 0 0 0 20.71-4 26.16 26.16 0 0 0 11.45-16.89 26.74 26.74 0 0 0 -10.8-26.67 13.55 13.55 0 1 1 15.82-22 54.09 54.09 0 0 1 22 52z" fill="#231f20"/><path d="m674.7 317.84c-.51-1.29-1.06-2.56-1.66-3.79a54.47 54.47 0 0 0 -17.6-20.74l-.16-.12c-.63-.44-1.27-.87-1.92-1.27a54.09 54.09 0 0 0 -10.41-5.19c-.74-.28-1.51-.55-2.27-.8h-.08a51.56 51.56 0 0 0 -6.31-1.64 54.73 54.73 0 0 0 -40.83 7.9 53 53 0 0 0 -23.18 34.29 53.61 53.61 0 0 0 9.72 42.31 54.2 54.2 0 0 0 11.85 11.66 13.51 13.51 0 0 0 15 .53 28.18 28.18 0 0 1 31.15 1.15 13.58 13.58 0 0 0 7.88 2.53 11.38 11.38 0 0 0 1.31-.07 13.48 13.48 0 0 0 5.84-2 53.43 53.43 0 0 0 12.62-10.86c.23-.25.44-.5.64-.75a53.82 53.82 0 0 0 3.42-4.64 53.26 53.26 0 0 0 7.68-18.81c.31-1.55.54-3.12.7-4.69.14-1.22.23-2.43.26-3.65 0-.69 0-1.39 0-2.08a53 53 0 0 0 -3.65-19.27zm-53.27 31.89a54.69 54.69 0 0 0 -19.28 3.5 26.8 26.8 0 0 1 -5.82-16.58 25.39 25.39 0 0 1 .48-5 26.17 26.17 0 0 1 11.45-16.89 27.75 27.75 0 0 1 20.71-4c.56.11 1.11.23 1.63.38.53.14 1 .28 1.54.44a1.14 1.14 0 0 0 .26.09 27.55 27.55 0 0 1 7.1 3.53l.32.23c.42.3.83.6 1.22.92a26.76 26.76 0 0 1 10.22 20.82 26 26 0 0 1 -.5 5.11 25.58 25.58 0 0 1 -5.24 11.26l-.18.21-.13.17-.65.74a55.06 55.06 0 0 0 -12.32-4 55.68 55.68 0 0 0 -10.81-.93z" fill="#231f20"/><path d="m651.28 337.22a26 26 0 0 1 -.5 5.11 25.58 25.58 0 0 1 -5.24 11.26l-.18.21-.13.17-.65.74a55.06 55.06 0 0 0 -12.32-4 55.68 55.68 0 0 0 -10.8-1.06 54.69 54.69 0 0 0 -19.28 3.5 26.8 26.8 0 0 1 -5.82-16.58 25.39 25.39 0 0 1 .48-5 26.17 26.17 0 0 1 11.45-16.89 27.75 27.75 0 0 1 20.71-4c.56.11 1.11.23 1.63.38a55.3 55.3 0 0 0 10.44 5.21 26.76 26.76 0 0 1 10.21 20.95z" fill="#f2bd77"/><path d="m721.09 322.58a26.88 26.88 0 0 0 6.69-4.17 55.38 55.38 0 0 0 -42.7-8.44 27.12 27.12 0 0 0 4.62 6.41 13.54 13.54 0 0 1 -.34 19.16 13.94 13.94 0 0 1 -3.81 2.6 28.14 28.14 0 0 1 31.15 6.19 13.54 13.54 0 0 1 4.39-21.75zm24.57 16.2a54.52 54.52 0 0 0 -17.88-20.37 55.38 55.38 0 0 0 -42.7-8.44c-1.13.23-2.25.51-3.37.83a54.07 54.07 0 0 0 -7.19 2.57c-.49.21-1 .44-1.48.68a53 53 0 0 0 -9.55 5.78c-.92.7-1.82 1.42-2.69 2.16a53.18 53.18 0 0 0 -6.42 6.58 13.57 13.57 0 0 0 4 20.53 14.11 14.11 0 0 0 -2.54-.24 13.52 13.52 0 0 0 -10.27 4.73l-.18.21-.13.17a13.57 13.57 0 0 0 -2.93 8.42 53 53 0 0 0 4.91 22.19 54.74 54.74 0 0 0 28.56 27.5 55 55 0 0 0 10.69 3.26 56.39 56.39 0 0 0 10.86 1.07 54.48 54.48 0 0 0 30-9 53.19 53.19 0 0 0 18.41-68.72zm-21.81 29.16a26.09 26.09 0 0 1 -11.46 16.88 27.92 27.92 0 0 1 -42.69-18.42 25.2 25.2 0 0 1 -.32-4 13.55 13.55 0 0 0 -7.11-11.91 13.49 13.49 0 0 0 13.15-4.85 26.45 26.45 0 0 1 2.66-2.74 27.05 27.05 0 0 1 7.23-4.66 1.33 1.33 0 0 1 .24-.1 28.14 28.14 0 0 1 31.15 6.19l.27.28a26.53 26.53 0 0 1 6.88 23.33z" fill="#231f20"/><path d="m723.85 367.94a26.09 26.09 0 0 1 -11.46 16.88 27.92 27.92 0 0 1 -42.69-18.42 53.26 53.26 0 0 0 7.68-18.81c.31-1.55.54-3.12.7-4.69a27.05 27.05 0 0 1 7.23-4.66 1.33 1.33 0 0 1 .24-.1 28.14 28.14 0 0 1 31.15 6.19l.27.28a26.53 26.53 0 0 1 6.88 23.33z" fill="#f2bd77"/><path d="m763.18 308.75a53.35 53.35 0 0 1 -17.52 30 54.45 54.45 0 0 1 -13.7 8.63 13.41 13.41 0 0 1 -5.43 1.14 13.58 13.58 0 0 1 -9.56-3.94l-.27-.28a13.54 13.54 0 0 1 4.39-21.75 26.88 26.88 0 0 0 6.69-4.17 26.12 26.12 0 0 0 4.52-35.09c-.11-.16-.23-.3-.33-.46a27.9 27.9 0 0 0 -17.19-10.83 28.25 28.25 0 0 0 -11.33.07h-.17c-.22.06-.43.11-.65.15a26.78 26.78 0 0 0 -20 20.6 26 26 0 0 0 2.45 17.18 27.12 27.12 0 0 0 4.62 6.41 13.54 13.54 0 0 1 -.34 19.16 13.94 13.94 0 0 1 -3.81 2.6 1.33 1.33 0 0 0 -.24.1 13.56 13.56 0 0 1 -15.12-3 54.29 54.29 0 0 1 -9.4-13.21c-.36-.68-.68-1.38-1-2.09a52.23 52.23 0 0 1 -3.79-11.97 52.88 52.88 0 0 1 -.75-14.84c0-.28 0-.56.08-.84.17-1.59.41-3.16.72-4.74a53.59 53.59 0 0 1 25.11-35.48c.57-.35 1.15-.69 1.75-1a54.18 54.18 0 0 1 13.09-5.1h.08l.49-.13.8-.18.22-.05 1.84-.37a54 54 0 0 1 6.32-.78c.47 0 .92-.06 1.39-.07a55 55 0 0 1 46.86 22.63 54.13 54.13 0 0 1 7.55 14.86 53.34 53.34 0 0 1 1.63 26.84z" fill="#231f20"/><path d="m706 243.1a9.82 9.82 0 0 1 -.22 1.32 13.31 13.31 0 0 1 -3.45 6.5 13.54 13.54 0 0 1 -19.16.42 3 3 0 0 1 -.25-.26 11.18 11.18 0 0 1 -1.21-1.38 23.62 23.62 0 0 0 -1.77-2 25.46 25.46 0 0 0 -3.75-3.2l-.53-.37a27.8 27.8 0 0 0 -10.3-4.28 25.8 25.8 0 0 0 -3.86-.49c-13.58-.81-25.74 8.37-28.31 21.34a26.7 26.7 0 0 0 9.73 26c.35.29.72.56 1.09.83l.29.2a27.39 27.39 0 0 0 7.4 3.68l.39.14c.41.12.82.24 1.24.34.53.13 1.08.26 1.66.37l.34.06a27.84 27.84 0 0 0 11.1-.14 13.56 13.56 0 0 1 16.12 10.36 13.5 13.5 0 0 1 -10.37 16.12 54.57 54.57 0 0 1 -8.67 1.18c-1 .05-2 .08-3 .08h-.68a55.66 55.66 0 0 1 -10.1-1 57.11 57.11 0 0 1 -6.12-1.58c-.28-.09-.55-.17-.82-.27-.57-.2-1.14-.39-1.7-.6a55.3 55.3 0 0 1 -10.44-5.21l-1.65-1.14-.37-.25a54.41 54.41 0 0 1 -19.44-24.87 53.18 53.18 0 0 1 -2.62-29.56 53.84 53.84 0 0 1 30.55-38.31 54.58 54.58 0 0 1 25.93-4.85c1.47.08 2.94.23 4.42.44 1.06.15 2.1.32 3.15.53a55 55 0 0 1 17 6.4l.43.26c1.13.66 2.24 1.38 3.34 2.14a54.8 54.8 0 0 1 11.76 11 13.48 13.48 0 0 1 2.09 3.76 13.52 13.52 0 0 1 .76 6.29z" fill="#231f20"/><path d="m707.61 270a13.61 13.61 0 0 1 -4.33 2.08c-.22.06-.43.11-.65.15a12.66 12.66 0 0 1 -2.93.33 13.54 13.54 0 0 1 -11-5.63 54.37 54.37 0 0 1 -7.55-14.83c-.47-1.45-.88-2.9-1.23-4.37-.12-.52-.24-1.05-.35-1.59s-.26-1.33-.36-2c-.05-.24-.09-.49-.12-.74a53.43 53.43 0 0 1 -.46-11.44 13.54 13.54 0 0 1 9.43-12 13 13 0 0 1 5-.61 13.56 13.56 0 0 1 12.62 14.42 26.39 26.39 0 0 0 .19 5.4l.06.37a23.85 23.85 0 0 0 .72 3.31c.15.51.31 1 .5 1.52a27.21 27.21 0 0 0 3.54 6.72 13.55 13.55 0 0 1 -3.08 18.91z" fill="#231f20"/><path d="m736.6 303.49a26.35 26.35 0 0 1 -8.82 14.92 55.38 55.38 0 0 0 -42.7-8.44 26 26 0 0 1 -2.46-17.15 26.78 26.78 0 0 1 20-20.6c.22 0 .43-.09.65-.15h.17a28.25 28.25 0 0 1 11.33-.07 27.9 27.9 0 0 1 17.23 10.86c.1.16.22.3.33.46a26.14 26.14 0 0 1 4.27 20.17z" fill="#f2bd77"/><path d="m786.67 246.42a53.59 53.59 0 0 1 -25.14 35.49 54.3 54.3 0 0 1 -15.38 6.28 13.47 13.47 0 0 1 -13.85-4.87c-.11-.16-.23-.3-.33-.46a13.55 13.55 0 0 1 7.91-21 27.49 27.49 0 0 0 7-2.75 26.53 26.53 0 0 0 13.14-17.9 26 26 0 0 0 -1.24-14.38 26.88 26.88 0 0 0 -3.73-6.72 13.55 13.55 0 0 1 2.56-19 13.17 13.17 0 0 1 4.19-2.16l.4-.11.41-.11a13.56 13.56 0 0 1 14 5 54.19 54.19 0 0 1 7.89 14.53 53.34 53.34 0 0 1 2.17 28.16z" fill="#231f20"/><path d="m677.93 167.28a27.25 27.25 0 0 0 -7 3.05 26.21 26.21 0 0 0 -12.15 17.32 26.62 26.62 0 0 0 8.71 25.1 31.59 31.59 0 0 0 2.5 1.95 13.58 13.58 0 0 1 3.43 18.86 14.18 14.18 0 0 1 -2.89 3 13.65 13.65 0 0 1 -8.27 2.79 13.45 13.45 0 0 1 -7.7-2.41 54.45 54.45 0 0 1 -17.42-19.82 53.26 53.26 0 0 1 18.51-69.27 55 55 0 0 1 15-6.73 13.56 13.56 0 1 1 7.26 26.12z" fill="#231f20"/><path d="m681.14 252.09a53.59 53.59 0 0 0 -25.14 35.48c-.31 1.58-.55 3.15-.72 4.74l-.34-.06c-.58-.11-1.13-.24-1.66-.37a54.09 54.09 0 0 0 -10.41-5.19 26.7 26.7 0 0 1 -9.73-26c2.57-13 14.73-22.15 28.31-21.34a25.8 25.8 0 0 1 3.86.49 27.8 27.8 0 0 1 10.3 4.28l.53.37a25.46 25.46 0 0 1 3.75 3.2c.37 1.5.78 2.95 1.25 4.4z" fill="#f2bd77"/><path d="m739.09 204.71a52.54 52.54 0 0 1 -7.23 17.29 54.48 54.48 0 0 1 -25.22 20.84c-.22.1-.44.19-.67.27a51.91 51.91 0 0 1 -6.54 2.1c-1.1.28-2.22.53-3.35.73h-.08l-1.86.31a55.1 55.1 0 0 1 -8 .58c-1.1 0-2.21 0-3.3-.11a13 13 0 0 1 -3.27-.6 13.27 13.27 0 0 1 -3.4-1.61l-.53-.37a13.46 13.46 0 0 1 -5.51-11.76 13.52 13.52 0 0 1 14.34-12.71 27.76 27.76 0 0 0 3.16 0 22.35 22.35 0 0 0 2.57-.25 27.21 27.21 0 0 0 20.33-14.61 25.56 25.56 0 0 0 2.1-5.92 13.54 13.54 0 0 1 16.14-10.33 13.38 13.38 0 0 1 6.47 3.45.41.41 0 0 1 .1.09 13.52 13.52 0 0 1 3.75 12.61z" fill="#231f20"/><path d="m727.91 178.82c-.08.07-.14.14-.22.2a13.39 13.39 0 0 1 -5.39 3 13.77 13.77 0 0 1 -3.76.53 13.57 13.57 0 0 1 -5.35-26 9 9 0 0 1 1.09-.41l1.08-.31h.08a13.57 13.57 0 0 1 12.45 23z" fill="#231f20"/><path d="m760.07 241.17a26.53 26.53 0 0 1 -13.14 17.9 55.63 55.63 0 0 0 -39.79-14.72c-.19-.5-.35-1-.5-1.52a54.48 54.48 0 0 0 25.22-20.83 55.7 55.7 0 0 0 22.95 4.95c1.34 0 2.68 0 4-.15a26 26 0 0 1 1.26 14.37z" fill="#f2bd77"/><path d="m808 183.67a53.2 53.2 0 0 1 -23.45 34.51 55.17 55.17 0 0 1 -25.72 8.61c-1.34.11-2.68.15-4 .15a55.7 55.7 0 0 1 -22.97-4.94 54.82 54.82 0 0 1 -15.4-10.43 55.51 55.51 0 0 1 -5.62-6.3c-.1-.15-.22-.29-.32-.44a53.54 53.54 0 0 1 -9.56-21.1 53 53 0 0 1 -1-14.45 13.6 13.6 0 0 1 11.49-12.57h.08a11.4 11.4 0 0 1 1.67-.14h.3a13.55 13.55 0 0 1 13.5 13.52v1a25.65 25.65 0 0 0 .69 8c.09.37.18.73.29 1.09a26.82 26.82 0 0 0 4.42 8.72 27.9 27.9 0 0 0 2.83 3.18.41.41 0 0 1 .1.09 28.24 28.24 0 0 0 26.52 6.82l.4-.11.41-.11a26.59 26.59 0 0 0 18.75-20.29c2.86-14.43-6.93-28.58-21.81-31.53l-.49-.08a27.71 27.71 0 0 0 -9.13-.16 13.56 13.56 0 0 1 -3.91-26.83 55.8 55.8 0 0 1 14.49-.19c1.44.16 2.87.39 4.3.67 29.53 5.78 48.88 34.21 43.14 63.31z" fill="#231f20"/><path d="m760.56 119.62a53.66 53.66 0 0 0 -8.29-19.33 55.33 55.33 0 0 0 -45.51-23.9c-25.46 0-48.2 17.71-53.26 43.26a53 53 0 0 0 2.13 28.24 54.83 54.83 0 0 0 41 35.13c1.43.28 2.88.51 4.31.69a55.43 55.43 0 0 0 6.54.39 54.23 54.23 0 0 0 14.8-2 50.7 50.7 0 0 0 5.68-1.94 54.51 54.51 0 0 0 9.5-5 53.06 53.06 0 0 0 21.63-28.33 51.76 51.76 0 0 0 1.55-6 52.77 52.77 0 0 0 -.08-21.21zm-37.94 32.84a27.61 27.61 0 0 1 -7.16 3.34h-.08l-1.08.31c-.91.23-1.83.41-2.77.55h-.08a28.32 28.32 0 0 1 -9.53-.25c-14.88-2.95-24.67-17.09-21.81-31.53s17.29-23.82 32.16-20.87a27.79 27.79 0 0 1 17.65 11.56 26.16 26.16 0 0 1 -7.29 36.86z" fill="#231f20"/><path d="m781.41 178.41a26.59 26.59 0 0 1 -18.75 20.29l-.41.11-.4.11a28.24 28.24 0 0 1 -26.52-6.82.41.41 0 0 0 -.1-.09 27.9 27.9 0 0 1 -2.83-3.18 26.82 26.82 0 0 1 -4.42-8.72 54.51 54.51 0 0 0 9.5-5 53.06 53.06 0 0 0 21.63-28.33l.49.08c14.88 2.97 24.67 17.14 21.81 31.55z" fill="#f2bd77"/><path d="m734.07 135.57a26.17 26.17 0 0 1 -11.45 16.89 27.61 27.61 0 0 1 -7.16 3.34h-.08a8.76 8.76 0 0 0 -1.08.31c-.91.23-1.83.41-2.77.55h-.08a28.32 28.32 0 0 1 -9.53-.25c-14.88-2.95-24.67-17.09-21.81-31.53s17.29-23.82 32.16-20.87a27.79 27.79 0 0 1 17.65 11.56 26.19 26.19 0 0 1 4.15 20z" fill="#f2bd77"/><path d="m710.52 204.81a27.21 27.21 0 0 1 -20.33 14.61 22.35 22.35 0 0 1 -2.57.25 55 55 0 0 0 -17-6.4c-1-.21-2.09-.38-3.15-.53a26.62 26.62 0 0 1 -8.71-25.1 26.21 26.21 0 0 1 12.15-17.32 54.83 54.83 0 0 0 25.74 12.68c1.43.28 2.88.51 4.31.69a53.54 53.54 0 0 0 9.56 21.12z" fill="#f2bd77"/><path d="m322.88 368.67a53.77 53.77 0 0 0 -24 38c-.31.21-.62.44-.91.67-15-.17-27.17-12.08-27.17-26.69a26.54 26.54 0 0 1 14.76-23.65l.09-.05h.08a28.3 28.3 0 0 1 27.68 1.46l.14.09a27.07 27.07 0 0 1 3.27 2.49 26.55 26.55 0 0 1 6.06 7.68z" fill="#f2bd77"/><path d="m319.58 421.27v.13l-.5 2a1 1 0 0 1 0 .17q-1 3.81-1.9 7.64-2.3 9.22-4.44 18.51c-9.23 39.64-16.75 79.89-22.47 120.1q-1.17 8.3-2.25 16.58a13.58 13.58 0 0 1 -11.57 11.69l-.44.05h-.17c-.42 0-.84.06-1.25.06a15.12 15.12 0 0 1 -1.76-.11 13.57 13.57 0 0 1 -11.7-15.19c.46-3.48.91-6.94 1.39-10.42 6.39-46.52 15.18-93.11 26.17-138.86q2-8.34 4.1-16.64c.18-.78.38-1.54.58-2.31v-.12a13.41 13.41 0 0 1 4.64-7.2c.29-.23.6-.46.91-.67a13.5 13.5 0 0 1 10.94-1.89 7.3 7.3 0 0 1 .91.27 13.54 13.54 0 0 1 8.81 16.21z" fill="#231f20"/><path d="m271.67 924.93a13.58 13.58 0 0 1 -14.88-12.09 1427.89 1427.89 0 0 1 -3.49-254.31c.08-1.21.18-2.42.27-3.63.33-4.12.67-8.21 1-12.22a13.56 13.56 0 0 1 14.71-12.3c.44 0 .87.1 1.3.18l.25.05.39.08a13.54 13.54 0 0 1 10.35 14.39c-.44 5-.87 10.26-1.25 15.48a1399 1399 0 0 0 3.43 249.47 13.55 13.55 0 0 1 -12.08 14.9z" fill="#231f20"/><path d="m648.78 408.91a26.16 26.16 0 0 1 -11.45 16.89 27.7 27.7 0 0 1 -20.71 4 27.07 27.07 0 0 1 -3.86-1l-.25-.08a27.55 27.55 0 0 1 -13.51-10.5 26.19 26.19 0 0 1 7.83-37.22 28.18 28.18 0 0 1 31.17 1.13 26.74 26.74 0 0 1 10.78 26.78z" fill="#f2bd77"/><path d="m621.27 444.79q-1.59 6.22-3.09 12.5a1210.51 1210.51 0 0 0 -28.27 167.71c-.31 3.15-.6 6.32-.88 9.48-1.18 13.28-2.14 26.71-2.88 40a13.54 13.54 0 0 1 -2.56 7.22l-.08.1-.25.33-.14.17a13.54 13.54 0 0 1 -10.49 5h-.76a13.58 13.58 0 0 1 -12.79-14.3c.08-1.42.16-2.84.26-4.26.9-15.49 2.11-31.08 3.59-46.38a1240.55 1240.55 0 0 1 29.41-173.59q1.3-5.34 2.65-10.65a13.56 13.56 0 0 1 16.47-9.81 9.12 9.12 0 0 1 1 .32l.25.08a13.56 13.56 0 0 1 8.56 16.08z" fill="#231f20"/><path d="m536.44 756.48q-6.36-15.4-13.34-29.58c-50.79-103.29-125.56-157.53-217.77-157.53h-4c-3.69.06-7.42.2-11.15.39-5.71.3-11.43.76-17.12 1.37q-5.32.55-10.63 1.31c-48.19 6.81-95.46 24.93-131.11 50.45a13.55 13.55 0 0 0 7.89 24.57h.66c24.09-.3 67.18-.8 113.68 7.42q5.85 1 11.77 2.25 7.65 1.59 15 3.43c43.74 11 78.82 28.8 104.45 53 58 54.9 63.31 155.47 62.88 196.16v.15a13.08 13.08 0 0 0 .87 4.74 4.65 4.65 0 0 0 .2.52 12.51 12.51 0 0 0 1.25 2.31c.12.18.25.35.38.53s.26.35.4.51.28.34.43.5.29.32.44.47l.48.45c.15.14.32.29.49.42s.34.27.51.41l.54.38a14.15 14.15 0 0 0 1.83 1 4 4 0 0 0 .47.21l.63.26.61.2c.21.07.43.13.65.18a12.47 12.47 0 0 0 1.86.34c.21 0 .42.05.64.06s.58 0 .88 0a13.56 13.56 0 0 0 13.55-13.41c.05-4.3 0-8.88 0-13.7-1-56.83-12.84-147.13-71.31-202.44-32.13-30.41-76.6-51.69-132.18-63.25l-.39-.08-.25-.05a513.32 513.32 0 0 0 -80.76-9.64 293.47 293.47 0 0 1 85.94-22.79h.17l.44-.05c8.47-.89 17-1.4 25.43-1.55h3.59c88.75 0 157.38 55.73 204 165.71q1 2.29 1.94 4.64a13.56 13.56 0 0 0 25.06-10.35z" fill="#231f20"/><path d="m506.52 909.94a13.56 13.56 0 0 1 -13.52 13.55h-31.78c-.3 0-.59 0-.88 0s-.43 0-.64-.06a12.47 12.47 0 0 1 -1.86-.34c-.22 0-.44-.11-.65-.18l-.61-.2-.63-.26a4 4 0 0 1 -.47-.21 14.15 14.15 0 0 1 -1.83-1l-.54-.38c-.17-.14-.34-.26-.51-.41s-.34-.28-.49-.42l-.48-.45c-.15-.15-.3-.31-.44-.47s-.29-.32-.43-.5-.27-.34-.4-.51-.26-.35-.38-.53a12.51 12.51 0 0 1 -1.25-2.31 4.65 4.65 0 0 1 -.2-.52 13.08 13.08 0 0 1 -.87-4.74v-.15a13.57 13.57 0 0 1 13.56-13.41h31.78a13.56 13.56 0 0 1 13.52 13.5z" fill="#231f20"/><path d="m873.57 505.3a13.53 13.53 0 0 0 -15.16-8.93c-71.8 12.64-136.76 37.84-193.09 74.9a450.73 450.73 0 0 0 -76.32 63.19c-11 11.37-20 21.91-27 30.9l-.26.33c-.82 1-1.61 2-2.38 3.06-17 22-25.61 38.16-27.51 41.87a142.23 142.23 0 0 0 -8.73 16.27 308.67 308.67 0 0 0 -12 30.37q-.82 2.43-1.65 4.92c-13 39.31-23.42 88.27-28.68 134.19-.47 4.12-.91 8.21-1.29 12.27a13.54 13.54 0 0 0 13.5 14.85h99.7a13.56 13.56 0 0 0 13.55-13.34c0-.64 1-63.93 1.87-78.73.07-1.3.12-2.8.18-4.45.9-24.45 3.65-98.83 135.32-214.8 6-5.25 11.48-10.34 16.81-15.27 9.66-8.9 18.78-17.31 30.06-26.33 20.38-16.3 44.74-31.84 76.67-48.9a13.54 13.54 0 0 0 6.41-16.37zm-100 44.1c-12 9.61-21.93 18.75-31.51 27.57-5.22 4.83-10.63 9.8-16.35 14.85-59.5 52.41-101.18 103.33-123.89 151.37-19 40.25-20.09 69-20.61 82.77 0 1.46-.09 2.77-.16 3.91-.64 11.15-1.34 46.8-1.67 66.51h-71.33c5.38-45.09 15.84-92.84 28.69-130.33 6.18-18.06 12.65-32.72 18.23-41.28a15.29 15.29 0 0 0 .81-1.42c.08-.17 8.53-17.13 27.34-41l.14-.17.25-.33.08-.1c30.3-38.32 91.86-99.75 195.41-136.64-1.82 1.43-3.64 2.89-5.43 4.29z" fill="#231f20"/><path d="m779 545.11c-1.86 1.43-3.68 2.85-5.47 4.29-12 9.61-21.93 18.75-31.51 27.57-5.22 4.83-10.63 9.8-16.35 14.85-59.5 52.41-101.18 103.33-123.89 151.37-19 40.25-20.09 69-20.61 82.77 0 1.46-.09 2.77-.16 3.91-.64 11.15-1.34 46.8-1.67 66.51h-71.29c5.38-45.09 15.84-92.84 28.69-130.33 6.18-18.06 12.65-32.72 18.23-41.28a15.29 15.29 0 0 0 .81-1.42c.08-.17 8.53-17.13 27.34-41l.14-.17.25-.33.08-.1c30.3-38.32 91.86-99.75 195.41-136.64z" fill="#8dc63f"/><path d="m509.44 762.19c-13 39.31-23.42 88.27-28.68 134.19h-6c-1-56.83-12.84-147.13-71.31-202.44-32.13-30.41-76.6-51.69-132.18-63.25l-.39-.08-.25-.05a513.32 513.32 0 0 0 -80.76-9.64 293.47 293.47 0 0 1 85.94-22.79h.17l.44-.05c8.47-.89 17-1.4 25.43-1.55h3.59c88.71-.05 157.34 55.68 204 165.66z" fill="#8dc63f"/></svg>