<svg id="Line_color" height="512" viewBox="0 0 256 256" width="512" xmlns="http://www.w3.org/2000/svg" data-name="Line color"><path d="m72.8755 197.7709c1.513-20.7233-12.8589-33.9859-12.8589-33.9859s-14.3714 13.2626-12.8589 33.9859c.7439 10.1844 7.0173 13.6165 12.9835 13.5258 6.173-.0935 12.0425-4.0474 12.7343-13.5258z" fill="#3f3d3d"/><path d="m34.7187 153.3872c20.7227 1.5125 33.9856-12.8592 33.9856-12.8592s-13.2629-14.3718-33.9856-12.859c-10.1841.7434-13.6168 7.0176-13.526 12.983.0934 6.1733 4.0473 12.0428 13.526 12.7352z" fill="#3f3d3d"/><path d="m116.4726 172.4937c-14.1925-15.1749-33.6875-13.62-33.6875-13.62s-.0123 19.5564 16.2341 32.5088c7.9847 6.3658 14.7635 4.0877 18.7452-.3556 4.1207-4.5979 5.2008-11.5921-1.2918-18.5332z" fill="#fcdc97"/><path d="m80.0459 126.605c9.4112 18.525 28.5683 22.455 28.5683 22.455s5.4532-18.7806-6.549-35.7422c-5.898-8.3356-13.0431-8.033-18.1038-4.8734-5.2373 3.2698-8.2204 9.6877-3.9155 18.1606z" fill="#3f3d3d"/><path d="m143.6751 74.9974c-19.1151-8.1442-24.3251-26.9941-24.3251-26.9941s18.3707-6.7033 36.1017 4.1307c8.713 5.3244 8.8924 12.4738 6.08 17.7359-2.9105 5.4449-9.1135 8.8523-17.8566 5.1275z" fill="#3f3d3d"/><path d="m109.3087 71.6351c-8.1447 19.1154-26.994 24.3249-26.994 24.3249s-6.7047-18.3714 4.1303-36.1013c5.3249-8.7135 12.4738-8.8924 17.7359-6.08 5.4452 2.9099 8.8521 9.1128 5.1278 17.8564z" fill="#3f3d3d"/><path d="m124.8762 139.809c14.4961-14.8852 33.9555-12.9374 33.9555-12.9374s-.3819 19.5524-16.8873 32.1744c-8.1108 6.2033-14.8425 3.7882-18.7338-.7342-4.0277-4.6794-4.9655-11.6944 1.6656-18.5028z" fill="#3f3d3d"/><path d="m64.3929 87.2115c12.1586 16.8491 6.8809 35.68 6.8809 35.68s-19.1931-3.7523-28.7762-22.1885c-4.71-9.06-1.1687-15.274 3.958-18.3264 5.3034-3.1586 12.3755-2.8715 17.9373 4.8349z" fill="#fcdc97"/><path d="m155.2794 209.6778c1.513-20.7227-12.8589-33.9853-12.8589-33.9853s-14.3714 13.2626-12.8589 33.9853c.7434 10.1847 7.0173 13.6173 12.9835 13.5266 6.1729-.0937 12.0424-4.048 12.7343-13.5266z" fill="#3f3d3d"/><path d="m123.4406 114.0066c20.7227 1.5128 33.9856-12.8592 33.9856-12.8592s-13.2629-14.3717-33.9856-12.8589c-10.1847.7434-13.6173 7.0176-13.526 12.983.0929 6.1732 4.0476 12.043 13.526 12.7351z" fill="#fcdc97"/><path d="m181.2427 160.567c-14.1931-15.175-33.6875-13.6206-33.6875-13.6206s-.0129 19.5562 16.2341 32.5091c7.9841 6.3656 14.763 4.0872 18.7456-.3555 4.1202-4.5977 5.1998-11.592-1.2922-18.533z" fill="#fcdc97"/><path d="m166.58 126.605c9.4113 18.5247 28.5683 22.4552 28.5683 22.4552s5.4529-18.7802-6.5483-35.7422c-5.8985-8.3356-13.0437-8.033-18.1043-4.8734-5.2374 3.2696-8.2199 9.6875-3.9157 18.1604z" fill="#3f3d3d"/><path d="m208.3307 99.0631c-19.1152-8.1442-24.3251-26.9938-24.3251-26.9938s18.3713-6.7031 36.1018 4.13c8.7135 5.3247 8.8913 12.4738 6.08 17.7359-2.91 5.4453-9.1136 8.8533-17.8567 5.1279z" fill="#3f3d3d"/><path d="m184.9031 54.1323c-8.1437 19.1157-26.9941 24.3251-26.9941 24.3251s-6.7031-18.3713 4.1309-36.1012c5.3249-8.7135 12.4733-8.8921 17.7358-6.08 5.4443 2.91 8.8528 9.113 5.1274 17.8561z" fill="#fcdc97"/><path d="m202.6588 164.2381c14.4971-14.8852 33.9555-12.9374 33.9555-12.9374s-.3819 19.5527-16.8872 32.1747c-8.1115 6.2031-14.8425 3.7882-18.7344-.7342-4.0267-4.6795-4.9645-11.6947 1.6661-18.5031z" fill="#3f3d3d"/><path d="m40.8482 33.0341c20.6562-2.2408 34.4158 11.6559 34.4158 11.6559s-12.7488 14.829-33.5118 14.046c-10.204-.3848-13.8553-6.5342-13.9745-12.4991-.1236-6.1728 3.6216-12.178 13.0705-13.2028z" fill="#3f3d3d"/><g fill="#1d1d1b"><path d="m61.8814 161.7642h-3.73c-.6268.5782-15.3275 14.412-13.7366 36.2071.8658 11.8534 8.5728 16.077 15.4967 16.0773l.2712-.0021c6.9018-.1044 14.5814-4.3825 15.4349-16.0751 1.5918-21.7953-13.1094-35.629-13.7362-36.2072zm8.2516 35.8067c-.7138 9.78-7.2547 10.9339-10.0337 10.9761l-.1874.0016c-3.44 0-9.314-1.4263-10.0118-10.9777-1.07-14.66 6.4974-25.47 10.1224-29.7486 3.6308 4.2646 11.1852 15.0277 10.1105 29.7486z"/><path d="m70.7254 142.3931-.0006-3.73c-.5221-.5658-13.0174-13.8553-32.9543-13.8553-1.0774 0-2.1715.04-3.2522.1187-12.0157.8771-16.1825 8.72-16.0751 15.7674.1042 6.9024 4.3823 14.582 16.0751 15.4362 1.08.0786 2.1743.1187 3.2517.1187 19.9375-.0002 32.4334-13.2902 32.9554-13.8557zm-32.9554 8.3555c-.9442 0-1.9035-.0349-2.851-.1042-9.7808-.7143-10.9344-7.255-10.9769-10.0343-.0531-3.5057 1.302-9.4923 10.9769-10.1984.9475-.0692 1.9067-.1042 2.8515-.1042 13.19 0 22.8879 6.8285 26.8909 10.22-4.0051 3.3944-13.7014 10.2211-26.8914 10.2211z"/><path d="m84.3546 156.0786c-1.0844 0-1.7193.0481-1.788.0535l-2.5314 2.74c0 .8524.1831 21.0386 17.27 34.6608 3.7732 3.0081 7.6226 4.5337 11.4409 4.534h.0016a14.8354 14.8354 0 0 0 11.065-5.2046c4.6073-5.1409 6.6773-13.6847-1.3315-22.2468-12.6154-13.4887-29.3103-14.5369-34.1266-14.5369zm31.3618 33.1128a9.3943 9.3943 0 0 1 -6.969 3.3752h-.001c-2.5416 0-5.2379-1.122-8.0126-3.3346-11.4931-9.1626-14.2968-22.0572-14.9794-27.6235 5.4914.2262 18.61 1.965 28.71 12.7639 6.6989 7.1617 3.1072 12.749 1.252 14.819z"/><path d="m108.0615 151.7541 3.1936-1.9271c.2379-.8188 5.6778-20.2587-6.9448-38.0974-4.7287-6.6827-9.9951-8.0854-13.5808-8.0854a15.5909 15.5909 0 0 0 -8.2242 2.4677c-5.8561 3.6559-10.2217 11.2866-4.9113 21.7387 9.8979 19.4825 29.6323 23.7321 30.4675 23.9035zm-22.6434-40.9769a10.1129 10.1129 0 0 1 5.3115-1.6331c3.3268 0 6.3852 1.9387 9.0911 5.7623 8.489 11.9966 7.5963 25.16 6.7026 30.7-5.3126-1.7757-17.3406-7.0885-24.0254-20.2471-4.4425-8.7427.5621-13.1102 2.9202-14.5821z"/><path d="m83.0473 98.6106c.8218-.2272 20.2254-5.7938 28.7912-25.8978 4.5944-10.7862-.2734-18.1059-6.3615-21.3595a15.8758 15.8758 0 0 0 -7.4288-1.9409c-3.851 0-9.3978 1.5635-13.95 9.0125-11.3946 18.6468-4.6592 37.6769-4.3671 38.4777zm5.7444-37.3178c2.5873-4.2337 5.7015-6.38 9.2566-6.38a10.3719 10.3719 0 0 1 4.8367 1.2915c2.4508 1.31 7.737 5.3308 3.894 14.3532-5.7579 13.5125-17.4223 19.658-22.6124 21.8071-1.2644-5.4732-3.0341-18.5389 4.625-31.0719z"/><path d="m53.0245 77.7364a15.65 15.65 0 0 0 -7.9755 2.2771c-6.0564 3.6062-10.5483 11.268-4.9914 21.9579 10.0789 19.39 29.852 23.4556 30.6889 23.6191l3.1754-1.957c.23-.821 5.4882-20.3108-7.2988-38.0313-4.6923-6.5013-9.985-7.8658-13.5986-7.8658zm16.1262 41.721c-5.3287-1.7262-17.4056-6.9271-24.2129-20.0229-4.4741-8.6069-.0881-12.9014 2.9251-14.6953a10.1548 10.1548 0 0 1 5.1616-1.5028c3.3419 0 6.5017 1.9309 9.1384 5.5843 8.5996 11.9171 7.8294 25.0881 6.9877 30.6367z"/><path d="m144.2853 173.6716h-3.73c-.6268.5782-15.3275 14.412-13.7366 36.2063.8647 11.8543 8.5722 16.0781 15.4966 16.0781l.2713-.0019c6.9024-.1047 14.582-4.3831 15.4349-16.0759 1.5918-21.7946-13.1095-35.6282-13.7362-36.2066zm8.2516 35.8062c-.7138 9.7808-7.2547 10.9347-10.0337 10.9769l-.1875.0013c-3.44 0-9.3145-1.4263-10.0117-10.9782-1.07-14.6593 6.4974-25.4692 10.1224-29.7481 3.6308 4.2646 11.1852 15.0278 10.1104 29.7481z"/><path d="m126.4924 85.427c-1.0774 0-2.1715.04-3.2522.1187-12.0167.8771-16.1831 8.72-16.0751 15.7671.0988 6.5869 4.3683 14.5817 16.0751 15.4365 1.08.0787 2.1743.1187 3.2517.1187h.0011c19.9375 0 32.4323-13.29 32.9543-13.8558l-.0006-3.73c-.522-.5658-13.0173-13.8552-32.9543-13.8552zm0 25.941c-.9448 0-1.904-.0349-2.8515-.1042-9.7813-.7141-10.935-7.2548-10.9769-10.0346-.0537-3.5054 1.3014-9.4921 10.9769-10.198.9475-.0693 1.9067-.1042 2.8515-.1042 13.1984 0 22.9 6.8366 26.8979 10.2263-3.9837 3.3937-13.6414 10.2147-26.8979 10.2147z"/><path d="m156.8821 144.85a47.2481 47.2481 0 0 0 4.6992-17.9249l-2.4755-2.79c-.0994-.01-1.0184-.0975-2.5679-.0975-6.0559 0-21.4559 1.35-33.6316 13.8523-8.1807 8.4-6.2831 16.9834-1.78 22.2154a14.7832 14.7832 0 0 0 11.2444 5.43c3.7265 0 7.51-1.4483 11.2444-4.305 1.1172-.8543 2.1618-1.7378 3.1442-2.642a45.8138 45.8138 0 0 0 15.3157 23.0173c3.7732 3.0081 7.6221 4.5335 11.44 4.5338h.0011a14.84 14.84 0 0 0 11.0666-5.2043c4.6067-5.141 6.6762-13.6848-1.332-22.2468a46.5093 46.5093 0 0 0 -26.3686-13.8383zm-9.5455-.6454-2.5314 2.74a36.42 36.42 0 0 0 .5059 5.3061 38.6856 38.6856 0 0 1 -5.037 4.611c-2.7538 2.1061-5.413 3.1738-7.9036 3.1738a9.3535 9.3535 0 0 1 -7.0753-3.5176c-1.8133-2.1065-5.2916-7.7644 1.5512-14.79 10.263-10.5386 23.1913-12.0723 28.9711-12.1827a44.623 44.623 0 0 1 -4.8093 14.6548c-.7428-.0358-1.3814-.0486-1.8841-.0486-1.0841.0002-1.7188.0486-1.7875.0536zm33.1509 33.0594a9.3993 9.3993 0 0 1 -6.9706 3.3752c-2.5422 0-5.2379-1.1221-8.0126-3.3344-11.4931-9.1628-14.2973-22.0575-14.9794-27.6238 5.4914.2261 18.61 1.965 28.71 12.7641 6.6978 7.1622 3.1067 12.7498 1.2526 14.8193z"/><path d="m190.8446 111.73c-4.7287-6.6827-9.995-8.0854-13.5808-8.0854a15.5912 15.5912 0 0 0 -8.2242 2.4677c-5.8561 3.6556-10.2212 11.2863-4.9113 21.7387 9.8979 19.4825 29.6323 23.7322 30.4675 23.9035l3.1937-1.9271c.2378-.8193 5.6771-20.2592-6.9449-38.0974zm2.2129 33.8771c-5.3126-1.7757-17.3406-7.0885-24.0255-20.2471-4.4418-8.7431.5624-13.11 2.92-14.5823a10.1131 10.1131 0 0 1 5.3115-1.6331c3.3269 0 6.3857 1.9387 9.0911 5.7623 8.4887 11.9962 7.5961 25.1592 6.7029 30.6997z"/><path d="m181.3549 72.8019c.2272.8218 5.7944 20.2256 25.8978 28.791a20.6188 20.6188 0 0 0 8.0572 1.7858 14.7658 14.7658 0 0 0 13.3026-8.1471c3.3214-6.2163 3.2082-15.0968-7.0716-21.3786a45.1344 45.1344 0 0 0 -23.8933-6.5841 46.216 46.216 0 0 0 -14.5847 2.2169zm16.2927-.033a39.7127 39.7127 0 0 1 21.0257 5.7774c8.2768 5.0577 6.7407 11.0008 5.0881 14.0933a9.3736 9.3736 0 0 1 -8.4515 5.2392 15.1888 15.1888 0 0 1 -5.9012-1.3457c-13.52-5.76-19.6657-17.4354-21.811-22.6185a44.704 44.704 0 0 1 10.0499-1.1457z"/><path d="m142.5971 77.5274a20.6272 20.6272 0 0 0 8.0572 1.7854 15.1981 15.1981 0 0 0 4.4247-.6507c.1278.4052.2181.66.2465.738l3.3161 1.708c.8218-.2272 20.2265-5.7938 28.7912-25.8979 4.5955-10.7854-.2723-18.1054-6.361-21.3595a15.8792 15.8792 0 0 0 -7.4293-1.9408c-3.8511 0-9.3973 1.5635-13.9493 9.0124a44.5451 44.5451 0 0 0 -3.9262 8.2076 45.2188 45.2188 0 0 0 -22.7751-5.927 46.21 46.21 0 0 0 -14.5846 2.2171l-1.708 3.3161c.2272.8216 5.7943 20.2258 25.8978 28.7913zm21.7895-33.7374c2.5873-4.2338 5.7014-6.38 9.256-6.38a10.372 10.372 0 0 1 4.8372 1.2915c2.4508 1.31 7.7376 5.3314 3.8935 14.3532-5.76 13.52-17.4351 19.6652-22.6209 21.811-1.2751-5.4542-3.0615-18.4813 4.6342-31.0757zm-31.3946 4.9129a39.71 39.71 0 0 1 21.0257 5.7777c.0586.0357.1117.0719.1692.1077a48.8914 48.8914 0 0 0 -.3738 18.7086 9.5377 9.5377 0 0 1 -3.1587.5159 15.1885 15.1885 0 0 1 -5.9012-1.3455c-13.5244-5.7621-19.6695-17.4429-21.8126-22.6239a44.5375 44.5375 0 0 1 10.0514-1.1405z"/><path d="m236.8883 148.5644c-.0993-.01-1.0183-.0975-2.5673-.0975-6.0559 0-21.4554 1.35-33.6322 13.8526-8.18 8.3991-6.2831 16.9828-1.7805 22.2154a14.785 14.785 0 0 0 11.2449 5.43c3.7259 0 7.5093-1.4485 11.2444-4.3049 17.3588-13.2746 17.95-33.453 17.9663-34.3054zm-18.8316 32.7266c-2.7538 2.1058-5.413 3.1738-7.9036 3.1738a9.3564 9.3564 0 0 1 -7.0759-3.5172c-1.8127-2.1068-5.2905-7.7652 1.5517-14.7907 10.2583-10.5327 23.1773-12.0707 28.9615-12.1827-.7949 5.5545-3.8591 18.3887-15.5337 27.3168z"/><path d="m41.6485 61.484c.57.0214 1.1317.032 1.69.032 20.8452 0 33.4829-14.4192 34.01-15.0331l-.1305-3.7279a47.7627 47.7627 0 0 0 -31.8645-12.7156 44.6892 44.6892 0 0 0 -4.8017.2608c-11.6564 1.2641-15.6618 9.0898-15.5237 15.9916.1408 7.0466 4.5811 14.7382 16.6204 15.1922zm-.5038-25.716a39.22 39.22 0 0 1 4.2088-.2285c12.5007 0 21.8942 6.154 25.87 9.2918-4.1572 3.78-14.68 11.7068-29.3681 11.1565-9.6937-.3655-11.2589-6.3005-11.3287-9.806-.0555-2.7788.8678-9.3562 10.618-10.4138z"/></g></svg>